SplineFontDB: 3.2
FontName: Reijima-Bold
FullName: Reijima Bold
FamilyName: Reijima
Weight: Bold
Copyright: Copyright (c) 2019 by Coji Morishita. All rights reserved.
Version: 1.000
ItalicAngle: 0
UnderlinePosition: -100
UnderlineWidth: 50
Ascent: 860
Descent: 140
InvalidEm: 0
sfntRevision: 0x00010000
LayerCount: 2
Layer: 0 1 "Back" 1
Layer: 1 1 "Fore" 0
XUID: [1021 531 -1996577725 14215911]
StyleMap: 0x0020
FSType: 8
OS2Version: 4
OS2_WeightWidthSlopeOnly: 0
OS2_UseTypoMetrics: 1
CreationTime: 1575364793
ModificationTime: 1707312942
PfmFamily: 81
TTFWeight: 700
TTFWidth: 5
LineGap: 0
VLineGap: 0
Panose: 0 0 8 0 0 0 0 0 0 0
OS2TypoAscent: 960
OS2TypoAOffset: 0
OS2TypoDescent: -230
OS2TypoDOffset: 0
OS2TypoLinegap: 200
OS2WinAscent: 1060
OS2WinAOffset: 0
OS2WinDescent: 330
OS2WinDOffset: 0
HheadAscent: 1060
HheadAOffset: 0
HheadDescent: -330
HheadDOffset: 0
OS2SubXSize: 650
OS2SubYSize: 600
OS2SubXOff: 0
OS2SubYOff: 75
OS2SupXSize: 650
OS2SupYSize: 600
OS2SupXOff: 0
OS2SupYOff: 350
OS2StrikeYSize: 50
OS2StrikeYPos: 312
OS2CapHeight: 730
OS2XHeight: 520
OS2Vendor: 'M+  '
OS2CodePages: 0000019f.00000000
OS2UnicodeRanges: a00002ff.4000204b.00000010.00000000
Lookup: 1 0 0 "'aalt' Access All Alternates in Latin lookup 0" { "'aalt' Access All Alternates in Latin lookup 0 subtable"  } ['aalt' ('DFLT' <'dflt' > 'latn' <'AZE ' 'CAT ' 'CRT ' 'KAZ ' 'MOL ' 'ROM ' 'TAT ' 'TRK ' 'dflt' > ) ]
Lookup: 3 0 0 "'aalt' Access All Alternates in Latin lookup 1" { "'aalt' Access All Alternates in Latin lookup 1 subtable"  } ['aalt' ('DFLT' <'dflt' > 'latn' <'AZE ' 'CAT ' 'CRT ' 'KAZ ' 'MOL ' 'ROM ' 'TAT ' 'TRK ' 'dflt' > ) ]
Lookup: 6 0 0 "'ccmp' Glyph Composition/Decomposition in Latin lookup 2" { "'ccmp' Glyph Composition/Decomposition in Latin lookup 2 contextual 0"  "'ccmp' Glyph Composition/Decomposition in Latin lookup 2 contextual 1"  } ['ccmp' ('DFLT' <'dflt' > 'latn' <'AZE ' 'CAT ' 'CRT ' 'KAZ ' 'MOL ' 'ROM ' 'TAT ' 'TRK ' 'dflt' > ) ]

StartChar: .notdef
Encoding: 1114112 -1 0
Width: 500
Flags: W
LayerCount: 2
Fore
SplineSet
410 -140 m 1,0,-1
 93 -140 l 1,1,-1
 93 860 l 1,2,-1
 410 860 l 1,3,-1
 410 -140 l 1,0,-1
168 793 m 1,4,-1
 168 760 l 1,5,-1
 233 760 l 1,6,-1
 233 723 l 1,7,-1
 167 723 l 1,8,-1
 167 690 l 1,9,-1
 333 690 l 1,10,-1
 333 723 l 1,11,-1
 267 723 l 1,12,-1
 267 760 l 1,13,-1
 333 760 l 1,14,-1
 333 793 l 1,15,-1
 168 793 l 1,4,-1
167 664 m 1,16,-1
 167 560 l 1,17,-1
 333 560 l 1,18,-1
 333 594 l 1,19,-1
 267 594 l 1,20,-1
 267 664 l 1,21,-1
 167 664 l 1,16,-1
233 594 m 1,22,-1
 200 594 l 1,23,-1
 200 630 l 1,24,-1
 233 630 l 1,25,-1
 233 594 l 1,22,-1
167 533 m 1,26,-1
 167 500 l 1,27,-1
 233 500 l 1,28,-1
 233 463 l 1,29,-1
 167 463 l 1,30,-1
 167 430 l 1,31,-1
 267 430 l 1,32,-1
 267 500 l 1,33,-1
 333 500 l 1,34,-1
 333 533 l 1,35,-1
 167 533 l 1,26,-1
300 473 m 1,36,-1
 300 407 l 1,37,-1
 167 407 l 1,38,-1
 167 373 l 1,39,-1
 333 373 l 1,40,-1
 333 473 l 1,41,-1
 300 473 l 1,36,-1
233 351 m 1,42,-1
 233 295 l 1,43,-1
 267 295 l 1,44,-1
 267 318 l 1,45,-1
 300 318 l 1,46,-1
 300 271 l 1,47,-1
 200 271 l 1,48,-1
 200 351 l 1,49,-1
 167 351 l 1,50,-1
 167 238 l 1,51,-1
 333 238 l 1,52,-1
 333 351 l 1,53,-1
 233 351 l 1,42,-1
167 178 m 1,54,-1
 167 65 l 1,55,-1
 333 65 l 1,56,-1
 333 178 l 1,57,-1
 167 178 l 1,54,-1
300 98 m 1,58,-1
 200 98 l 1,59,-1
 200 145 l 1,60,-1
 300 145 l 1,61,-1
 300 98 l 1,58,-1
167 42 m 1,62,-1
 167 9 l 1,63,-1
 237 9 l 1,64,-1
 167 -38 l 1,65,-1
 167 -71 l 1,66,-1
 333 -71 l 1,67,-1
 333 -38 l 1,68,-1
 231 -38 l 1,69,-1
 301 9 l 1,70,-1
 333 9 l 1,71,-1
 333 42 l 1,72,-1
 167 42 l 1,62,-1
EndSplineSet
EndChar

StartChar: A
Encoding: 65 65 2
Width: 684
GlyphClass: 2
Flags: W
AnchorPoint: "Anchor-6" 342 730 basechar 0
AnchorPoint: "Anchor-5" 674 0 basechar 0
AnchorPoint: "Anchor-4" 342 0 basechar 0
LayerCount: 2
Fore
SplineSet
520 0 m 1,0,-1
 472 167 l 1,1,-1
 212 167 l 1,2,-1
 164 0 l 1,3,-1
 10 0 l 1,4,-1
 247 730 l 1,5,-1
 437 730 l 1,6,-1
 674 0 l 1,7,-1
 520 0 l 1,0,-1
248 289 m 1,8,-1
 436 289 l 1,9,-1
 343 611 l 1,10,-1
 341 611 l 1,11,-1
 248 289 l 1,8,-1
EndSplineSet
Substitution2: "Single Substitution lookup 21 subtable" ordfeminine
Substitution2: "'aalt' Access All Alternates in Latin lookup 0 subtable" ordfeminine
EndChar

StartChar: uni1EAE
Encoding: 7854 7854 5
Width: 684
GlyphClass: 2
Flags: W
AnchorPoint: "Anchor-6" 342 730 basechar 0
AnchorPoint: "Anchor-5" 674 0 basechar 0
AnchorPoint: "Anchor-4" 342 0 basechar 0
LayerCount: 2
Fore
SplineSet
230.5 799 m 128,-1,1
 181 823 181 823 152.5 865.5 c 128,-1,2
 124 908 124 908 122 962 c 1,3,-1
 242 962 l 1,4,-1
 320 1160 l 1,5,-1
 490 1160 l 1,6,-1
 367 950 l 1,7,-1
 258 950 l 1,8,9
 272 876 272 876 342 876 c 0,10,11
 416 876 416 876 427 962 c 1,12,-1
 562 962 l 1,13,14
 560 908 560 908 531.5 865.5 c 128,-1,15
 503 823 503 823 453.5 799 c 128,-1,16
 404 775 404 775 342 775 c 256,17,0
 280 775 280 775 230.5 799 c 128,-1,1
520 0 m 1,18,-1
 472 167 l 1,19,-1
 212 167 l 1,20,-1
 164 0 l 1,21,-1
 10 0 l 1,22,-1
 247 730 l 1,23,-1
 437 730 l 1,24,-1
 674 0 l 1,25,-1
 520 0 l 1,18,-1
248 289 m 1,26,-1
 436 289 l 1,27,-1
 343 611 l 1,28,-1
 341 611 l 1,29,-1
 248 289 l 1,26,-1
EndSplineSet
EndChar

StartChar: uni1EB0
Encoding: 7856 7856 7
Width: 684
GlyphClass: 2
Flags: W
AnchorPoint: "Anchor-6" 342 730 basechar 0
AnchorPoint: "Anchor-5" 674 0 basechar 0
AnchorPoint: "Anchor-4" 342 0 basechar 0
LayerCount: 2
Fore
SplineSet
397 894.5 m 128,-1,1
 418 913 418 913 425 950 c 1,2,-1
 317 950 l 1,3,-1
 194 1160 l 1,4,-1
 364 1160 l 1,5,-1
 442 962 l 1,6,-1
 562 962 l 1,7,8
 560 908 560 908 531.5 865.5 c 128,-1,9
 503 823 503 823 453.5 799 c 128,-1,10
 404 775 404 775 342 775 c 256,11,12
 280 775 280 775 230.5 799 c 128,-1,13
 181 823 181 823 152.5 865.5 c 128,-1,14
 124 908 124 908 122 962 c 1,15,-1
 256 962 l 1,16,17
 267 876 267 876 342 876 c 0,18,0
 376 876 376 876 397 894.5 c 128,-1,1
520 0 m 1,19,-1
 472 167 l 1,20,-1
 212 167 l 1,21,-1
 164 0 l 1,22,-1
 10 0 l 1,23,-1
 247 730 l 1,24,-1
 437 730 l 1,25,-1
 674 0 l 1,26,-1
 520 0 l 1,19,-1
248 289 m 1,27,-1
 436 289 l 1,28,-1
 343 611 l 1,29,-1
 341 611 l 1,30,-1
 248 289 l 1,27,-1
EndSplineSet
EndChar

StartChar: uni1EB2
Encoding: 7858 7858 8
Width: 684
GlyphClass: 2
Flags: W
AnchorPoint: "Anchor-6" 342 1152 basechar 0
AnchorPoint: "Anchor-5" 674 0 basechar 0
AnchorPoint: "Anchor-4" 342 0 basechar 0
LayerCount: 2
Fore
SplineSet
425 952 m 1,1,-1
 365 952 l 1,2,3
 377 992 377 992 377 1016 c 0,4,5
 377 1037 377 1037 364 1044 c 128,-1,6
 351 1051 351 1051 316 1051 c 0,7,8
 248 1051 248 1051 182 1031 c 1,9,-1
 170 1134 l 1,10,11
 248 1152 248 1152 342 1152 c 0,12,13
 410 1152 410 1152 446 1144.5 c 128,-1,14
 482 1137 482 1137 497.5 1118.5 c 128,-1,15
 513 1100 513 1100 513 1065 c 0,16,17
 513 1042 513 1042 508 1014 c 128,-1,18
 503 986 503 986 495 962 c 1,19,-1
 562 962 l 1,20,21
 560 908 560 908 531.5 865.5 c 128,-1,22
 503 823 503 823 453.5 799 c 128,-1,23
 404 775 404 775 342 775 c 256,24,25
 280 775 280 775 230.5 799 c 128,-1,26
 181 823 181 823 152.5 865.5 c 128,-1,27
 124 908 124 908 122 962 c 1,28,-1
 256 962 l 1,29,30
 267 876 267 876 342 876 c 0,31,0
 411 876 411 876 425 952 c 1,1,-1
520 0 m 1,32,-1
 472 167 l 1,33,-1
 212 167 l 1,34,-1
 164 0 l 1,35,-1
 10 0 l 1,36,-1
 247 730 l 1,37,-1
 437 730 l 1,38,-1
 674 0 l 1,39,-1
 520 0 l 1,32,-1
248 289 m 1,40,-1
 436 289 l 1,41,-1
 343 611 l 1,42,-1
 341 611 l 1,43,-1
 248 289 l 1,40,-1
EndSplineSet
EndChar

StartChar: uni1EA4
Encoding: 7844 7844 11
Width: 684
GlyphClass: 2
Flags: W
AnchorPoint: "Anchor-6" 342 730 basechar 0
AnchorPoint: "Anchor-5" 674 0 basechar 0
AnchorPoint: "Anchor-4" 342 0 basechar 0
LayerCount: 2
Fore
SplineSet
341 923 m 1,0,-1
 261 770 l 1,1,-1
 105 770 l 1,2,-1
 227 980 l 1,3,-1
 447 980 l 1,4,-1
 518 1160 l 1,5,-1
 688 1160 l 1,6,-1
 565 950 l 1,7,-1
 474 950 l 1,8,-1
 579 770 l 1,9,-1
 423 770 l 1,10,-1
 343 923 l 1,11,-1
 341 923 l 1,0,-1
247 730 m 1,12,-1
 437 730 l 1,13,-1
 674 0 l 1,14,-1
 520 0 l 1,15,-1
 472 167 l 1,16,-1
 212 167 l 1,17,-1
 164 0 l 1,18,-1
 10 0 l 1,19,-1
 247 730 l 1,12,-1
248 289 m 1,20,-1
 436 289 l 1,21,-1
 343 611 l 1,22,-1
 341 611 l 1,23,-1
 248 289 l 1,20,-1
EndSplineSet
EndChar

StartChar: uni1EA6
Encoding: 7846 7846 13
Width: 684
GlyphClass: 2
Flags: W
AnchorPoint: "Anchor-6" 342 730 basechar 0
AnchorPoint: "Anchor-5" 674 0 basechar 0
AnchorPoint: "Anchor-4" 342 0 basechar 0
LayerCount: 2
Fore
SplineSet
210 950 m 1,0,-1
 119 950 l 1,1,-1
 -4 1160 l 1,2,-1
 166 1160 l 1,3,-1
 237 980 l 1,4,-1
 456 980 l 1,5,-1
 579 770 l 1,6,-1
 423 770 l 1,7,-1
 343 923 l 1,8,-1
 341 923 l 1,9,-1
 261 770 l 1,10,-1
 105 770 l 1,11,-1
 210 950 l 1,0,-1
520 0 m 1,12,-1
 472 167 l 1,13,-1
 212 167 l 1,14,-1
 164 0 l 1,15,-1
 10 0 l 1,16,-1
 247 730 l 1,17,-1
 437 730 l 1,18,-1
 674 0 l 1,19,-1
 520 0 l 1,12,-1
248 289 m 1,20,-1
 436 289 l 1,21,-1
 343 611 l 1,22,-1
 341 611 l 1,23,-1
 248 289 l 1,20,-1
EndSplineSet
EndChar

StartChar: uni1EA8
Encoding: 7848 7848 14
Width: 684
GlyphClass: 2
Flags: W
AnchorPoint: "Anchor-6" 413 1148 basechar 0
AnchorPoint: "Anchor-5" 674 0 basechar 0
AnchorPoint: "Anchor-4" 342 0 basechar 0
LayerCount: 2
Fore
SplineSet
261 770 m 1,0,-1
 105 770 l 1,1,-1
 227 980 l 1,2,-1
 444 980 l 1,3,4
 448 1004 448 1004 448 1012 c 0,5,6
 448 1033 448 1033 435 1040 c 128,-1,7
 422 1047 422 1047 387 1047 c 0,8,9
 319 1047 319 1047 253 1027 c 1,10,-1
 241 1130 l 1,11,12
 319 1148 319 1148 413 1148 c 0,13,14
 481 1148 481 1148 517 1140.5 c 128,-1,15
 553 1133 553 1133 568.5 1114.5 c 128,-1,16
 584 1096 584 1096 584 1061 c 0,17,18
 584 1036 584 1036 578 1004.5 c 128,-1,19
 572 973 572 973 562 948 c 1,20,-1
 475 948 l 1,21,-1
 579 770 l 1,22,-1
 423 770 l 1,23,-1
 343 923 l 1,24,-1
 341 923 l 1,25,-1
 261 770 l 1,0,-1
520 0 m 1,26,-1
 472 167 l 1,27,-1
 212 167 l 1,28,-1
 164 0 l 1,29,-1
 10 0 l 1,30,-1
 247 730 l 1,31,-1
 437 730 l 1,32,-1
 674 0 l 1,33,-1
 520 0 l 1,26,-1
248 289 m 1,34,-1
 436 289 l 1,35,-1
 343 611 l 1,36,-1
 341 611 l 1,37,-1
 248 289 l 1,34,-1
EndSplineSet
EndChar

StartChar: Aogonek
Encoding: 260 260 23
Width: 684
GlyphClass: 2
Flags: W
AnchorPoint: "Anchor-6" 342 730 basechar 0
AnchorPoint: "Anchor-5" 674 0 basechar 0
AnchorPoint: "Anchor-4" 342 0 basechar 0
LayerCount: 2
Fore
SplineSet
764 -197 m 1,0,1
 712 -218 712 -218 646 -218 c 0,2,3
 560 -218 560 -218 513.5 -187.5 c 128,-1,4
 467 -157 467 -157 467 -102 c 0,5,6
 467 -46 467 -46 518 5 c 1,7,-1
 472 167 l 1,8,-1
 212 167 l 1,9,-1
 164 0 l 1,10,-1
 10 0 l 1,11,-1
 247 730 l 1,12,-1
 437 730 l 1,13,-1
 674 0 l 1,14,15
 593 -44 593 -44 593 -81 c 0,16,17
 593 -98 593 -98 609 -106.5 c 128,-1,18
 625 -115 625 -115 656 -115 c 0,19,20
 702 -115 702 -115 748 -96 c 1,21,-1
 764 -197 l 1,0,1
248 289 m 1,22,-1
 436 289 l 1,23,-1
 343 611 l 1,24,-1
 341 611 l 1,25,-1
 248 289 l 1,22,-1
EndSplineSet
EndChar

StartChar: Aring
Encoding: 197 197 24
Width: 684
GlyphClass: 2
Flags: W
AnchorPoint: "Anchor-6" 343 912 basechar 0
AnchorPoint: "Anchor-5" 674 0 basechar 0
AnchorPoint: "Anchor-4" 342 0 basechar 0
LayerCount: 2
Fore
SplineSet
472 167 m 1,0,-1
 212 167 l 1,1,-1
 164 0 l 1,2,-1
 10 0 l 1,3,-1
 243 719 l 1,4,5
 217 741 217 741 202 772.5 c 128,-1,6
 187 804 187 804 187 840 c 0,7,8
 187 883 187 883 208 919 c 128,-1,9
 229 955 229 955 265 976 c 128,-1,10
 301 997 301 997 343 997 c 0,11,12
 386 997 386 997 422 976 c 128,-1,13
 458 955 458 955 479 919 c 128,-1,14
 500 883 500 883 500 840 c 0,15,16
 500 803 500 803 484.5 771 c 128,-1,17
 469 739 469 739 441 717 c 1,18,-1
 674 0 l 1,19,-1
 520 0 l 1,20,-1
 472 167 l 1,0,-1
297 886 m 128,-1,22
 278 867 278 867 278 840 c 256,23,24
 278 813 278 813 297 794 c 128,-1,25
 316 775 316 775 343 775 c 0,26,27
 371 775 371 775 389.5 794 c 128,-1,28
 408 813 408 813 408 840 c 256,29,30
 408 867 408 867 389.5 886 c 128,-1,31
 371 905 371 905 343 905 c 0,32,21
 316 905 316 905 297 886 c 128,-1,22
248 289 m 1,33,-1
 436 289 l 1,34,-1
 343 611 l 1,35,-1
 341 611 l 1,36,-1
 248 289 l 1,33,-1
EndSplineSet
EndChar

StartChar: Aringacute
Encoding: 506 506 25
Width: 684
GlyphClass: 2
Flags: W
AnchorPoint: "Anchor-6" 343 912 basechar 0
AnchorPoint: "Anchor-5" 674 0 basechar 0
AnchorPoint: "Anchor-4" 342 0 basechar 0
LayerCount: 2
Fore
SplineSet
472 167 m 1,0,-1
 212 167 l 1,1,-1
 164 0 l 1,2,-1
 10 0 l 1,3,-1
 243 719 l 1,4,5
 217 741 217 741 202 772.5 c 128,-1,6
 187 804 187 804 187 840 c 0,7,8
 187 875 187 875 201.5 906 c 128,-1,9
 216 937 216 937 241 958 c 1,10,-1
 321 1162 l 1,11,-1
 491 1162 l 1,12,-1
 390 990 l 1,13,14
 439 975 439 975 469.5 934 c 128,-1,15
 500 893 500 893 500 840 c 0,16,17
 500 803 500 803 484.5 771 c 128,-1,18
 469 739 469 739 441 717 c 1,19,-1
 674 0 l 1,20,-1
 520 0 l 1,21,-1
 472 167 l 1,0,-1
389.5 794 m 128,-1,23
 408 813 408 813 408 840 c 256,24,25
 408 867 408 867 389.5 886 c 128,-1,26
 371 905 371 905 343 905 c 0,27,28
 316 905 316 905 297 886 c 128,-1,29
 278 867 278 867 278 840 c 256,30,31
 278 813 278 813 297 794 c 128,-1,32
 316 775 316 775 343 775 c 0,33,22
 371 775 371 775 389.5 794 c 128,-1,23
248 289 m 1,34,-1
 436 289 l 1,35,-1
 343 611 l 1,36,-1
 341 611 l 1,37,-1
 248 289 l 1,34,-1
EndSplineSet
EndChar

StartChar: AE
Encoding: 198 198 27
Width: 876
GlyphClass: 2
Flags: W
AnchorPoint: "Anchor-6" 467 730 basechar 0
AnchorPoint: "Anchor-4" 467 0 basechar 0
LayerCount: 2
Fore
SplineSet
815 611 m 1,0,-1
 548 611 l 1,1,-1
 548 438 l 1,2,-1
 795 438 l 1,3,-1
 795 323 l 1,4,-1
 548 323 l 1,5,-1
 548 119 l 1,6,-1
 815 119 l 1,7,-1
 815 0 l 1,8,-1
 408 0 l 1,9,-1
 408 167 l 1,10,-1
 223 167 l 1,11,-1
 164 0 l 1,12,-1
 10 0 l 1,13,-1
 291 730 l 1,14,-1
 815 730 l 1,15,-1
 815 611 l 1,0,-1
266 289 m 1,16,-1
 408 289 l 1,17,-1
 408 617 l 1,18,-1
 382 617 l 1,19,-1
 266 289 l 1,16,-1
EndSplineSet
EndChar

StartChar: B
Encoding: 66 66 29
Width: 657
Flags: W
LayerCount: 2
Fore
SplineSet
579.5 328.5 m 128,-1,1
 622 283 622 283 622 207 c 0,2,3
 622 0 622 0 308 0 c 2,4,-1
 75 0 l 1,5,-1
 75 730 l 1,6,-1
 302 730 l 2,7,8
 595 730 595 730 595 552 c 0,9,10
 595 486 595 486 558 443.5 c 128,-1,11
 521 401 521 401 454 388 c 1,12,-1
 454 386 l 1,13,0
 537 374 537 374 579.5 328.5 c 128,-1,1
215 613 m 1,14,-1
 215 437 l 1,15,-1
 308 437 l 2,16,17
 385 437 385 437 420 458.5 c 128,-1,18
 455 480 455 480 455 527 c 0,19,20
 455 573 455 573 421 593 c 128,-1,21
 387 613 387 613 308 613 c 2,22,-1
 215 613 l 1,14,-1
437.5 142 m 128,-1,24
 479 167 479 167 479 220 c 256,25,26
 479 273 479 273 437.5 298 c 128,-1,27
 396 323 396 323 308 323 c 2,28,-1
 215 323 l 1,29,-1
 215 117 l 1,30,-1
 308 117 l 2,31,23
 396 117 396 117 437.5 142 c 128,-1,24
EndSplineSet
EndChar

StartChar: C
Encoding: 67 67 30
Width: 693
GlyphClass: 2
Flags: W
AnchorPoint: "Anchor-6" 380 730 basechar 0
AnchorPoint: "Anchor-4" 380 0 basechar 0
LayerCount: 2
Fore
SplineSet
206 34.5 m 128,-1,1
 124 79 124 79 80.5 163.5 c 128,-1,2
 37 248 37 248 37 365 c 256,3,4
 37 482 37 482 80.5 566.5 c 128,-1,5
 124 651 124 651 206 695.5 c 128,-1,6
 288 740 288 740 403 740 c 0,7,8
 543 740 543 740 648 674 c 1,9,-1
 590 563 l 1,10,11
 501 617 501 617 409 617 c 0,12,13
 302 617 302 617 241.5 550.5 c 128,-1,14
 181 484 181 484 181 365 c 256,15,16
 181 246 181 246 241.5 179.5 c 128,-1,17
 302 113 302 113 409 113 c 0,18,19
 501 113 501 113 590 167 c 1,20,-1
 648 56 l 1,21,22
 543 -10 543 -10 403 -10 c 0,23,0
 288 -10 288 -10 206 34.5 c 128,-1,1
EndSplineSet
EndChar

StartChar: Ccedilla
Encoding: 199 199 33
Width: 693
GlyphClass: 2
Flags: W
AnchorPoint: "Anchor-6" 380 730 basechar 0
AnchorPoint: "Anchor-4" 380 0 basechar 0
LayerCount: 2
Fore
SplineSet
648 56 m 1,0,1
 576 11 576 11 485 -4 c 1,2,3
 529 -51 529 -51 529 -102 c 0,4,5
 529 -157 529 -157 482.5 -187.5 c 128,-1,6
 436 -218 436 -218 350 -218 c 0,7,8
 285 -218 285 -218 231 -197 c 1,9,-1
 248 -96 l 1,10,11
 292 -115 292 -115 340 -115 c 0,12,13
 370 -115 370 -115 386 -106 c 128,-1,14
 402 -97 402 -97 402 -81 c 0,15,16
 402 -45 402 -45 330 -5 c 1,17,18
 190 15 190 15 113.5 111.5 c 128,-1,19
 37 208 37 208 37 365 c 0,20,21
 37 482 37 482 80.5 566.5 c 128,-1,22
 124 651 124 651 206 695.5 c 128,-1,23
 288 740 288 740 403 740 c 0,24,25
 543 740 543 740 648 674 c 1,26,-1
 590 563 l 1,27,28
 501 617 501 617 409 617 c 0,29,30
 302 617 302 617 241.5 550.5 c 128,-1,31
 181 484 181 484 181 365 c 256,32,33
 181 246 181 246 241.5 179.5 c 128,-1,34
 302 113 302 113 409 113 c 0,35,36
 501 113 501 113 590 167 c 1,37,-1
 648 56 l 1,0,1
EndSplineSet
EndChar

StartChar: D
Encoding: 68 68 36
Width: 689
GlyphClass: 2
Flags: W
AnchorPoint: "Anchor-6" 345 730 basechar 0
AnchorPoint: "Anchor-4" 345 0 basechar 0
LayerCount: 2
Fore
SplineSet
282 730 m 2,0,1
 472 730 472 730 562 641.5 c 128,-1,2
 652 553 652 553 652 365 c 256,3,4
 652 177 652 177 562 88.5 c 128,-1,5
 472 0 472 0 282 0 c 2,6,-1
 75 0 l 1,7,-1
 75 730 l 1,8,-1
 282 730 l 2,0,1
417.5 144.5 m 128,-1,10
 465 169 465 169 487 222 c 128,-1,11
 509 275 509 275 509 365 c 256,12,13
 509 455 509 455 487 508 c 128,-1,14
 465 561 465 561 417.5 585.5 c 128,-1,15
 370 610 370 610 291 610 c 2,16,-1
 215 610 l 1,17,-1
 215 120 l 1,18,-1
 291 120 l 2,19,9
 370 120 370 120 417.5 144.5 c 128,-1,10
EndSplineSet
EndChar

StartChar: Eth
Encoding: 208 208 38
Width: 746
GlyphClass: 2
Flags: W
AnchorPoint: "Anchor-6" 402 730 basechar 0
AnchorPoint: "Anchor-4" 402 0 basechar 0
LayerCount: 2
Fore
SplineSet
618.5 641.5 m 128,-1,1
 708 553 708 553 708 365 c 256,2,3
 708 177 708 177 618.5 88.5 c 128,-1,4
 529 0 529 0 338 0 c 2,5,-1
 132 0 l 1,6,-1
 132 312 l 1,7,-1
 25 312 l 1,8,-1
 25 418 l 1,9,-1
 132 418 l 1,10,-1
 132 730 l 1,11,-1
 338 730 l 2,12,0
 529 730 529 730 618.5 641.5 c 128,-1,1
474.5 144.5 m 128,-1,14
 522 169 522 169 543.5 222 c 128,-1,15
 565 275 565 275 565 365 c 256,16,17
 565 455 565 455 543.5 508 c 128,-1,18
 522 561 522 561 474.5 585.5 c 128,-1,19
 427 610 427 610 347 610 c 2,20,-1
 272 610 l 1,21,-1
 272 418 l 1,22,-1
 445 418 l 1,23,-1
 445 312 l 1,24,-1
 272 312 l 1,25,-1
 272 120 l 1,26,-1
 347 120 l 2,27,13
 427 120 427 120 474.5 144.5 c 128,-1,14
EndSplineSet
EndChar

StartChar: E
Encoding: 69 69 42
Width: 603
GlyphClass: 2
Flags: W
AnchorPoint: "Anchor-6" 310 730 basechar 0
AnchorPoint: "Anchor-5" 542 0 basechar 0
AnchorPoint: "Anchor-4" 310 0 basechar 0
LayerCount: 2
Fore
SplineSet
75 730 m 1,0,-1
 542 730 l 1,1,-1
 542 611 l 1,2,-1
 215 611 l 1,3,-1
 215 438 l 1,4,-1
 522 438 l 1,5,-1
 522 323 l 1,6,-1
 215 323 l 1,7,-1
 215 119 l 1,8,-1
 542 119 l 1,9,-1
 542 0 l 1,10,-1
 75 0 l 1,11,-1
 75 730 l 1,0,-1
EndSplineSet
EndChar

StartChar: uni1EBE
Encoding: 7870 7870 47
Width: 603
GlyphClass: 2
Flags: W
AnchorPoint: "Anchor-6" 310 730 basechar 0
AnchorPoint: "Anchor-5" 542 0 basechar 0
AnchorPoint: "Anchor-4" 310 0 basechar 0
LayerCount: 2
Fore
SplineSet
533 950 m 1,0,-1
 442 950 l 1,1,-1
 547 770 l 1,2,-1
 391 770 l 1,3,-1
 311 923 l 1,4,-1
 309 923 l 1,5,-1
 229 770 l 1,6,-1
 73 770 l 1,7,-1
 195 980 l 1,8,-1
 415 980 l 1,9,-1
 486 1160 l 1,10,-1
 656 1160 l 1,11,-1
 533 950 l 1,0,-1
75 0 m 1,12,-1
 75 730 l 1,13,-1
 542 730 l 1,14,-1
 542 611 l 1,15,-1
 215 611 l 1,16,-1
 215 438 l 1,17,-1
 522 438 l 1,18,-1
 522 323 l 1,19,-1
 215 323 l 1,20,-1
 215 119 l 1,21,-1
 542 119 l 1,22,-1
 542 0 l 1,23,-1
 75 0 l 1,12,-1
EndSplineSet
EndChar

StartChar: uni1EC0
Encoding: 7872 7872 49
Width: 603
GlyphClass: 2
Flags: W
AnchorPoint: "Anchor-6" 310 730 basechar 0
AnchorPoint: "Anchor-5" 542 0 basechar 0
AnchorPoint: "Anchor-4" 310 0 basechar 0
LayerCount: 2
Fore
SplineSet
229 770 m 1,0,-1
 73 770 l 1,1,-1
 178 950 l 1,2,-1
 87 950 l 1,3,-1
 -36 1160 l 1,4,-1
 134 1160 l 1,5,-1
 205 980 l 1,6,-1
 424 980 l 1,7,-1
 547 770 l 1,8,-1
 391 770 l 1,9,-1
 311 923 l 1,10,-1
 309 923 l 1,11,-1
 229 770 l 1,0,-1
75 0 m 1,12,-1
 75 730 l 1,13,-1
 542 730 l 1,14,-1
 542 611 l 1,15,-1
 215 611 l 1,16,-1
 215 438 l 1,17,-1
 522 438 l 1,18,-1
 522 323 l 1,19,-1
 215 323 l 1,20,-1
 215 119 l 1,21,-1
 542 119 l 1,22,-1
 542 0 l 1,23,-1
 75 0 l 1,12,-1
EndSplineSet
EndChar

StartChar: uni1EC2
Encoding: 7874 7874 50
Width: 603
GlyphClass: 2
Flags: W
AnchorPoint: "Anchor-6" 381 1148 basechar 0
AnchorPoint: "Anchor-5" 542 0 basechar 0
AnchorPoint: "Anchor-4" 310 0 basechar 0
LayerCount: 2
Fore
SplineSet
443 948 m 1,0,-1
 547 770 l 1,1,-1
 391 770 l 1,2,-1
 311 923 l 1,3,-1
 309 923 l 1,4,-1
 229 770 l 1,5,-1
 73 770 l 1,6,-1
 195 980 l 1,7,-1
 412 980 l 1,8,9
 416 1004 416 1004 416 1012 c 0,10,11
 416 1033 416 1033 403 1040 c 128,-1,12
 390 1047 390 1047 355 1047 c 0,13,14
 287 1047 287 1047 221 1027 c 1,15,-1
 209 1130 l 1,16,17
 287 1148 287 1148 381 1148 c 0,18,19
 449 1148 449 1148 485 1140.5 c 128,-1,20
 521 1133 521 1133 536.5 1114.5 c 128,-1,21
 552 1096 552 1096 552 1061 c 0,22,23
 552 1036 552 1036 546 1004.5 c 128,-1,24
 540 973 540 973 530 948 c 1,25,-1
 443 948 l 1,0,-1
75 0 m 1,26,-1
 75 730 l 1,27,-1
 542 730 l 1,28,-1
 542 611 l 1,29,-1
 215 611 l 1,30,-1
 215 438 l 1,31,-1
 522 438 l 1,32,-1
 522 323 l 1,33,-1
 215 323 l 1,34,-1
 215 119 l 1,35,-1
 542 119 l 1,36,-1
 542 0 l 1,37,-1
 75 0 l 1,26,-1
EndSplineSet
EndChar

StartChar: Eogonek
Encoding: 280 280 60
Width: 603
GlyphClass: 2
Flags: W
AnchorPoint: "Anchor-6" 310 730 basechar 0
AnchorPoint: "Anchor-5" 542 0 basechar 0
AnchorPoint: "Anchor-4" 310 0 basechar 0
LayerCount: 2
Fore
SplineSet
632 -197 m 1,0,1
 580 -218 580 -218 514 -218 c 0,2,3
 428 -218 428 -218 381.5 -187.5 c 128,-1,4
 335 -157 335 -157 335 -102 c 0,5,6
 335 -49 335 -49 381 0 c 1,7,-1
 75 0 l 1,8,-1
 75 730 l 1,9,-1
 542 730 l 1,10,-1
 542 611 l 1,11,-1
 215 611 l 1,12,-1
 215 438 l 1,13,-1
 522 438 l 1,14,-1
 522 323 l 1,15,-1
 215 323 l 1,16,-1
 215 119 l 1,17,-1
 542 119 l 1,18,-1
 542 0 l 1,19,20
 461 -44 461 -44 461 -81 c 0,21,22
 461 -98 461 -98 477 -106.5 c 128,-1,23
 493 -115 493 -115 524 -115 c 0,24,25
 570 -115 570 -115 616 -96 c 1,26,-1
 632 -197 l 1,0,1
EndSplineSet
EndChar

StartChar: F
Encoding: 70 70 62
Width: 593
Flags: W
LayerCount: 2
Fore
SplineSet
75 730 m 1,0,-1
 542 730 l 1,1,-1
 542 608 l 1,2,-1
 215 608 l 1,3,-1
 215 420 l 1,4,-1
 522 420 l 1,5,-1
 522 301 l 1,6,-1
 215 301 l 1,7,-1
 215 0 l 1,8,-1
 75 0 l 1,9,-1
 75 730 l 1,0,-1
EndSplineSet
EndChar

StartChar: G
Encoding: 71 71 63
Width: 771
GlyphClass: 2
Flags: W
AnchorPoint: "Anchor-6" 403 730 basechar 0
AnchorPoint: "Anchor-4" 403 0 basechar 0
LayerCount: 2
Fore
SplineSet
707 435 m 1,0,-1
 707 48 l 1,1,2
 652 20 652 20 580 5 c 128,-1,3
 508 -10 508 -10 432 -10 c 0,4,5
 309 -10 309 -10 220 34.5 c 128,-1,6
 131 79 131 79 84 163.5 c 128,-1,7
 37 248 37 248 37 365 c 256,8,9
 37 482 37 482 84 566.5 c 128,-1,10
 131 651 131 651 220 695.5 c 128,-1,11
 309 740 309 740 432 740 c 0,12,13
 581 740 581 740 682 676 c 1,14,-1
 627 569 l 1,15,16
 536 620 536 620 432 620 c 0,17,18
 310 620 310 620 245.5 554.5 c 128,-1,19
 181 489 181 489 181 365 c 256,20,21
 181 241 181 241 245.5 175.5 c 128,-1,22
 310 110 310 110 432 110 c 0,23,24
 504 110 504 110 567 132 c 1,25,-1
 567 317 l 1,26,-1
 366 317 l 1,27,-1
 366 435 l 1,28,-1
 707 435 l 1,0,-1
EndSplineSet
EndChar

StartChar: H
Encoding: 72 72 69
Width: 720
GlyphClass: 2
Flags: W
AnchorPoint: "Anchor-6" 360 730 basechar 0
AnchorPoint: "Anchor-4" 360 0 basechar 0
LayerCount: 2
Fore
SplineSet
505 730 m 1,0,-1
 645 730 l 1,1,-1
 645 0 l 1,2,-1
 505 0 l 1,3,-1
 505 322 l 1,4,-1
 215 322 l 1,5,-1
 215 0 l 1,6,-1
 75 0 l 1,7,-1
 75 730 l 1,8,-1
 215 730 l 1,9,-1
 215 445 l 1,10,-1
 505 445 l 1,11,-1
 505 730 l 1,0,-1
EndSplineSet
EndChar

StartChar: Hbar
Encoding: 294 294 70
Width: 805
GlyphClass: 2
Flags: W
AnchorPoint: "Anchor-6" 402 730 basechar 0
AnchorPoint: "Anchor-4" 402 0 basechar 0
LayerCount: 2
Fore
SplineSet
779 649 m 1,0,-1
 779 543 l 1,1,-1
 687 543 l 1,2,-1
 687 0 l 1,3,-1
 547 0 l 1,4,-1
 547 322 l 1,5,-1
 257 322 l 1,6,-1
 257 0 l 1,7,-1
 117 0 l 1,8,-1
 117 543 l 1,9,-1
 26 543 l 1,10,-1
 26 649 l 1,11,-1
 117 649 l 1,12,-1
 117 730 l 1,13,-1
 257 730 l 1,14,-1
 257 649 l 1,15,-1
 547 649 l 1,16,-1
 547 730 l 1,17,-1
 687 730 l 1,18,-1
 687 649 l 1,19,-1
 779 649 l 1,0,-1
547 445 m 1,20,-1
 547 543 l 1,21,-1
 257 543 l 1,22,-1
 257 445 l 1,23,-1
 547 445 l 1,20,-1
EndSplineSet
EndChar

StartChar: I
Encoding: 73 73 72
Width: 311
GlyphClass: 2
Flags: W
AnchorPoint: "Anchor-6" 156 730 basechar 0
AnchorPoint: "Anchor-5" 229 0 basechar 0
AnchorPoint: "Anchor-4" 156 0 basechar 0
LayerCount: 2
Fore
SplineSet
83 730 m 1,0,-1
 229 730 l 1,1,-1
 229 0 l 1,2,-1
 83 0 l 1,3,-1
 83 730 l 1,0,-1
EndSplineSet
EndChar

StartChar: Iogonek
Encoding: 302 302 84
Width: 311
GlyphClass: 2
Flags: W
AnchorPoint: "Anchor-6" 156 730 basechar 0
AnchorPoint: "Anchor-5" 229 0 basechar 0
AnchorPoint: "Anchor-4" 156 0 basechar 0
LayerCount: 2
Fore
SplineSet
319 -197 m 1,0,1
 267 -218 267 -218 201 -218 c 0,2,3
 115 -218 115 -218 68.5 -187.5 c 128,-1,4
 22 -157 22 -157 22 -102 c 0,5,6
 22 -41 22 -41 83 14 c 1,7,-1
 83 730 l 1,8,-1
 229 730 l 1,9,-1
 229 0 l 1,10,11
 148 -44 148 -44 148 -81 c 0,12,13
 148 -98 148 -98 164 -106.5 c 128,-1,14
 180 -115 180 -115 211 -115 c 0,15,16
 257 -115 257 -115 303 -96 c 1,17,-1
 319 -197 l 1,0,1
EndSplineSet
EndChar

StartChar: J
Encoding: 74 74 86
Width: 573
GlyphClass: 2
Flags: W
AnchorPoint: "Anchor-6" 287 730 basechar 0
AnchorPoint: "Anchor-4" 287 0 basechar 0
LayerCount: 2
Fore
SplineSet
115 3.5 m 128,-1,1
 56 17 56 17 6 43 c 1,2,-1
 47 162 l 1,3,4
 141 115 141 115 222 115 c 0,5,6
 293 115 293 115 327.5 155 c 128,-1,7
 362 195 362 195 362 280 c 2,8,-1
 362 730 l 1,9,-1
 505 730 l 1,10,-1
 505 280 l 2,11,12
 505 131 505 131 439.5 60.5 c 128,-1,13
 374 -10 374 -10 235 -10 c 0,14,0
 174 -10 174 -10 115 3.5 c 128,-1,1
EndSplineSet
EndChar

StartChar: K
Encoding: 75 75 88
Width: 673
GlyphClass: 2
Flags: W
AnchorPoint: "Anchor-6" 320 730 basechar 0
AnchorPoint: "Anchor-4" 320 0 basechar 0
LayerCount: 2
Fore
SplineSet
75 730 m 1,0,-1
 215 730 l 1,1,-1
 215 421 l 1,2,-1
 217 421 l 1,3,-1
 478 730 l 1,4,-1
 645 730 l 1,5,-1
 347 383 l 1,6,-1
 655 0 l 1,7,-1
 488 0 l 1,8,-1
 217 347 l 1,9,-1
 215 347 l 1,10,-1
 215 0 l 1,11,-1
 75 0 l 1,12,-1
 75 730 l 1,0,-1
EndSplineSet
EndChar

StartChar: L
Encoding: 76 76 90
Width: 588
GlyphClass: 2
Flags: W
AnchorPoint: "Anchor-7" 568 730 basechar 0
AnchorPoint: "Anchor-6" 294 730 basechar 0
AnchorPoint: "Anchor-4" 294 0 basechar 0
LayerCount: 2
Fore
SplineSet
75 730 m 1,0,-1
 219 730 l 1,1,-1
 219 123 l 1,2,-1
 555 123 l 1,3,-1
 555 0 l 1,4,-1
 75 0 l 1,5,-1
 75 730 l 1,0,-1
EndSplineSet
EndChar

StartChar: Lslash
Encoding: 321 321 97
Width: 680
GlyphClass: 2
Flags: W
AnchorPoint: "Anchor-7" 660 730 basechar 0
AnchorPoint: "Anchor-6" 386 730 basechar 0
AnchorPoint: "Anchor-4" 386 0 basechar 0
LayerCount: 2
Fore
SplineSet
311 123 m 1,0,-1
 647 123 l 1,1,-1
 647 0 l 1,2,-1
 167 0 l 1,3,-1
 167 276 l 1,4,-1
 51 228 l 1,5,-1
 8 328 l 1,6,-1
 167 393 l 1,7,-1
 167 730 l 1,8,-1
 311 730 l 1,9,-1
 311 453 l 1,10,-1
 431 502 l 1,11,-1
 474 402 l 1,12,-1
 311 335 l 1,13,-1
 311 123 l 1,0,-1
EndSplineSet
EndChar

StartChar: M
Encoding: 77 77 98
Width: 877
Flags: W
LayerCount: 2
Fore
SplineSet
75 730 m 1,0,-1
 251 730 l 1,1,-1
 437 302 l 1,2,-1
 439 302 l 1,3,-1
 626 730 l 1,4,-1
 802 730 l 1,5,-1
 802 0 l 1,6,-1
 662 0 l 1,7,-1
 662 510 l 1,8,-1
 660 510 l 1,9,-1
 503 155 l 1,10,-1
 374 155 l 1,11,-1
 217 510 l 1,12,-1
 215 510 l 1,13,-1
 215 0 l 1,14,-1
 75 0 l 1,15,-1
 75 730 l 1,0,-1
EndSplineSet
EndChar

StartChar: N
Encoding: 78 78 99
Width: 730
GlyphClass: 2
Flags: W
AnchorPoint: "Anchor-6" 365 730 basechar 0
AnchorPoint: "Anchor-4" 365 0 basechar 0
LayerCount: 2
Fore
SplineSet
75 730 m 1,0,-1
 222 730 l 1,1,-1
 513 230 l 1,2,-1
 515 230 l 1,3,-1
 515 730 l 1,4,-1
 655 730 l 1,5,-1
 655 0 l 1,6,-1
 508 0 l 1,7,-1
 217 500 l 1,8,-1
 215 500 l 1,9,-1
 215 0 l 1,10,-1
 75 0 l 1,11,-1
 75 730 l 1,0,-1
EndSplineSet
EndChar

StartChar: Eng
Encoding: 330 330 104
Width: 730
GlyphClass: 2
Flags: W
AnchorPoint: "Anchor-6" 365 730 basechar 0
AnchorPoint: "Anchor-4" 365 0 basechar 0
LayerCount: 2
Fore
SplineSet
655 730 m 1,0,-1
 655 -14 l 2,1,2
 655 -127 655 -127 611.5 -175.5 c 128,-1,3
 568 -224 568 -224 467 -224 c 0,4,5
 409 -224 409 -224 342 -208 c 1,6,-1
 360 -96 l 1,7,8
 401 -107 401 -107 438 -107 c 0,9,10
 481 -107 481 -107 498.5 -86 c 128,-1,11
 516 -65 516 -65 516 -14 c 2,12,-1
 516 -13 l 1,13,-1
 217 487 l 1,14,-1
 215 487 l 1,15,-1
 215 0 l 1,16,-1
 75 0 l 1,17,-1
 75 730 l 1,18,-1
 222 730 l 1,19,-1
 513 243 l 1,20,-1
 515 243 l 1,21,-1
 515 730 l 1,22,-1
 655 730 l 1,0,-1
EndSplineSet
EndChar

StartChar: O
Encoding: 79 79 107
Width: 809
GlyphClass: 2
Flags: W
AnchorPoint: "Anchor-7" 597 690 basechar 0
AnchorPoint: "Anchor-6" 404 730 basechar 0
AnchorPoint: "Anchor-5" 469 0 basechar 0
AnchorPoint: "Anchor-4" 404 0 basechar 0
LayerCount: 2
Fore
SplineSet
208.5 35.5 m 128,-1,1
 126 81 126 81 81.5 165.5 c 128,-1,2
 37 250 37 250 37 365 c 256,3,4
 37 480 37 480 81.5 564.5 c 128,-1,5
 126 649 126 649 208.5 694.5 c 128,-1,6
 291 740 291 740 404 740 c 256,7,8
 517 740 517 740 600 694.5 c 128,-1,9
 683 649 683 649 727 564.5 c 128,-1,10
 771 480 771 480 771 365 c 256,11,12
 771 250 771 250 727 165.5 c 128,-1,13
 683 81 683 81 600 35.5 c 128,-1,14
 517 -10 517 -10 404 -10 c 256,15,0
 291 -10 291 -10 208.5 35.5 c 128,-1,1
569.5 179 m 128,-1,17
 628 245 628 245 628 365 c 256,18,19
 628 485 628 485 569.5 551 c 128,-1,20
 511 617 511 617 404 617 c 0,21,22
 298 617 298 617 239.5 551 c 128,-1,23
 181 485 181 485 181 365 c 256,24,25
 181 245 181 245 239.5 179 c 128,-1,26
 298 113 298 113 404 113 c 0,27,16
 511 113 511 113 569.5 179 c 128,-1,17
EndSplineSet
Substitution2: "Single Substitution lookup 21 subtable" ordmasculine
Substitution2: "'aalt' Access All Alternates in Latin lookup 0 subtable" ordmasculine
EndChar

StartChar: uni1ED0
Encoding: 7888 7888 111
Width: 809
GlyphClass: 2
Flags: W
AnchorPoint: "Anchor-7" 597 690 basechar 0
AnchorPoint: "Anchor-6" 404 730 basechar 0
AnchorPoint: "Anchor-5" 469 0 basechar 0
AnchorPoint: "Anchor-4" 404 0 basechar 0
LayerCount: 2
Fore
SplineSet
403 923 m 1,0,-1
 323 770 l 1,1,-1
 167 770 l 1,2,-1
 289 980 l 1,3,-1
 509 980 l 1,4,-1
 580 1160 l 1,5,-1
 750 1160 l 1,6,-1
 627 950 l 1,7,-1
 536 950 l 1,8,-1
 641 770 l 1,9,-1
 485 770 l 1,10,-1
 405 923 l 1,11,-1
 403 923 l 1,0,-1
600 694.5 m 128,-1,13
 683 649 683 649 727 564.5 c 128,-1,14
 771 480 771 480 771 365 c 256,15,16
 771 250 771 250 727 165.5 c 128,-1,17
 683 81 683 81 600 35.5 c 128,-1,18
 517 -10 517 -10 404 -10 c 256,19,20
 291 -10 291 -10 208.5 35.5 c 128,-1,21
 126 81 126 81 81.5 165.5 c 128,-1,22
 37 250 37 250 37 365 c 256,23,24
 37 480 37 480 81.5 564.5 c 128,-1,25
 126 649 126 649 208.5 694.5 c 128,-1,26
 291 740 291 740 404 740 c 256,27,12
 517 740 517 740 600 694.5 c 128,-1,13
569.5 179 m 128,-1,29
 628 245 628 245 628 365 c 256,30,31
 628 485 628 485 569.5 551 c 128,-1,32
 511 617 511 617 404 617 c 0,33,34
 298 617 298 617 239.5 551 c 128,-1,35
 181 485 181 485 181 365 c 256,36,37
 181 245 181 245 239.5 179 c 128,-1,38
 298 113 298 113 404 113 c 0,39,28
 511 113 511 113 569.5 179 c 128,-1,29
EndSplineSet
EndChar

StartChar: uni1ED2
Encoding: 7890 7890 113
Width: 809
GlyphClass: 2
Flags: W
AnchorPoint: "Anchor-7" 597 690 basechar 0
AnchorPoint: "Anchor-6" 404 730 basechar 0
AnchorPoint: "Anchor-5" 469 0 basechar 0
AnchorPoint: "Anchor-4" 404 0 basechar 0
LayerCount: 2
Fore
SplineSet
272 950 m 1,0,-1
 182 950 l 1,1,-1
 59 1160 l 1,2,-1
 229 1160 l 1,3,-1
 300 980 l 1,4,-1
 518 980 l 1,5,-1
 641 770 l 1,6,-1
 485 770 l 1,7,-1
 405 923 l 1,8,-1
 403 923 l 1,9,-1
 323 770 l 1,10,-1
 167 770 l 1,11,-1
 272 950 l 1,0,-1
600 694.5 m 128,-1,13
 683 649 683 649 727 564.5 c 128,-1,14
 771 480 771 480 771 365 c 256,15,16
 771 250 771 250 727 165.5 c 128,-1,17
 683 81 683 81 600 35.5 c 128,-1,18
 517 -10 517 -10 404 -10 c 256,19,20
 291 -10 291 -10 208.5 35.5 c 128,-1,21
 126 81 126 81 81.5 165.5 c 128,-1,22
 37 250 37 250 37 365 c 256,23,24
 37 480 37 480 81.5 564.5 c 128,-1,25
 126 649 126 649 208.5 694.5 c 128,-1,26
 291 740 291 740 404 740 c 256,27,12
 517 740 517 740 600 694.5 c 128,-1,13
569.5 179 m 128,-1,29
 628 245 628 245 628 365 c 256,30,31
 628 485 628 485 569.5 551 c 128,-1,32
 511 617 511 617 404 617 c 0,33,34
 298 617 298 617 239.5 551 c 128,-1,35
 181 485 181 485 181 365 c 256,36,37
 181 245 181 245 239.5 179 c 128,-1,38
 298 113 298 113 404 113 c 0,39,28
 511 113 511 113 569.5 179 c 128,-1,29
EndSplineSet
EndChar

StartChar: uni1ED4
Encoding: 7892 7892 114
Width: 809
GlyphClass: 2
Flags: W
AnchorPoint: "Anchor-7" 597 690 basechar 0
AnchorPoint: "Anchor-6" 475 1148 basechar 0
AnchorPoint: "Anchor-5" 469 0 basechar 0
AnchorPoint: "Anchor-4" 404 0 basechar 0
LayerCount: 2
Fore
SplineSet
323 770 m 1,0,-1
 167 770 l 1,1,-1
 289 980 l 1,2,-1
 506 980 l 1,3,4
 510 1004 510 1004 510 1012 c 0,5,6
 510 1033 510 1033 497 1040 c 128,-1,7
 484 1047 484 1047 449 1047 c 0,8,9
 381 1047 381 1047 315 1027 c 1,10,-1
 303 1130 l 1,11,12
 381 1148 381 1148 475 1148 c 0,13,14
 543 1148 543 1148 579 1140.5 c 128,-1,15
 615 1133 615 1133 630.5 1114.5 c 128,-1,16
 646 1096 646 1096 646 1061 c 0,17,18
 646 1036 646 1036 640 1004.5 c 128,-1,19
 634 973 634 973 624 948 c 1,20,-1
 537 948 l 1,21,-1
 641 770 l 1,22,-1
 485 770 l 1,23,-1
 405 923 l 1,24,-1
 403 923 l 1,25,-1
 323 770 l 1,0,-1
600 694.5 m 128,-1,27
 683 649 683 649 727 564.5 c 128,-1,28
 771 480 771 480 771 365 c 256,29,30
 771 250 771 250 727 165.5 c 128,-1,31
 683 81 683 81 600 35.5 c 128,-1,32
 517 -10 517 -10 404 -10 c 256,33,34
 291 -10 291 -10 208.5 35.5 c 128,-1,35
 126 81 126 81 81.5 165.5 c 128,-1,36
 37 250 37 250 37 365 c 256,37,38
 37 480 37 480 81.5 564.5 c 128,-1,39
 126 649 126 649 208.5 694.5 c 128,-1,40
 291 740 291 740 404 740 c 256,41,26
 517 740 517 740 600 694.5 c 128,-1,27
569.5 179 m 128,-1,43
 628 245 628 245 628 365 c 256,44,45
 628 485 628 485 569.5 551 c 128,-1,46
 511 617 511 617 404 617 c 0,47,48
 298 617 298 617 239.5 551 c 128,-1,49
 181 485 181 485 181 365 c 256,50,51
 181 245 181 245 239.5 179 c 128,-1,52
 298 113 298 113 404 113 c 0,53,42
 511 113 511 113 569.5 179 c 128,-1,43
EndSplineSet
EndChar

StartChar: Ohorn
Encoding: 416 416 123
Width: 832
GlyphClass: 2
Flags: W
AnchorPoint: "Anchor-7" 842 838 basechar 0
AnchorPoint: "Anchor-6" 404 730 basechar 0
AnchorPoint: "Anchor-5" 469 0 basechar 0
AnchorPoint: "Anchor-4" 404 0 basechar 0
LayerCount: 2
Fore
SplineSet
803 609.5 m 128,-1,1
 777 570 777 570 730 559 c 1,2,3
 771 477 771 477 771 365 c 0,4,5
 771 250 771 250 727 165.5 c 128,-1,6
 683 81 683 81 600 35.5 c 128,-1,7
 517 -10 517 -10 404 -10 c 256,8,9
 291 -10 291 -10 208.5 35.5 c 128,-1,10
 126 81 126 81 81.5 165.5 c 128,-1,11
 37 250 37 250 37 365 c 256,12,13
 37 480 37 480 81.5 564.5 c 128,-1,14
 126 649 126 649 208.5 694.5 c 128,-1,15
 291 740 291 740 404 740 c 0,16,17
 552 740 552 740 645 665 c 1,18,19
 668 665 668 665 681.5 681.5 c 128,-1,20
 695 698 695 698 695 727 c 0,21,22
 695 750 695 750 688.5 783.5 c 128,-1,23
 682 817 682 817 673 838 c 1,24,-1
 808 838 l 1,25,26
 829 778 829 778 829 712 c 0,27,0
 829 649 829 649 803 609.5 c 128,-1,1
569.5 179 m 128,-1,29
 628 245 628 245 628 365 c 256,30,31
 628 485 628 485 569.5 551 c 128,-1,32
 511 617 511 617 404 617 c 0,33,34
 298 617 298 617 239.5 551 c 128,-1,35
 181 485 181 485 181 365 c 256,36,37
 181 245 181 245 239.5 179 c 128,-1,38
 298 113 298 113 404 113 c 0,39,28
 511 113 511 113 569.5 179 c 128,-1,29
EndSplineSet
EndChar

StartChar: uni01EA
Encoding: 490 490 132
Width: 809
GlyphClass: 2
Flags: W
AnchorPoint: "Anchor-7" 597 690 basechar 0
AnchorPoint: "Anchor-6" 404 730 basechar 0
AnchorPoint: "Anchor-5" 469 0 basechar 0
AnchorPoint: "Anchor-4" 404 0 basechar 0
LayerCount: 2
Fore
SplineSet
388 -81 m 0,1,2
 388 -98 388 -98 404 -106.5 c 128,-1,3
 420 -115 420 -115 451 -115 c 0,4,5
 497 -115 497 -115 543 -96 c 1,6,-1
 559 -197 l 1,7,8
 507 -218 507 -218 441 -218 c 0,9,10
 355 -218 355 -218 308.5 -187.5 c 128,-1,11
 262 -157 262 -157 262 -102 c 0,12,13
 262 -48 262 -48 308 -1 c 1,14,15
 180 26 180 26 108.5 122 c 128,-1,16
 37 218 37 218 37 365 c 0,17,18
 37 480 37 480 81.5 564.5 c 128,-1,19
 126 649 126 649 208.5 694.5 c 128,-1,20
 291 740 291 740 404 740 c 256,21,22
 517 740 517 740 600 694.5 c 128,-1,23
 683 649 683 649 727 564.5 c 128,-1,24
 771 480 771 480 771 365 c 0,25,26
 771 205 771 205 687.5 106.5 c 128,-1,27
 604 8 604 8 456 -7 c 1,28,0
 388 -47 388 -47 388 -81 c 0,1,2
239.5 179 m 128,-1,30
 298 113 298 113 404 113 c 0,31,32
 511 113 511 113 569.5 179 c 128,-1,33
 628 245 628 245 628 365 c 256,34,35
 628 485 628 485 569.5 551 c 128,-1,36
 511 617 511 617 404 617 c 0,37,38
 298 617 298 617 239.5 551 c 128,-1,39
 181 485 181 485 181 365 c 256,40,29
 181 245 181 245 239.5 179 c 128,-1,30
EndSplineSet
EndChar

StartChar: Oslash
Encoding: 216 216 133
Width: 809
GlyphClass: 2
Flags: W
AnchorPoint: "Anchor-7" 597 690 basechar 0
AnchorPoint: "Anchor-6" 404 730 basechar 0
AnchorPoint: "Anchor-5" 469 0 basechar 0
AnchorPoint: "Anchor-4" 404 0 basechar 0
LayerCount: 2
Fore
SplineSet
746.5 519 m 128,-1,1
 771 450 771 450 771 365 c 0,2,3
 771 250 771 250 727 165.5 c 128,-1,4
 683 81 683 81 600 35.5 c 128,-1,5
 517 -10 517 -10 404 -10 c 0,6,7
 299 -10 299 -10 222 29 c 1,8,-1
 168 -43 l 1,9,-1
 80 23 l 1,10,-1
 133 93 l 1,11,12
 86 142 86 142 61.5 211 c 128,-1,13
 37 280 37 280 37 365 c 0,14,15
 37 480 37 480 81.5 564.5 c 128,-1,16
 126 649 126 649 208.5 694.5 c 128,-1,17
 291 740 291 740 404 740 c 0,18,19
 508 740 508 740 587 702 c 1,20,-1
 640 773 l 1,21,-1
 728 707 l 1,22,-1
 676 637 l 1,23,0
 722 588 722 588 746.5 519 c 128,-1,1
218 208 m 1,25,-1
 508 596 l 1,26,27
 463 617 463 617 404 617 c 0,28,29
 298 617 298 617 239.5 551 c 128,-1,30
 181 485 181 485 181 365 c 0,31,24
 181 271 181 271 218 208 c 1,25,-1
569.5 179 m 128,-1,33
 628 245 628 245 628 365 c 0,34,35
 628 461 628 461 590 523 c 1,36,-1
 300 134 l 1,37,38
 345 113 345 113 404 113 c 0,39,32
 511 113 511 113 569.5 179 c 128,-1,33
EndSplineSet
EndChar

StartChar: OE
Encoding: 338 338 137
Width: 1030
GlyphClass: 2
Flags: W
AnchorPoint: "Anchor-6" 738 730 basechar 0
AnchorPoint: "Anchor-5" 969 0 basechar 0
AnchorPoint: "Anchor-4" 738 0 basechar 0
LayerCount: 2
Fore
SplineSet
643 611 m 1,0,-1
 643 438 l 1,1,-1
 949 438 l 1,2,-1
 949 323 l 1,3,-1
 643 323 l 1,4,-1
 643 119 l 1,5,-1
 969 119 l 1,6,-1
 969 0 l 1,7,-1
 503 0 l 1,8,-1
 503 1 l 1,9,10
 456 -10 456 -10 404 -10 c 0,11,12
 291 -10 291 -10 208.5 35.5 c 128,-1,13
 126 81 126 81 81.5 165.5 c 128,-1,14
 37 250 37 250 37 365 c 256,15,16
 37 480 37 480 81.5 564.5 c 128,-1,17
 126 649 126 649 208.5 694.5 c 128,-1,18
 291 740 291 740 404 740 c 0,19,20
 456 740 456 740 503 729 c 1,21,-1
 503 730 l 1,22,-1
 969 730 l 1,23,-1
 969 611 l 1,24,-1
 643 611 l 1,0,-1
503 134 m 1,26,-1
 503 596 l 1,27,28
 461 617 461 617 404 617 c 0,29,30
 298 617 298 617 239.5 551 c 128,-1,31
 181 485 181 485 181 365 c 256,32,33
 181 245 181 245 239.5 179 c 128,-1,34
 298 113 298 113 404 113 c 0,35,25
 461 113 461 113 503 134 c 1,26,-1
EndSplineSet
EndChar

StartChar: P
Encoding: 80 80 138
Width: 629
Flags: W
LayerCount: 2
Fore
SplineSet
522.5 671 m 128,-1,1
 602 612 602 612 602 490 c 0,2,3
 602 370 602 370 527.5 309.5 c 128,-1,4
 453 249 453 249 305 249 c 2,5,-1
 215 249 l 1,6,-1
 215 0 l 1,7,-1
 75 0 l 1,8,-1
 75 730 l 1,9,-1
 278 730 l 2,10,0
 443 730 443 730 522.5 671 c 128,-1,1
417.5 397 m 128,-1,12
 459 426 459 426 459 489 c 256,13,14
 459 552 459 552 417.5 581 c 128,-1,15
 376 610 376 610 285 610 c 2,16,-1
 215 610 l 1,17,-1
 215 368 l 1,18,-1
 285 368 l 2,19,11
 376 368 376 368 417.5 397 c 128,-1,12
EndSplineSet
EndChar

StartChar: Thorn
Encoding: 222 222 139
Width: 629
Flags: W
LayerCount: 2
Fore
SplineSet
522.5 556 m 128,-1,1
 602 497 602 497 602 375 c 0,2,3
 602 135 602 135 305 135 c 2,4,-1
 215 135 l 1,5,-1
 215 0 l 1,6,-1
 75 0 l 1,7,-1
 75 730 l 1,8,-1
 215 730 l 1,9,-1
 215 615 l 1,10,-1
 278 615 l 2,11,0
 443 615 443 615 522.5 556 c 128,-1,1
417 282.5 m 128,-1,13
 459 312 459 312 459 374 c 0,14,15
 459 437 459 437 417.5 466 c 128,-1,16
 376 495 376 495 285 495 c 2,17,-1
 215 495 l 1,18,-1
 215 253 l 1,19,-1
 285 253 l 2,20,12
 375 253 375 253 417 282.5 c 128,-1,13
EndSplineSet
EndChar

StartChar: Q
Encoding: 81 81 140
Width: 812
Flags: W
LayerCount: 2
Fore
SplineSet
786 -61 m 1,1,-1
 674 -139 l 1,2,3
 626 -73 626 -73 560 -41.5 c 128,-1,4
 494 -10 494 -10 404 -10 c 0,5,6
 291 -10 291 -10 208.5 35.5 c 128,-1,7
 126 81 126 81 81.5 165.5 c 128,-1,8
 37 250 37 250 37 365 c 256,9,10
 37 480 37 480 81.5 564.5 c 128,-1,11
 126 649 126 649 208.5 694.5 c 128,-1,12
 291 740 291 740 404 740 c 256,13,14
 517 740 517 740 600 694.5 c 128,-1,15
 683 649 683 649 727 564.5 c 128,-1,16
 771 480 771 480 771 365 c 0,17,18
 772 259 772 259 731.5 179 c 128,-1,19
 691 99 691 99 615 53 c 1,20,0
 721 13 721 13 786 -61 c 1,1,-1
239.5 179 m 128,-1,22
 298 113 298 113 404 113 c 0,23,24
 511 113 511 113 569.5 179 c 128,-1,25
 628 245 628 245 628 365 c 256,26,27
 628 485 628 485 569.5 551 c 128,-1,28
 511 617 511 617 404 617 c 0,29,30
 298 617 298 617 239.5 551 c 128,-1,31
 181 485 181 485 181 365 c 256,32,21
 181 245 181 245 239.5 179 c 128,-1,22
EndSplineSet
EndChar

StartChar: R
Encoding: 82 82 141
Width: 658
GlyphClass: 2
Flags: W
AnchorPoint: "Anchor-6" 317 730 basechar 0
AnchorPoint: "Anchor-4" 317 0 basechar 0
LayerCount: 2
Fore
SplineSet
216 286 m 1,0,-1
 215 286 l 1,1,-1
 215 0 l 1,2,-1
 75 0 l 1,3,-1
 75 730 l 1,4,-1
 285 730 l 2,5,6
 447 730 447 730 524.5 676.5 c 128,-1,7
 602 623 602 623 602 510 c 0,8,9
 602 313 602 313 376 289 c 1,10,-1
 628 0 l 1,11,-1
 464 0 l 1,12,-1
 216 286 l 1,0,-1
215 610 m 1,13,-1
 215 399 l 1,14,-1
 292 399 l 2,15,16
 379 399 379 399 419 424 c 128,-1,17
 459 449 459 449 459 504 c 256,18,19
 459 559 459 559 419 584.5 c 128,-1,20
 379 610 379 610 292 610 c 2,21,-1
 215 610 l 1,13,-1
EndSplineSet
EndChar

StartChar: S
Encoding: 83 83 147
Width: 623
GlyphClass: 2
Flags: W
AnchorPoint: "Anchor-6" 310 730 basechar 0
AnchorPoint: "Anchor-4" 310 0 basechar 0
LayerCount: 2
Fore
SplineSet
160 6 m 128,-1,1
 95 22 95 22 48 52 c 1,2,-1
 93 167 l 1,3,4
 140 141 140 141 194.5 126.5 c 128,-1,5
 249 112 249 112 300 112 c 0,6,7
 362 112 362 112 396 135 c 128,-1,8
 430 158 430 158 430 201 c 0,9,10
 430 229 430 229 415.5 247 c 128,-1,11
 401 265 401 265 375 277 c 128,-1,12
 349 289 349 289 303 304 c 0,13,14
 215 333 215 333 161 363.5 c 128,-1,15
 107 394 107 394 79 435.5 c 128,-1,16
 51 477 51 477 51 537 c 0,17,18
 51 635 51 635 120.5 687.5 c 128,-1,19
 190 740 190 740 320 740 c 0,20,21
 384 740 384 740 448.5 726.5 c 128,-1,22
 513 713 513 713 558 691 c 1,23,-1
 513 576 l 1,24,25
 473 596 473 596 423.5 607 c 128,-1,26
 374 618 374 618 327 618 c 0,27,28
 264 618 264 618 230.5 597.5 c 128,-1,29
 197 577 197 577 197 537 c 0,30,31
 197 499 197 499 227.5 478 c 128,-1,32
 258 457 258 457 325 437 c 0,33,34
 413 406 413 406 466.5 375.5 c 128,-1,35
 520 345 520 345 548 303 c 128,-1,36
 576 261 576 261 576 201 c 0,37,38
 576 100 576 100 504 45 c 128,-1,39
 432 -10 432 -10 300 -10 c 0,40,0
 225 -10 225 -10 160 6 c 128,-1,1
EndSplineSet
EndChar

StartChar: Scedilla
Encoding: 350 350 150
Width: 623
GlyphClass: 2
Flags: W
AnchorPoint: "Anchor-6" 310 730 basechar 0
AnchorPoint: "Anchor-4" 310 0 basechar 0
LayerCount: 2
Fore
SplineSet
534 74 m 128,-1,1
 492 23 492 23 413 3 c 1,2,3
 462 -47 462 -47 462 -102 c 256,4,5
 462 -157 462 -157 415.5 -187.5 c 128,-1,6
 369 -218 369 -218 283 -218 c 0,7,8
 218 -218 218 -218 165 -197 c 1,9,-1
 181 -96 l 1,10,11
 227 -115 227 -115 273 -115 c 0,12,13
 304 -115 304 -115 320 -106.5 c 128,-1,14
 336 -98 336 -98 336 -81 c 0,15,16
 336 -48 336 -48 272 -9 c 1,17,18
 206 -7 206 -7 148 8.5 c 128,-1,19
 90 24 90 24 48 52 c 1,20,-1
 93 167 l 1,21,22
 140 141 140 141 194.5 126.5 c 128,-1,23
 249 112 249 112 300 112 c 0,24,25
 362 112 362 112 396 135 c 128,-1,26
 430 158 430 158 430 201 c 0,27,28
 430 229 430 229 415.5 247 c 128,-1,29
 401 265 401 265 375 277 c 128,-1,30
 349 289 349 289 303 304 c 0,31,32
 215 333 215 333 161 363.5 c 128,-1,33
 107 394 107 394 79 435.5 c 128,-1,34
 51 477 51 477 51 537 c 0,35,36
 51 635 51 635 120.5 687.5 c 128,-1,37
 190 740 190 740 320 740 c 0,38,39
 384 740 384 740 448.5 726.5 c 128,-1,40
 513 713 513 713 558 691 c 1,41,-1
 513 576 l 1,42,43
 473 596 473 596 423.5 607 c 128,-1,44
 374 618 374 618 327 618 c 0,45,46
 264 618 264 618 230.5 597.5 c 128,-1,47
 197 577 197 577 197 537 c 0,48,49
 197 499 197 499 227.5 478 c 128,-1,50
 258 457 258 457 325 437 c 0,51,52
 413 406 413 406 466.5 375.5 c 128,-1,53
 520 345 520 345 548 303 c 128,-1,54
 576 261 576 261 576 201 c 0,55,0
 576 125 576 125 534 74 c 128,-1,1
EndSplineSet
Substitution2: "'locl' Localized Forms in Latin lookup 4 subtable" uni0218
Substitution2: "'aalt' Access All Alternates in Latin lookup 0 subtable" uni0218
EndChar

StartChar: uni1E9E
Encoding: 7838 7838 153
Width: 693
Flags: W
LayerCount: 2
Fore
SplineSet
290 12 m 1,1,-1
 309 132 l 1,2,3
 363 113 363 113 406 113 c 0,4,5
 464 113 464 113 494.5 136 c 128,-1,6
 525 159 525 159 525 203 c 0,7,8
 525 251 525 251 487 272 c 128,-1,9
 449 293 449 293 363 293 c 2,10,-1
 357 293 l 1,11,-1
 357 400 l 1,12,-1
 460 541 l 1,13,14
 458 579 458 579 429 598 c 128,-1,15
 400 617 400 617 341 617 c 0,16,17
 273 617 273 617 244 590.5 c 128,-1,18
 215 564 215 564 215 502 c 2,19,-1
 215 0 l 1,20,-1
 75 0 l 1,21,-1
 75 502 l 2,22,23
 75 740 75 740 341 740 c 0,24,25
 600 740 600 740 600 522 c 1,26,-1
 499 389 l 1,27,-1
 499 387 l 1,28,29
 582 377 582 377 625 329.5 c 128,-1,30
 668 282 668 282 668 200 c 0,31,32
 668 99 668 99 605.5 44.5 c 128,-1,33
 543 -10 543 -10 426 -10 c 0,34,0
 358 -10 358 -10 290 12 c 1,1,-1
EndSplineSet
EndChar

StartChar: uni018F
Encoding: 399 399 154
Width: 759
Flags: W
LayerCount: 2
Fore
SplineSet
620.5 643 m 128,-1,1
 722 546 722 546 722 365 c 0,2,3
 722 248 722 248 680.5 163.5 c 128,-1,4
 639 79 639 79 560.5 34.5 c 128,-1,5
 482 -10 482 -10 374 -10 c 0,6,7
 268 -10 268 -10 192 33.5 c 128,-1,8
 116 77 116 77 75.5 159 c 128,-1,9
 35 241 35 241 35 356 c 0,10,11
 35 401 35 401 39 425 c 1,12,-1
 582 425 l 1,13,14
 577 523 577 523 517.5 570 c 128,-1,15
 458 617 458 617 338 617 c 0,16,17
 217 617 217 617 106 574 c 1,18,-1
 80 692 l 1,19,20
 130 715 130 715 196 727.5 c 128,-1,21
 262 740 262 740 329 740 c 0,22,0
 519 740 519 740 620.5 643 c 128,-1,1
580 306 m 1,24,-1
 177 306 l 1,25,26
 195 113 195 113 379 113 c 0,27,23
 562 113 562 113 580 306 c 1,24,-1
EndSplineSet
EndChar

StartChar: T
Encoding: 84 84 155
Width: 640
GlyphClass: 2
Flags: W
AnchorPoint: "Anchor-8" 248 0 basechar 0
AnchorPoint: "Anchor-6" 320 730 basechar 0
AnchorPoint: "Anchor-4" 320 0 basechar 0
LayerCount: 2
Fore
SplineSet
248 607 m 1,0,-1
 27 607 l 1,1,-1
 27 730 l 1,2,-1
 612 730 l 1,3,-1
 612 607 l 1,4,-1
 392 607 l 1,5,-1
 392 0 l 1,6,-1
 248 0 l 1,7,-1
 248 607 l 1,0,-1
EndSplineSet
EndChar

StartChar: Tbar
Encoding: 358 358 156
Width: 694
GlyphClass: 2
Flags: W
AnchorPoint: "Anchor-8" 275 0 basechar 0
AnchorPoint: "Anchor-6" 348 730 basechar 0
AnchorPoint: "Anchor-4" 348 0 basechar 0
LayerCount: 2
Fore
SplineSet
640 607 m 1,0,-1
 419 607 l 1,1,-1
 419 368 l 1,2,-1
 584 368 l 1,3,-1
 584 262 l 1,4,-1
 419 262 l 1,5,-1
 419 0 l 1,6,-1
 275 0 l 1,7,-1
 275 262 l 1,8,-1
 111 262 l 1,9,-1
 111 368 l 1,10,-1
 275 368 l 1,11,-1
 275 607 l 1,12,-1
 55 607 l 1,13,-1
 55 730 l 1,14,-1
 640 730 l 1,15,-1
 640 607 l 1,0,-1
EndSplineSet
EndChar

StartChar: uni0162
Encoding: 354 354 158
Width: 640
GlyphClass: 2
Flags: W
AnchorPoint: "Anchor-8" 248 0 basechar 0
AnchorPoint: "Anchor-6" 320 730 basechar 0
AnchorPoint: "Anchor-4" 320 0 basechar 0
LayerCount: 2
Fore
SplineSet
392 607 m 1,0,-1
 392 16 l 1,1,2
 455 -41 455 -41 455 -102 c 0,3,4
 455 -157 455 -157 408.5 -187.5 c 128,-1,5
 362 -218 362 -218 276 -218 c 0,6,7
 210 -218 210 -218 158 -197 c 1,8,-1
 174 -96 l 1,9,10
 220 -115 220 -115 266 -115 c 0,11,12
 296 -115 296 -115 312 -106 c 128,-1,13
 328 -97 328 -97 328 -81 c 0,14,15
 328 -43 328 -43 248 0 c 1,16,-1
 248 607 l 1,17,-1
 27 607 l 1,18,-1
 27 730 l 1,19,-1
 612 730 l 1,20,-1
 612 607 l 1,21,-1
 392 607 l 1,0,-1
EndSplineSet
Substitution2: "'locl' Localized Forms in Latin lookup 4 subtable" uni021A
Substitution2: "'aalt' Access All Alternates in Latin lookup 0 subtable" uni021A
EndChar

StartChar: U
Encoding: 85 85 160
Width: 709
GlyphClass: 2
Flags: W
AnchorPoint: "Anchor-7" 621 690 basechar 0
AnchorPoint: "Anchor-6" 354 730 basechar 0
AnchorPoint: "Anchor-5" 483 10 basechar 0
AnchorPoint: "Anchor-4" 354 0 basechar 0
LayerCount: 2
Fore
SplineSet
141 61.5 m 128,-1,1
 68 133 68 133 68 270 c 2,2,-1
 68 730 l 1,3,-1
 208 730 l 1,4,-1
 208 287 l 2,5,6
 208 195 208 195 242.5 154 c 128,-1,7
 277 113 277 113 354 113 c 0,8,9
 432 113 432 113 466.5 154 c 128,-1,10
 501 195 501 195 501 287 c 2,11,-1
 501 730 l 1,12,-1
 641 730 l 1,13,-1
 641 270 l 2,14,15
 641 133 641 133 567.5 61.5 c 128,-1,16
 494 -10 494 -10 354 -10 c 256,17,0
 214 -10 214 -10 141 61.5 c 128,-1,1
EndSplineSet
EndChar

StartChar: Uhorn
Encoding: 431 431 169
Width: 829
GlyphClass: 2
Flags: W
AnchorPoint: "Anchor-7" 866 838 basechar 0
AnchorPoint: "Anchor-6" 354 730 basechar 0
AnchorPoint: "Anchor-5" 483 10 basechar 0
AnchorPoint: "Anchor-4" 354 0 basechar 0
LayerCount: 2
Fore
SplineSet
853 712 m 0,1,2
 853 637 853 637 817 596 c 128,-1,3
 781 555 781 555 715 555 c 0,4,5
 677 555 677 555 641 568 c 1,6,-1
 641 270 l 2,7,8
 641 133 641 133 567.5 61.5 c 128,-1,9
 494 -10 494 -10 354 -10 c 256,10,11
 214 -10 214 -10 141 61.5 c 128,-1,12
 68 133 68 133 68 270 c 2,13,-1
 68 730 l 1,14,-1
 208 730 l 1,15,-1
 208 287 l 2,16,17
 208 195 208 195 242.5 154 c 128,-1,18
 277 113 277 113 354 113 c 0,19,20
 432 113 432 113 466.5 154 c 128,-1,21
 501 195 501 195 501 287 c 2,22,-1
 501 730 l 1,23,-1
 641 730 l 1,24,-1
 641 671 l 1,25,26
 653 665 653 665 668 665 c 0,27,28
 692 665 692 665 705.5 681.5 c 128,-1,29
 719 698 719 698 719 727 c 0,30,31
 719 750 719 750 712.5 783.5 c 128,-1,32
 706 817 706 817 697 838 c 1,33,-1
 832 838 l 1,34,0
 853 778 853 778 853 712 c 0,1,2
EndSplineSet
EndChar

StartChar: Uogonek
Encoding: 370 370 178
Width: 709
GlyphClass: 2
Flags: W
AnchorPoint: "Anchor-7" 621 690 basechar 0
AnchorPoint: "Anchor-6" 354 730 basechar 0
AnchorPoint: "Anchor-5" 483 10 basechar 0
AnchorPoint: "Anchor-4" 354 0 basechar 0
LayerCount: 2
Fore
SplineSet
402 -71 m 0,1,2
 402 -88 402 -88 418 -96.5 c 128,-1,3
 434 -105 434 -105 465 -105 c 0,4,5
 511 -105 511 -105 557 -86 c 1,6,-1
 573 -187 l 1,7,8
 521 -208 521 -208 455 -208 c 0,9,10
 369 -208 369 -208 322.5 -177.5 c 128,-1,11
 276 -147 276 -147 276 -92 c 0,12,13
 276 -48 276 -48 307 -8 c 1,14,15
 189 4 189 4 128.5 74.5 c 128,-1,16
 68 145 68 145 68 270 c 2,17,-1
 68 730 l 1,18,-1
 208 730 l 1,19,-1
 208 287 l 2,20,21
 208 195 208 195 242.5 154 c 128,-1,22
 277 113 277 113 354 113 c 0,23,24
 432 113 432 113 466.5 154 c 128,-1,25
 501 195 501 195 501 287 c 2,26,-1
 501 730 l 1,27,-1
 641 730 l 1,28,-1
 641 270 l 2,29,30
 641 169 641 169 600.5 103 c 128,-1,31
 560 37 560 37 482 10 c 1,32,0
 402 -34 402 -34 402 -71 c 0,1,2
EndSplineSet
EndChar

StartChar: V
Encoding: 86 86 181
Width: 684
Flags: W
LayerCount: 2
Fore
SplineSet
10 730 m 1,0,-1
 164 730 l 1,1,-1
 341 140 l 1,2,-1
 343 140 l 1,3,-1
 520 730 l 1,4,-1
 674 730 l 1,5,-1
 434 0 l 1,6,-1
 251 0 l 1,7,-1
 10 730 l 1,0,-1
EndSplineSet
EndChar

StartChar: W
Encoding: 87 87 182
Width: 941
GlyphClass: 2
Flags: W
AnchorPoint: "Anchor-6" 470 730 basechar 0
AnchorPoint: "Anchor-4" 470 0 basechar 0
LayerCount: 2
Fore
SplineSet
469 583 m 1,0,-1
 467 583 l 1,1,-1
 356 0 l 1,2,-1
 190 0 l 1,3,-1
 21 730 l 1,4,-1
 164 730 l 1,5,-1
 274 147 l 1,6,-1
 276 147 l 1,7,-1
 383 730 l 1,8,-1
 557 730 l 1,9,-1
 664 147 l 1,10,-1
 666 147 l 1,11,-1
 776 730 l 1,12,-1
 915 730 l 1,13,-1
 746 0 l 1,14,-1
 580 0 l 1,15,-1
 469 583 l 1,0,-1
EndSplineSet
EndChar

StartChar: X
Encoding: 88 88 187
Width: 691
Flags: W
LayerCount: 2
Fore
SplineSet
242 366 m 1,0,-1
 41 730 l 1,1,-1
 199 730 l 1,2,-1
 345 446 l 1,3,-1
 347 446 l 1,4,-1
 492 730 l 1,5,-1
 650 730 l 1,6,-1
 450 366 l 1,7,-1
 652 0 l 1,8,-1
 494 0 l 1,9,-1
 347 288 l 1,10,-1
 345 288 l 1,11,-1
 197 0 l 1,12,-1
 39 0 l 1,13,-1
 242 366 l 1,0,-1
EndSplineSet
EndChar

StartChar: Y
Encoding: 89 89 188
Width: 665
GlyphClass: 2
Flags: W
AnchorPoint: "Anchor-6" 333 730 basechar 0
AnchorPoint: "Anchor-4" 333 0 basechar 0
LayerCount: 2
Fore
SplineSet
260 286 m 1,0,-1
 6 730 l 1,1,-1
 163 730 l 1,2,-1
 332 411 l 1,3,-1
 334 411 l 1,4,-1
 502 730 l 1,5,-1
 659 730 l 1,6,-1
 406 286 l 1,7,-1
 406 0 l 1,8,-1
 260 0 l 1,9,-1
 260 286 l 1,0,-1
EndSplineSet
EndChar

StartChar: Z
Encoding: 90 90 197
Width: 640
GlyphClass: 2
Flags: W
AnchorPoint: "Anchor-6" 320 730 basechar 0
AnchorPoint: "Anchor-4" 320 0 basechar 0
LayerCount: 2
Fore
SplineSet
60 122 m 1,0,-1
 412 606 l 1,1,-1
 412 608 l 1,2,-1
 60 608 l 1,3,-1
 60 730 l 1,4,-1
 580 730 l 1,5,-1
 580 608 l 1,6,-1
 228 124 l 1,7,-1
 228 122 l 1,8,-1
 580 122 l 1,9,-1
 580 0 l 1,10,-1
 60 0 l 1,11,-1
 60 122 l 1,0,-1
EndSplineSet
EndChar

StartChar: a
Encoding: 97 97 201
Width: 559
GlyphClass: 2
Flags: W
AnchorPoint: "Anchor-6" 267 520 basechar 0
AnchorPoint: "Anchor-5" 498 0 basechar 0
AnchorPoint: "Anchor-4" 267 0 basechar 0
LayerCount: 2
Fore
SplineSet
406.5 509.5 m 128,-1,1
 454 489 454 489 476 444 c 128,-1,2
 498 399 498 399 498 323 c 2,3,-1
 498 0 l 1,4,-1
 367 0 l 1,5,-1
 366 66 l 1,6,-1
 364 66 l 1,7,8
 335 29 335 29 291.5 9.5 c 128,-1,9
 248 -10 248 -10 196 -10 c 0,10,11
 119 -10 119 -10 73 33 c 128,-1,12
 27 76 27 76 27 147 c 0,13,14
 27 238 27 238 104.5 286.5 c 128,-1,15
 182 335 182 335 325 335 c 2,16,-1
 360 335 l 1,17,18
 359 371 359 371 351 389.5 c 128,-1,19
 343 408 343 408 324 415.5 c 128,-1,20
 305 423 305 423 269 423 c 0,21,22
 171 423 171 423 77 380 c 1,23,-1
 45 481 l 1,24,25
 149 530 149 530 280 530 c 0,26,0
 359 530 359 530 406.5 509.5 c 128,-1,1
297.5 108.5 m 128,-1,28
 326 123 326 123 343 147.5 c 128,-1,29
 360 172 360 172 360 200 c 2,30,-1
 360 244 l 1,31,-1
 325 244 l 2,32,33
 158 244 158 244 158 159 c 0,34,35
 158 129 158 129 179 111.5 c 128,-1,36
 200 94 200 94 236 94 c 0,37,27
 269 94 269 94 297.5 108.5 c 128,-1,28
EndSplineSet
Substitution2: "Single Substitution lookup 21 subtable" ordfeminine
Substitution2: "'aalt' Access All Alternates in Latin lookup 0 subtable" ordfeminine
EndChar

StartChar: uni1EAF
Encoding: 7855 7855 204
Width: 559
GlyphClass: 2
Flags: W
AnchorPoint: "Anchor-6" 267 520 basechar 0
AnchorPoint: "Anchor-5" 498 0 basechar 0
AnchorPoint: "Anchor-4" 267 0 basechar 0
LayerCount: 2
Fore
SplineSet
155.5 589 m 128,-1,1
 106 613 106 613 77.5 655.5 c 128,-1,2
 49 698 49 698 47 752 c 1,3,-1
 167 752 l 1,4,-1
 245 950 l 1,5,-1
 415 950 l 1,6,-1
 292 740 l 1,7,-1
 183 740 l 1,8,9
 197 666 197 666 267 666 c 0,10,11
 341 666 341 666 352 752 c 1,12,-1
 487 752 l 1,13,14
 485 698 485 698 456.5 655.5 c 128,-1,15
 428 613 428 613 378.5 589 c 128,-1,16
 329 565 329 565 267 565 c 256,17,0
 205 565 205 565 155.5 589 c 128,-1,1
406.5 509.5 m 128,-1,19
 454 489 454 489 476 444 c 128,-1,20
 498 399 498 399 498 323 c 2,21,-1
 498 0 l 1,22,-1
 367 0 l 1,23,-1
 366 66 l 1,24,-1
 364 66 l 1,25,26
 335 29 335 29 291.5 9.5 c 128,-1,27
 248 -10 248 -10 196 -10 c 0,28,29
 119 -10 119 -10 73 33 c 128,-1,30
 27 76 27 76 27 147 c 0,31,32
 27 238 27 238 104.5 286.5 c 128,-1,33
 182 335 182 335 325 335 c 2,34,-1
 360 335 l 1,35,36
 359 371 359 371 351 389.5 c 128,-1,37
 343 408 343 408 324 415.5 c 128,-1,38
 305 423 305 423 269 423 c 0,39,40
 171 423 171 423 77 380 c 1,41,-1
 45 481 l 1,42,43
 149 530 149 530 280 530 c 0,44,18
 359 530 359 530 406.5 509.5 c 128,-1,19
297.5 108.5 m 128,-1,46
 326 123 326 123 343 147.5 c 128,-1,47
 360 172 360 172 360 200 c 2,48,-1
 360 244 l 1,49,-1
 325 244 l 2,50,51
 158 244 158 244 158 159 c 0,52,53
 158 129 158 129 179 111.5 c 128,-1,54
 200 94 200 94 236 94 c 0,55,45
 269 94 269 94 297.5 108.5 c 128,-1,46
EndSplineSet
EndChar

StartChar: uni1EB1
Encoding: 7857 7857 206
Width: 559
GlyphClass: 2
Flags: W
AnchorPoint: "Anchor-6" 267 520 basechar 0
AnchorPoint: "Anchor-5" 498 0 basechar 0
AnchorPoint: "Anchor-4" 267 0 basechar 0
LayerCount: 2
Fore
SplineSet
322 684.5 m 128,-1,1
 343 703 343 703 350 740 c 1,2,-1
 241 740 l 1,3,-1
 118 950 l 1,4,-1
 288 950 l 1,5,-1
 366 752 l 1,6,-1
 487 752 l 1,7,8
 485 698 485 698 456.5 655.5 c 128,-1,9
 428 613 428 613 378.5 589 c 128,-1,10
 329 565 329 565 267 565 c 256,11,12
 205 565 205 565 155.5 589 c 128,-1,13
 106 613 106 613 77.5 655.5 c 128,-1,14
 49 698 49 698 47 752 c 1,15,-1
 181 752 l 1,16,17
 192 666 192 666 267 666 c 0,18,0
 301 666 301 666 322 684.5 c 128,-1,1
406.5 509.5 m 128,-1,20
 454 489 454 489 476 444 c 128,-1,21
 498 399 498 399 498 323 c 2,22,-1
 498 0 l 1,23,-1
 367 0 l 1,24,-1
 366 66 l 1,25,-1
 364 66 l 1,26,27
 335 29 335 29 291.5 9.5 c 128,-1,28
 248 -10 248 -10 196 -10 c 0,29,30
 119 -10 119 -10 73 33 c 128,-1,31
 27 76 27 76 27 147 c 0,32,33
 27 238 27 238 104.5 286.5 c 128,-1,34
 182 335 182 335 325 335 c 2,35,-1
 360 335 l 1,36,37
 359 371 359 371 351 389.5 c 128,-1,38
 343 408 343 408 324 415.5 c 128,-1,39
 305 423 305 423 269 423 c 0,40,41
 171 423 171 423 77 380 c 1,42,-1
 45 481 l 1,43,44
 149 530 149 530 280 530 c 0,45,19
 359 530 359 530 406.5 509.5 c 128,-1,20
297.5 108.5 m 128,-1,47
 326 123 326 123 343 147.5 c 128,-1,48
 360 172 360 172 360 200 c 2,49,-1
 360 244 l 1,50,-1
 325 244 l 2,51,52
 158 244 158 244 158 159 c 0,53,54
 158 129 158 129 179 111.5 c 128,-1,55
 200 94 200 94 236 94 c 0,56,46
 269 94 269 94 297.5 108.5 c 128,-1,47
EndSplineSet
EndChar

StartChar: uni1EB3
Encoding: 7859 7859 207
Width: 559
GlyphClass: 2
Flags: W
AnchorPoint: "Anchor-6" 267 942 basechar 0
AnchorPoint: "Anchor-5" 498 0 basechar 0
AnchorPoint: "Anchor-4" 267 0 basechar 0
LayerCount: 2
Fore
SplineSet
350 742 m 1,1,-1
 290 742 l 1,2,3
 302 782 302 782 302 806 c 0,4,5
 302 827 302 827 289 834 c 128,-1,6
 276 841 276 841 241 841 c 0,7,8
 173 841 173 841 107 821 c 1,9,-1
 95 924 l 1,10,11
 173 942 173 942 267 942 c 0,12,13
 335 942 335 942 371 934.5 c 128,-1,14
 407 927 407 927 422.5 908.5 c 128,-1,15
 438 890 438 890 438 855 c 0,16,17
 438 832 438 832 433 804 c 128,-1,18
 428 776 428 776 420 752 c 1,19,-1
 487 752 l 1,20,21
 485 698 485 698 456.5 655.5 c 128,-1,22
 428 613 428 613 378.5 589 c 128,-1,23
 329 565 329 565 267 565 c 256,24,25
 205 565 205 565 155.5 589 c 128,-1,26
 106 613 106 613 77.5 655.5 c 128,-1,27
 49 698 49 698 47 752 c 1,28,-1
 181 752 l 1,29,30
 192 666 192 666 267 666 c 0,31,0
 336 666 336 666 350 742 c 1,1,-1
406.5 509.5 m 128,-1,33
 454 489 454 489 476 444 c 128,-1,34
 498 399 498 399 498 323 c 2,35,-1
 498 0 l 1,36,-1
 367 0 l 1,37,-1
 366 66 l 1,38,-1
 364 66 l 1,39,40
 335 29 335 29 291.5 9.5 c 128,-1,41
 248 -10 248 -10 196 -10 c 0,42,43
 119 -10 119 -10 73 33 c 128,-1,44
 27 76 27 76 27 147 c 0,45,46
 27 238 27 238 104.5 286.5 c 128,-1,47
 182 335 182 335 325 335 c 2,48,-1
 360 335 l 1,49,50
 359 371 359 371 351 389.5 c 128,-1,51
 343 408 343 408 324 415.5 c 128,-1,52
 305 423 305 423 269 423 c 0,53,54
 171 423 171 423 77 380 c 1,55,-1
 45 481 l 1,56,57
 149 530 149 530 280 530 c 0,58,32
 359 530 359 530 406.5 509.5 c 128,-1,33
297.5 108.5 m 128,-1,60
 326 123 326 123 343 147.5 c 128,-1,61
 360 172 360 172 360 200 c 2,62,-1
 360 244 l 1,63,-1
 325 244 l 2,64,65
 158 244 158 244 158 159 c 0,66,67
 158 129 158 129 179 111.5 c 128,-1,68
 200 94 200 94 236 94 c 0,69,59
 269 94 269 94 297.5 108.5 c 128,-1,60
EndSplineSet
EndChar

StartChar: uni1EA5
Encoding: 7845 7845 210
Width: 559
GlyphClass: 2
Flags: W
AnchorPoint: "Anchor-6" 267 520 basechar 0
AnchorPoint: "Anchor-5" 498 0 basechar 0
AnchorPoint: "Anchor-4" 267 0 basechar 0
LayerCount: 2
Fore
SplineSet
489 740 m 1,0,-1
 399 740 l 1,1,-1
 504 560 l 1,2,-1
 348 560 l 1,3,-1
 268 713 l 1,4,-1
 266 713 l 1,5,-1
 186 560 l 1,6,-1
 30 560 l 1,7,-1
 152 770 l 1,8,-1
 371 770 l 1,9,-1
 442 950 l 1,10,-1
 612 950 l 1,11,-1
 489 740 l 1,0,-1
406.5 509.5 m 128,-1,13
 454 489 454 489 476 444 c 128,-1,14
 498 399 498 399 498 323 c 2,15,-1
 498 0 l 1,16,-1
 367 0 l 1,17,-1
 366 66 l 1,18,-1
 364 66 l 1,19,20
 335 29 335 29 291.5 9.5 c 128,-1,21
 248 -10 248 -10 196 -10 c 0,22,23
 119 -10 119 -10 73 33 c 128,-1,24
 27 76 27 76 27 147 c 0,25,26
 27 238 27 238 104.5 286.5 c 128,-1,27
 182 335 182 335 325 335 c 2,28,-1
 360 335 l 1,29,30
 359 371 359 371 351 389.5 c 128,-1,31
 343 408 343 408 324 415.5 c 128,-1,32
 305 423 305 423 269 423 c 0,33,34
 171 423 171 423 77 380 c 1,35,-1
 45 481 l 1,36,37
 149 530 149 530 280 530 c 0,38,12
 359 530 359 530 406.5 509.5 c 128,-1,13
297.5 108.5 m 128,-1,40
 326 123 326 123 343 147.5 c 128,-1,41
 360 172 360 172 360 200 c 2,42,-1
 360 244 l 1,43,-1
 325 244 l 2,44,45
 158 244 158 244 158 159 c 0,46,47
 158 129 158 129 179 111.5 c 128,-1,48
 200 94 200 94 236 94 c 0,49,39
 269 94 269 94 297.5 108.5 c 128,-1,40
EndSplineSet
EndChar

StartChar: uni1EA7
Encoding: 7847 7847 212
Width: 559
GlyphClass: 2
Flags: W
AnchorPoint: "Anchor-6" 267 520 basechar 0
AnchorPoint: "Anchor-5" 498 0 basechar 0
AnchorPoint: "Anchor-4" 267 0 basechar 0
LayerCount: 2
Fore
SplineSet
135 740 m 1,0,-1
 44 740 l 1,1,-1
 -79 950 l 1,2,-1
 91 950 l 1,3,-1
 162 770 l 1,4,-1
 381 770 l 1,5,-1
 504 560 l 1,6,-1
 348 560 l 1,7,-1
 268 713 l 1,8,-1
 266 713 l 1,9,-1
 186 560 l 1,10,-1
 30 560 l 1,11,-1
 135 740 l 1,0,-1
406.5 509.5 m 128,-1,13
 454 489 454 489 476 444 c 128,-1,14
 498 399 498 399 498 323 c 2,15,-1
 498 0 l 1,16,-1
 367 0 l 1,17,-1
 366 66 l 1,18,-1
 364 66 l 1,19,20
 335 29 335 29 291.5 9.5 c 128,-1,21
 248 -10 248 -10 196 -10 c 0,22,23
 119 -10 119 -10 73 33 c 128,-1,24
 27 76 27 76 27 147 c 0,25,26
 27 238 27 238 104.5 286.5 c 128,-1,27
 182 335 182 335 325 335 c 2,28,-1
 360 335 l 1,29,30
 359 371 359 371 351 389.5 c 128,-1,31
 343 408 343 408 324 415.5 c 128,-1,32
 305 423 305 423 269 423 c 0,33,34
 171 423 171 423 77 380 c 1,35,-1
 45 481 l 1,36,37
 149 530 149 530 280 530 c 0,38,12
 359 530 359 530 406.5 509.5 c 128,-1,13
297.5 108.5 m 128,-1,40
 326 123 326 123 343 147.5 c 128,-1,41
 360 172 360 172 360 200 c 2,42,-1
 360 244 l 1,43,-1
 325 244 l 2,44,45
 158 244 158 244 158 159 c 0,46,47
 158 129 158 129 179 111.5 c 128,-1,48
 200 94 200 94 236 94 c 0,49,39
 269 94 269 94 297.5 108.5 c 128,-1,40
EndSplineSet
EndChar

StartChar: uni1EA9
Encoding: 7849 7849 213
Width: 559
GlyphClass: 2
Flags: W
AnchorPoint: "Anchor-6" 338 938 basechar 0
AnchorPoint: "Anchor-5" 498 0 basechar 0
AnchorPoint: "Anchor-4" 267 0 basechar 0
LayerCount: 2
Fore
SplineSet
400 738 m 1,0,-1
 504 560 l 1,1,-1
 348 560 l 1,2,-1
 268 713 l 1,3,-1
 266 713 l 1,4,-1
 186 560 l 1,5,-1
 30 560 l 1,6,-1
 152 770 l 1,7,-1
 369 770 l 1,8,9
 373 794 373 794 373 802 c 0,10,11
 373 823 373 823 360 830 c 128,-1,12
 347 837 347 837 312 837 c 0,13,14
 244 837 244 837 178 817 c 1,15,-1
 166 920 l 1,16,17
 244 938 244 938 338 938 c 0,18,19
 406 938 406 938 442 930.5 c 128,-1,20
 478 923 478 923 493.5 904.5 c 128,-1,21
 509 886 509 886 509 851 c 0,22,23
 509 826 509 826 503 794.5 c 128,-1,24
 497 763 497 763 487 738 c 1,25,-1
 400 738 l 1,0,-1
406.5 509.5 m 128,-1,27
 454 489 454 489 476 444 c 128,-1,28
 498 399 498 399 498 323 c 2,29,-1
 498 0 l 1,30,-1
 367 0 l 1,31,-1
 366 66 l 1,32,-1
 364 66 l 1,33,34
 335 29 335 29 291.5 9.5 c 128,-1,35
 248 -10 248 -10 196 -10 c 0,36,37
 119 -10 119 -10 73 33 c 128,-1,38
 27 76 27 76 27 147 c 0,39,40
 27 238 27 238 104.5 286.5 c 128,-1,41
 182 335 182 335 325 335 c 2,42,-1
 360 335 l 1,43,44
 359 371 359 371 351 389.5 c 128,-1,45
 343 408 343 408 324 415.5 c 128,-1,46
 305 423 305 423 269 423 c 0,47,48
 171 423 171 423 77 380 c 1,49,-1
 45 481 l 1,50,51
 149 530 149 530 280 530 c 0,52,26
 359 530 359 530 406.5 509.5 c 128,-1,27
297.5 108.5 m 128,-1,54
 326 123 326 123 343 147.5 c 128,-1,55
 360 172 360 172 360 200 c 2,56,-1
 360 244 l 1,57,-1
 325 244 l 2,58,59
 158 244 158 244 158 159 c 0,60,61
 158 129 158 129 179 111.5 c 128,-1,62
 200 94 200 94 236 94 c 0,63,53
 269 94 269 94 297.5 108.5 c 128,-1,54
EndSplineSet
EndChar

StartChar: aogonek
Encoding: 261 261 222
Width: 559
GlyphClass: 2
Flags: W
AnchorPoint: "Anchor-6" 267 520 basechar 0
AnchorPoint: "Anchor-5" 498 0 basechar 0
AnchorPoint: "Anchor-4" 267 0 basechar 0
LayerCount: 2
Fore
SplineSet
588 -197 m 1,0,1
 536 -218 536 -218 470 -218 c 0,2,3
 384 -218 384 -218 337.5 -187.5 c 128,-1,4
 291 -157 291 -157 291 -102 c 0,5,6
 291 -68 291 -68 309.5 -36.5 c 128,-1,7
 328 -5 328 -5 367 27 c 1,8,-1
 366 66 l 1,9,-1
 364 66 l 1,10,11
 335 29 335 29 291.5 9.5 c 128,-1,12
 248 -10 248 -10 196 -10 c 0,13,14
 119 -10 119 -10 73 33 c 128,-1,15
 27 76 27 76 27 147 c 0,16,17
 27 238 27 238 104.5 286.5 c 128,-1,18
 182 335 182 335 325 335 c 2,19,-1
 360 335 l 1,20,21
 359 371 359 371 351 389.5 c 128,-1,22
 343 408 343 408 324 415.5 c 128,-1,23
 305 423 305 423 269 423 c 0,24,25
 171 423 171 423 77 380 c 1,26,-1
 45 481 l 1,27,28
 149 530 149 530 280 530 c 0,29,30
 359 530 359 530 406.5 509.5 c 128,-1,31
 454 489 454 489 476 444 c 128,-1,32
 498 399 498 399 498 323 c 2,33,-1
 498 0 l 1,34,35
 417 -44 417 -44 417 -81 c 0,36,37
 417 -98 417 -98 433 -106.5 c 128,-1,38
 449 -115 449 -115 480 -115 c 0,39,40
 526 -115 526 -115 572 -96 c 1,41,-1
 588 -197 l 1,0,1
297.5 108.5 m 128,-1,43
 326 123 326 123 343 147.5 c 128,-1,44
 360 172 360 172 360 200 c 2,45,-1
 360 244 l 1,46,-1
 325 244 l 2,47,48
 158 244 158 244 158 159 c 0,49,50
 158 129 158 129 179 111.5 c 128,-1,51
 200 94 200 94 236 94 c 0,52,42
 269 94 269 94 297.5 108.5 c 128,-1,43
EndSplineSet
EndChar

StartChar: aring
Encoding: 229 229 223
Width: 559
GlyphClass: 2
Flags: W
AnchorPoint: "Anchor-6" 267 737 basechar 0
AnchorPoint: "Anchor-5" 498 0 basechar 0
AnchorPoint: "Anchor-4" 267 0 basechar 0
LayerCount: 2
Fore
SplineSet
461.5 468 m 128,-1,1
 498 420 498 420 498 323 c 2,2,-1
 498 0 l 1,3,-1
 367 0 l 1,4,-1
 366 66 l 1,5,-1
 364 66 l 1,6,7
 335 29 335 29 291.5 9.5 c 128,-1,8
 248 -10 248 -10 196 -10 c 0,9,10
 119 -10 119 -10 73 33 c 128,-1,11
 27 76 27 76 27 147 c 0,12,13
 27 238 27 238 104.5 286.5 c 128,-1,14
 182 335 182 335 325 335 c 2,15,-1
 360 335 l 1,16,17
 359 371 359 371 351 389.5 c 128,-1,18
 343 408 343 408 324 415.5 c 128,-1,19
 305 423 305 423 269 423 c 0,20,21
 171 423 171 423 77 380 c 1,22,-1
 45 481 l 1,23,24
 115 513 115 513 197 525 c 1,25,26
 158 544 158 544 134.5 581.5 c 128,-1,27
 111 619 111 619 111 665 c 0,28,29
 111 708 111 708 132 744 c 128,-1,30
 153 780 153 780 189 801 c 128,-1,31
 225 822 225 822 267 822 c 0,32,33
 310 822 310 822 346 801 c 128,-1,34
 382 780 382 780 403 744 c 128,-1,35
 424 708 424 708 424 665 c 0,36,37
 424 621 424 621 401.5 584 c 128,-1,38
 379 547 379 547 341 526 c 1,39,0
 425 516 425 516 461.5 468 c 128,-1,1
221 711 m 128,-1,41
 202 692 202 692 202 665 c 256,42,43
 202 638 202 638 221 619 c 128,-1,44
 240 600 240 600 267 600 c 0,45,46
 295 600 295 600 313.5 619 c 128,-1,47
 332 638 332 638 332 665 c 256,48,49
 332 692 332 692 313.5 711 c 128,-1,50
 295 730 295 730 267 730 c 0,51,40
 240 730 240 730 221 711 c 128,-1,41
297.5 108.5 m 128,-1,53
 326 123 326 123 343 147.5 c 128,-1,54
 360 172 360 172 360 200 c 2,55,-1
 360 244 l 1,56,-1
 325 244 l 2,57,58
 158 244 158 244 158 159 c 0,59,60
 158 129 158 129 179 111.5 c 128,-1,61
 200 94 200 94 236 94 c 0,62,52
 269 94 269 94 297.5 108.5 c 128,-1,53
EndSplineSet
EndChar

StartChar: aringacute
Encoding: 507 507 224
Width: 559
GlyphClass: 2
Flags: W
AnchorPoint: "Anchor-6" 267 737 basechar 0
AnchorPoint: "Anchor-5" 498 0 basechar 0
AnchorPoint: "Anchor-4" 267 0 basechar 0
LayerCount: 2
Fore
SplineSet
461.5 468 m 128,-1,1
 498 420 498 420 498 323 c 2,2,-1
 498 0 l 1,3,-1
 367 0 l 1,4,-1
 366 66 l 1,5,-1
 364 66 l 1,6,7
 335 29 335 29 291.5 9.5 c 128,-1,8
 248 -10 248 -10 196 -10 c 0,9,10
 119 -10 119 -10 73 33 c 128,-1,11
 27 76 27 76 27 147 c 0,12,13
 27 238 27 238 104.5 286.5 c 128,-1,14
 182 335 182 335 325 335 c 2,15,-1
 360 335 l 1,16,17
 359 371 359 371 351 389.5 c 128,-1,18
 343 408 343 408 324 415.5 c 128,-1,19
 305 423 305 423 269 423 c 0,20,21
 171 423 171 423 77 380 c 1,22,-1
 45 481 l 1,23,24
 115 513 115 513 197 525 c 1,25,26
 158 544 158 544 134.5 581.5 c 128,-1,27
 111 619 111 619 111 665 c 0,28,29
 111 700 111 700 125.5 731 c 128,-1,30
 140 762 140 762 165 783 c 1,31,-1
 245 987 l 1,32,-1
 415 987 l 1,33,-1
 314 815 l 1,34,35
 363 800 363 800 393.5 759 c 128,-1,36
 424 718 424 718 424 665 c 0,37,38
 424 621 424 621 401.5 584 c 128,-1,39
 379 547 379 547 341 526 c 1,40,0
 425 516 425 516 461.5 468 c 128,-1,1
313.5 619 m 128,-1,42
 332 638 332 638 332 665 c 256,43,44
 332 692 332 692 313.5 711 c 128,-1,45
 295 730 295 730 267 730 c 0,46,47
 240 730 240 730 221 711 c 128,-1,48
 202 692 202 692 202 665 c 256,49,50
 202 638 202 638 221 619 c 128,-1,51
 240 600 240 600 267 600 c 0,52,41
 295 600 295 600 313.5 619 c 128,-1,42
297.5 108.5 m 128,-1,54
 326 123 326 123 343 147.5 c 128,-1,55
 360 172 360 172 360 200 c 2,56,-1
 360 244 l 1,57,-1
 325 244 l 2,58,59
 158 244 158 244 158 159 c 0,60,61
 158 129 158 129 179 111.5 c 128,-1,62
 200 94 200 94 236 94 c 0,63,53
 269 94 269 94 297.5 108.5 c 128,-1,54
EndSplineSet
EndChar

StartChar: ae
Encoding: 230 230 226
Width: 892
GlyphClass: 2
Flags: W
AnchorPoint: "Anchor-6" 447 520 basechar 0
AnchorPoint: "Anchor-4" 447 0 basechar 0
LayerCount: 2
Fore
SplineSet
858 210 m 1,1,-1
 495 210 l 1,2,3
 501 151 501 151 538 123 c 128,-1,4
 575 95 575 95 647 95 c 0,5,6
 687 95 687 95 727 103 c 128,-1,7
 767 111 767 111 799 126 c 1,8,-1
 824 27 l 1,9,10
 785 10 785 10 736.5 0 c 128,-1,11
 688 -10 688 -10 639 -10 c 0,12,13
 500 -10 500 -10 427 65 c 1,14,15
 358 -10 358 -10 228 -10 c 0,16,17
 131 -10 131 -10 79 30.5 c 128,-1,18
 27 71 27 71 27 147 c 0,19,20
 27 238 27 238 104.5 286.5 c 128,-1,21
 182 335 182 335 325 335 c 2,22,-1
 360 335 l 1,23,24
 359 371 359 371 351 389.5 c 128,-1,25
 343 408 343 408 324 415.5 c 128,-1,26
 305 423 305 423 269 423 c 0,27,28
 171 423 171 423 77 380 c 1,29,-1
 45 481 l 1,30,31
 149 530 149 530 280 530 c 0,32,33
 341 530 341 530 382.5 517.5 c 128,-1,34
 424 505 424 505 449 478 c 1,35,36
 513 530 513 530 615 530 c 0,37,38
 733 530 733 530 796.5 461 c 128,-1,39
 860 392 860 392 860 263 c 0,40,0
 860 234 860 234 858 210 c 1,1,-1
530.5 399.5 m 128,-1,42
 501 369 501 369 495 305 c 1,43,-1
 731 305 l 1,44,45
 726 370 726 370 698 400 c 128,-1,46
 670 430 670 430 615 430 c 256,47,41
 560 430 560 430 530.5 399.5 c 128,-1,42
297.5 108.5 m 128,-1,49
 326 123 326 123 343 147.5 c 128,-1,50
 360 172 360 172 360 200 c 2,51,-1
 360 244 l 1,52,-1
 325 244 l 2,53,54
 158 244 158 244 158 159 c 0,55,56
 158 129 158 129 179 111.5 c 128,-1,57
 200 94 200 94 236 94 c 0,58,48
 269 94 269 94 297.5 108.5 c 128,-1,49
EndSplineSet
EndChar

StartChar: b
Encoding: 98 98 228
Width: 609
Flags: W
LayerCount: 2
Fore
SplineSet
520.5 460.5 m 128,-1,1
 572 391 572 391 572 260 c 256,2,3
 572 129 572 129 520.5 59.5 c 128,-1,4
 469 -10 469 -10 372 -10 c 0,5,6
 321 -10 321 -10 277 10 c 128,-1,7
 233 30 233 30 202 67 c 1,8,-1
 200 67 l 1,9,-1
 198 0 l 1,10,-1
 68 0 l 1,11,-1
 68 750 l 1,12,-1
 205 750 l 1,13,-1
 205 453 l 1,14,-1
 207 453 l 1,15,16
 237 491 237 491 279 510.5 c 128,-1,17
 321 530 321 530 372 530 c 0,18,0
 469 530 469 530 520.5 460.5 c 128,-1,1
407 142.5 m 128,-1,20
 436 185 436 185 436 260 c 256,21,22
 436 335 436 335 407 377.5 c 128,-1,23
 378 420 378 420 326 420 c 256,24,25
 274 420 274 420 239.5 380 c 128,-1,26
 205 340 205 340 205 279 c 2,27,-1
 205 241 l 2,28,29
 205 180 205 180 239.5 140 c 128,-1,30
 274 100 274 100 326 100 c 256,31,19
 378 100 378 100 407 142.5 c 128,-1,20
EndSplineSet
EndChar

StartChar: c
Encoding: 99 99 229
Width: 537
GlyphClass: 2
Flags: W
AnchorPoint: "Anchor-6" 285 520 basechar 0
AnchorPoint: "Anchor-4" 285 0 basechar 0
LayerCount: 2
Fore
SplineSet
107.5 60.5 m 128,-1,1
 34 131 34 131 34 260 c 256,2,3
 34 389 34 389 107.5 459.5 c 128,-1,4
 181 530 181 530 315 530 c 0,5,6
 410 530 410 530 484 491 c 1,7,-1
 448 393 l 1,8,9
 384 423 384 423 323 423 c 0,10,11
 250 423 250 423 211.5 381.5 c 128,-1,12
 173 340 173 340 173 260 c 256,13,14
 173 180 173 180 211.5 138.5 c 128,-1,15
 250 97 250 97 323 97 c 0,16,17
 384 97 384 97 448 127 c 1,18,-1
 484 29 l 1,19,20
 410 -10 410 -10 315 -10 c 0,21,0
 181 -10 181 -10 107.5 60.5 c 128,-1,1
EndSplineSet
EndChar

StartChar: ccedilla
Encoding: 231 231 232
Width: 537
GlyphClass: 2
Flags: W
AnchorPoint: "Anchor-6" 285 520 basechar 0
AnchorPoint: "Anchor-4" 285 0 basechar 0
LayerCount: 2
Fore
SplineSet
484 29 m 1,0,1
 443 8 443 8 400 -1 c 1,2,3
 445 -51 445 -51 445 -102 c 0,4,5
 445 -157 445 -157 398.5 -187.5 c 128,-1,6
 352 -218 352 -218 266 -218 c 0,7,8
 200 -218 200 -218 148 -197 c 1,9,-1
 164 -96 l 1,10,11
 210 -115 210 -115 256 -115 c 0,12,13
 287 -115 287 -115 303 -106.5 c 128,-1,14
 319 -98 319 -98 319 -81 c 0,15,16
 319 -45 319 -45 246 -5 c 1,17,18
 144 12 144 12 89 80.5 c 128,-1,19
 34 149 34 149 34 260 c 0,20,21
 34 389 34 389 107.5 459.5 c 128,-1,22
 181 530 181 530 315 530 c 0,23,24
 410 530 410 530 484 491 c 1,25,-1
 448 393 l 1,26,27
 384 423 384 423 323 423 c 0,28,29
 250 423 250 423 211.5 381.5 c 128,-1,30
 173 340 173 340 173 260 c 256,31,32
 173 180 173 180 211.5 138.5 c 128,-1,33
 250 97 250 97 323 97 c 0,34,35
 384 97 384 97 448 127 c 1,36,-1
 484 29 l 1,0,1
EndSplineSet
EndChar

StartChar: d
Encoding: 100 100 235
Width: 610
Flags: W
LayerCount: 2
Fore
SplineSet
542 750 m 1,0,-1
 542 0 l 1,1,-1
 411 0 l 1,2,-1
 410 67 l 1,3,-1
 408 67 l 1,4,5
 376 29 376 29 332.5 9.5 c 128,-1,6
 289 -10 289 -10 237 -10 c 0,7,8
 141 -10 141 -10 89.5 60 c 128,-1,9
 38 130 38 130 38 260 c 256,10,11
 38 390 38 390 89.5 460 c 128,-1,12
 141 530 141 530 237 530 c 0,13,14
 288 530 288 530 330 510.5 c 128,-1,15
 372 491 372 491 402 453 c 1,16,-1
 404 453 l 1,17,-1
 404 750 l 1,18,-1
 542 750 l 1,0,-1
369.5 140 m 128,-1,20
 404 180 404 180 404 241 c 2,21,-1
 404 279 l 2,22,23
 404 340 404 340 369.5 380 c 128,-1,24
 335 420 335 420 283 420 c 0,25,26
 232 420 232 420 203 377.5 c 128,-1,27
 174 335 174 335 174 260 c 256,28,29
 174 185 174 185 203 142.5 c 128,-1,30
 232 100 232 100 283 100 c 0,31,19
 335 100 335 100 369.5 140 c 128,-1,20
EndSplineSet
EndChar

StartChar: eth
Encoding: 240 240 236
Width: 602
Flags: W
LayerCount: 2
Fore
SplineSet
454 616 m 1,0,1
 504 548 504 548 530.5 460.5 c 128,-1,2
 557 373 557 373 557 269 c 0,3,4
 557 132 557 132 490.5 61 c 128,-1,5
 424 -10 424 -10 296 -10 c 0,6,7
 173 -10 173 -10 103.5 58 c 128,-1,8
 34 126 34 126 34 245 c 0,9,10
 34 356 34 356 98 418 c 128,-1,11
 162 480 162 480 276 480 c 0,12,13
 353 480 353 480 397 446 c 1,14,-1
 399 447 l 1,15,16
 382 517 382 517 337 570 c 1,17,-1
 119 483 l 1,18,-1
 77 582 l 1,19,-1
 241 647 l 1,20,21
 179 680 179 680 107 687 c 1,22,-1
 134 790 l 1,23,24
 271 777 271 777 372 699 c 1,25,-1
 517 757 l 1,26,-1
 559 658 l 1,27,-1
 454 616 l 1,0,1
388.5 133.5 m 128,-1,29
 421 172 421 172 421 245 c 0,30,31
 421 316 421 316 390 350.5 c 128,-1,32
 359 385 359 385 296 385 c 256,33,34
 233 385 233 385 202 350.5 c 128,-1,35
 171 316 171 316 171 245 c 0,36,37
 171 172 171 172 203 133.5 c 128,-1,38
 235 95 235 95 296 95 c 0,39,28
 356 95 356 95 388.5 133.5 c 128,-1,29
EndSplineSet
EndChar

StartChar: dcroat
Encoding: 273 273 238
Width: 674
Flags: W
LayerCount: 2
Fore
SplineSet
648 572 m 1,0,-1
 542 572 l 1,1,-1
 542 0 l 1,2,-1
 411 0 l 1,3,-1
 410 67 l 1,4,-1
 408 67 l 1,5,6
 376 29 376 29 332.5 9.5 c 128,-1,7
 289 -10 289 -10 237 -10 c 0,8,9
 141 -10 141 -10 89.5 60 c 128,-1,10
 38 130 38 130 38 260 c 256,11,12
 38 390 38 390 89.5 460 c 128,-1,13
 141 530 141 530 237 530 c 0,14,15
 288 530 288 530 330 510.5 c 128,-1,16
 372 491 372 491 402 453 c 1,17,-1
 404 453 l 1,18,-1
 404 572 l 1,19,-1
 228 572 l 1,20,-1
 228 678 l 1,21,-1
 404 678 l 1,22,-1
 404 750 l 1,23,-1
 542 750 l 1,24,-1
 542 678 l 1,25,-1
 648 678 l 1,26,-1
 648 572 l 1,0,-1
369.5 140 m 128,-1,28
 404 180 404 180 404 241 c 2,29,-1
 404 279 l 2,30,31
 404 340 404 340 369.5 380 c 128,-1,32
 335 420 335 420 283 420 c 0,33,34
 232 420 232 420 203 377.5 c 128,-1,35
 174 335 174 335 174 260 c 256,36,37
 174 185 174 185 203 142.5 c 128,-1,38
 232 100 232 100 283 100 c 0,39,27
 335 100 335 100 369.5 140 c 128,-1,28
EndSplineSet
EndChar

StartChar: e
Encoding: 101 101 240
Width: 567
GlyphClass: 2
Flags: W
AnchorPoint: "Anchor-6" 288 520 basechar 0
AnchorPoint: "Anchor-5" 501 24 basechar 0
AnchorPoint: "Anchor-4" 288 0 basechar 0
LayerCount: 2
Fore
SplineSet
532 210 m 1,1,-1
 170 210 l 1,2,3
 176 151 176 151 215 123 c 128,-1,4
 254 95 254 95 330 95 c 0,5,6
 407 95 407 95 476 122 c 1,7,-1
 501 22 l 1,8,9
 464 7 464 7 417 -1.5 c 128,-1,10
 370 -10 370 -10 322 -10 c 0,11,12
 183 -10 183 -10 108.5 60 c 128,-1,13
 34 130 34 130 34 260 c 0,14,15
 34 387 34 387 101.5 458.5 c 128,-1,16
 169 530 169 530 289 530 c 0,17,18
 408 530 408 530 471.5 461 c 128,-1,19
 535 392 535 392 535 263 c 0,20,0
 535 246 535 246 532 210 c 1,1,-1
205 399.5 m 128,-1,22
 176 369 176 369 170 305 c 1,23,-1
 406 305 l 1,24,25
 401 369 401 369 372.5 399.5 c 128,-1,26
 344 430 344 430 289 430 c 256,27,21
 234 430 234 430 205 399.5 c 128,-1,22
EndSplineSet
EndChar

StartChar: uni1EBF
Encoding: 7871 7871 245
Width: 567
GlyphClass: 2
Flags: W
AnchorPoint: "Anchor-6" 288 520 basechar 0
AnchorPoint: "Anchor-5" 501 24 basechar 0
AnchorPoint: "Anchor-4" 288 0 basechar 0
LayerCount: 2
Fore
SplineSet
287 713 m 1,0,-1
 207 560 l 1,1,-1
 51 560 l 1,2,-1
 173 770 l 1,3,-1
 393 770 l 1,4,-1
 464 950 l 1,5,-1
 634 950 l 1,6,-1
 511 740 l 1,7,-1
 420 740 l 1,8,-1
 525 560 l 1,9,-1
 369 560 l 1,10,-1
 289 713 l 1,11,-1
 287 713 l 1,0,-1
471.5 461 m 128,-1,13
 535 392 535 392 535 263 c 0,14,15
 535 246 535 246 532 210 c 1,16,-1
 170 210 l 1,17,18
 176 151 176 151 215 123 c 128,-1,19
 254 95 254 95 330 95 c 0,20,21
 407 95 407 95 476 122 c 1,22,-1
 501 22 l 1,23,24
 464 7 464 7 417 -1.5 c 128,-1,25
 370 -10 370 -10 322 -10 c 0,26,27
 183 -10 183 -10 108.5 60 c 128,-1,28
 34 130 34 130 34 260 c 0,29,30
 34 387 34 387 101.5 458.5 c 128,-1,31
 169 530 169 530 289 530 c 0,32,12
 408 530 408 530 471.5 461 c 128,-1,13
205 399.5 m 128,-1,34
 176 369 176 369 170 305 c 1,35,-1
 406 305 l 1,36,37
 401 369 401 369 372.5 399.5 c 128,-1,38
 344 430 344 430 289 430 c 256,39,33
 234 430 234 430 205 399.5 c 128,-1,34
EndSplineSet
EndChar

StartChar: uni1EC1
Encoding: 7873 7873 247
Width: 567
GlyphClass: 2
Flags: W
AnchorPoint: "Anchor-6" 288 520 basechar 0
AnchorPoint: "Anchor-5" 501 24 basechar 0
AnchorPoint: "Anchor-4" 288 0 basechar 0
LayerCount: 2
Fore
SplineSet
156 740 m 1,0,-1
 65 740 l 1,1,-1
 -58 950 l 1,2,-1
 112 950 l 1,3,-1
 183 770 l 1,4,-1
 402 770 l 1,5,-1
 525 560 l 1,6,-1
 369 560 l 1,7,-1
 289 713 l 1,8,-1
 287 713 l 1,9,-1
 207 560 l 1,10,-1
 51 560 l 1,11,-1
 156 740 l 1,0,-1
532 210 m 1,13,-1
 170 210 l 1,14,15
 176 151 176 151 215 123 c 128,-1,16
 254 95 254 95 330 95 c 0,17,18
 407 95 407 95 476 122 c 1,19,-1
 501 22 l 1,20,21
 464 7 464 7 417 -1.5 c 128,-1,22
 370 -10 370 -10 322 -10 c 0,23,24
 183 -10 183 -10 108.5 60 c 128,-1,25
 34 130 34 130 34 260 c 0,26,27
 34 387 34 387 101.5 458.5 c 128,-1,28
 169 530 169 530 289 530 c 0,29,30
 408 530 408 530 471.5 461 c 128,-1,31
 535 392 535 392 535 263 c 0,32,12
 535 246 535 246 532 210 c 1,13,-1
205 399.5 m 128,-1,34
 176 369 176 369 170 305 c 1,35,-1
 406 305 l 1,36,37
 401 369 401 369 372.5 399.5 c 128,-1,38
 344 430 344 430 289 430 c 256,39,33
 234 430 234 430 205 399.5 c 128,-1,34
EndSplineSet
EndChar

StartChar: uni1EC3
Encoding: 7875 7875 248
Width: 567
GlyphClass: 2
Flags: W
AnchorPoint: "Anchor-6" 359 938 basechar 0
AnchorPoint: "Anchor-5" 501 24 basechar 0
AnchorPoint: "Anchor-4" 288 0 basechar 0
LayerCount: 2
Fore
SplineSet
207 560 m 1,0,-1
 51 560 l 1,1,-1
 173 770 l 1,2,-1
 390 770 l 1,3,4
 394 794 394 794 394 802 c 0,5,6
 394 823 394 823 381 830 c 128,-1,7
 368 837 368 837 333 837 c 0,8,9
 265 837 265 837 199 817 c 1,10,-1
 187 920 l 1,11,12
 265 938 265 938 359 938 c 0,13,14
 427 938 427 938 463 930.5 c 128,-1,15
 499 923 499 923 514.5 904.5 c 128,-1,16
 530 886 530 886 530 851 c 0,17,18
 530 826 530 826 524 794.5 c 128,-1,19
 518 763 518 763 508 738 c 1,20,-1
 421 738 l 1,21,-1
 525 560 l 1,22,-1
 369 560 l 1,23,-1
 289 713 l 1,24,-1
 287 713 l 1,25,-1
 207 560 l 1,0,-1
532 210 m 1,27,-1
 170 210 l 1,28,29
 176 151 176 151 215 123 c 128,-1,30
 254 95 254 95 330 95 c 0,31,32
 407 95 407 95 476 122 c 1,33,-1
 501 22 l 1,34,35
 464 7 464 7 417 -1.5 c 128,-1,36
 370 -10 370 -10 322 -10 c 0,37,38
 183 -10 183 -10 108.5 60 c 128,-1,39
 34 130 34 130 34 260 c 0,40,41
 34 387 34 387 101.5 458.5 c 128,-1,42
 169 530 169 530 289 530 c 0,43,44
 408 530 408 530 471.5 461 c 128,-1,45
 535 392 535 392 535 263 c 0,46,26
 535 246 535 246 532 210 c 1,27,-1
205 399.5 m 128,-1,48
 176 369 176 369 170 305 c 1,49,-1
 406 305 l 1,50,51
 401 369 401 369 372.5 399.5 c 128,-1,52
 344 430 344 430 289 430 c 256,53,47
 234 430 234 430 205 399.5 c 128,-1,48
EndSplineSet
EndChar

StartChar: eogonek
Encoding: 281 281 258
Width: 567
GlyphClass: 2
Flags: W
AnchorPoint: "Anchor-6" 288 520 basechar 0
AnchorPoint: "Anchor-5" 501 24 basechar 0
AnchorPoint: "Anchor-4" 288 0 basechar 0
LayerCount: 2
Fore
SplineSet
591 -173 m 1,0,1
 538 -194 538 -194 473 -194 c 0,2,3
 387 -194 387 -194 340.5 -163.5 c 128,-1,4
 294 -133 294 -133 294 -78 c 0,5,6
 294 -44 294 -44 314 -10 c 1,7,8
 179 -8 179 -8 106.5 62 c 128,-1,9
 34 132 34 132 34 260 c 0,10,11
 34 387 34 387 101.5 458.5 c 128,-1,12
 169 530 169 530 289 530 c 0,13,14
 408 530 408 530 471.5 461 c 128,-1,15
 535 392 535 392 535 263 c 0,16,17
 535 246 535 246 532 210 c 1,18,-1
 170 210 l 1,19,20
 176 151 176 151 215 123 c 128,-1,21
 254 95 254 95 330 95 c 0,22,23
 407 95 407 95 476 122 c 1,24,-1
 500 24 l 1,25,-1
 501 24 l 1,26,-1
 501 22 l 1,27,28
 497 20 497 20 489 18 c 0,29,30
 420 -23 420 -23 420 -57 c 0,31,32
 420 -74 420 -74 436 -82.5 c 128,-1,33
 452 -91 452 -91 483 -91 c 0,34,35
 529 -91 529 -91 575 -72 c 1,36,-1
 591 -173 l 1,0,1
205 399.5 m 128,-1,38
 176 369 176 369 170 305 c 1,39,-1
 406 305 l 1,40,41
 401 369 401 369 372.5 399.5 c 128,-1,42
 344 430 344 430 289 430 c 256,43,37
 234 430 234 430 205 399.5 c 128,-1,38
EndSplineSet
EndChar

StartChar: uni0259
Encoding: 601 601 260
Width: 567
GlyphClass: 2
Flags: W
AnchorPoint: "Anchor-6" 279 520 basechar 0
AnchorPoint: "Anchor-5" 66 496 basechar 0
AnchorPoint: "Anchor-4" 279 0 basechar 0
LayerCount: 2
Fore
SplineSet
458.5 460 m 128,-1,1
 533 390 533 390 533 260 c 0,2,3
 533 133 533 133 465.5 61.5 c 128,-1,4
 398 -10 398 -10 278 -10 c 0,5,6
 159 -10 159 -10 95.5 59 c 128,-1,7
 32 128 32 128 32 257 c 0,8,9
 32 274 32 274 35 310 c 1,10,-1
 397 310 l 1,11,12
 391 369 391 369 352 397 c 128,-1,13
 313 425 313 425 237 425 c 0,14,15
 160 425 160 425 91 398 c 1,16,-1
 66 498 l 1,17,18
 103 513 103 513 150 521.5 c 128,-1,19
 197 530 197 530 245 530 c 0,20,0
 384 530 384 530 458.5 460 c 128,-1,1
362 120.5 m 128,-1,22
 391 151 391 151 397 215 c 1,23,-1
 161 215 l 1,24,25
 166 151 166 151 194.5 120.5 c 128,-1,26
 223 90 223 90 278 90 c 256,27,21
 333 90 333 90 362 120.5 c 128,-1,22
EndSplineSet
EndChar

StartChar: f
Encoding: 102 102 261
Width: 476
Flags: W
LayerCount: 2
Fore
SplineSet
21 413 m 1,0,-1
 21 520 l 1,1,-1
 152 520 l 1,2,-1
 152 563 l 2,3,4
 152 760 152 760 336 760 c 0,5,6
 391 760 391 760 456 745 c 1,7,-1
 437 640 l 1,8,9
 393 653 393 653 359 653 c 0,10,11
 320 653 320 653 305.5 634 c 128,-1,12
 291 615 291 615 291 563 c 2,13,-1
 291 520 l 1,14,-1
 448 520 l 1,15,-1
 448 413 l 1,16,-1
 291 413 l 1,17,-1
 291 0 l 1,18,-1
 152 0 l 1,19,-1
 152 413 l 1,20,-1
 21 413 l 1,0,-1
EndSplineSet
EndChar

StartChar: g
Encoding: 103 103 262
Width: 609
GlyphClass: 2
Flags: W
AnchorPoint: "Anchor-6" 303 520 basechar 0
AnchorPoint: "Anchor-4" 303 -140 basechar 0
LayerCount: 2
Fore
SplineSet
542 520 m 1,0,-1
 542 50 l 2,1,2
 542 -86 542 -86 470.5 -158 c 128,-1,3
 399 -230 399 -230 264 -230 c 0,4,5
 161 -230 161 -230 53 -189 c 1,6,-1
 81 -91 l 1,7,8
 174 -123 174 -123 245 -123 c 0,9,10
 326 -123 326 -123 365 -80.5 c 128,-1,11
 404 -38 404 -38 404 50 c 2,12,-1
 404 67 l 1,13,-1
 402 67 l 1,14,15
 373 29 373 29 331 9.5 c 128,-1,16
 289 -10 289 -10 238 -10 c 0,17,18
 141 -10 141 -10 89.5 59.5 c 128,-1,19
 38 129 38 129 38 260 c 256,20,21
 38 391 38 391 89.5 460.5 c 128,-1,22
 141 530 141 530 238 530 c 0,23,24
 289 530 289 530 332.5 510.5 c 128,-1,25
 376 491 376 491 408 453 c 1,26,-1
 410 453 l 1,27,-1
 411 520 l 1,28,-1
 542 520 l 1,0,-1
369.5 140 m 128,-1,30
 404 180 404 180 404 241 c 2,31,-1
 404 279 l 2,32,33
 404 340 404 340 369.5 380 c 128,-1,34
 335 420 335 420 283 420 c 0,35,36
 232 420 232 420 203 377.5 c 128,-1,37
 174 335 174 335 174 260 c 256,38,39
 174 185 174 185 203 142.5 c 128,-1,40
 232 100 232 100 283 100 c 0,41,29
 335 100 335 100 369.5 140 c 128,-1,30
EndSplineSet
EndChar

StartChar: h
Encoding: 104 104 268
Width: 609
GlyphClass: 2
Flags: W
AnchorPoint: "Anchor-6" 297 750 basechar 0
AnchorPoint: "Anchor-4" 297 0 basechar 0
LayerCount: 2
Fore
SplineSet
507.5 479.5 m 128,-1,1
 548 429 548 429 548 320 c 2,2,-1
 548 0 l 1,3,-1
 410 0 l 1,4,-1
 410 293 l 2,5,6
 410 357 410 357 392 387 c 128,-1,7
 374 417 374 417 334 417 c 0,8,9
 301 417 301 417 271 397.5 c 128,-1,10
 241 378 241 378 223 345.5 c 128,-1,11
 205 313 205 313 205 277 c 2,12,-1
 205 0 l 1,13,-1
 68 0 l 1,14,-1
 68 750 l 1,15,-1
 205 750 l 1,16,-1
 205 449 l 1,17,-1
 207 449 l 1,18,19
 270 530 270 530 381 530 c 0,20,0
 467 530 467 530 507.5 479.5 c 128,-1,1
EndSplineSet
EndChar

StartChar: hbar
Encoding: 295 295 269
Width: 673
GlyphClass: 2
Flags: W
AnchorPoint: "Anchor-6" 361 750 basechar 0
AnchorPoint: "Anchor-4" 361 0 basechar 0
LayerCount: 2
Fore
SplineSet
572 479.5 m 128,-1,1
 612 429 612 429 612 320 c 2,2,-1
 612 0 l 1,3,-1
 475 0 l 1,4,-1
 475 293 l 2,5,6
 475 357 475 357 456.5 387 c 128,-1,7
 438 417 438 417 399 417 c 0,8,9
 366 417 366 417 336 397.5 c 128,-1,10
 306 378 306 378 288 345.5 c 128,-1,11
 270 313 270 313 270 277 c 2,12,-1
 270 0 l 1,13,-1
 132 0 l 1,14,-1
 132 572 l 1,15,-1
 26 572 l 1,16,-1
 26 678 l 1,17,-1
 132 678 l 1,18,-1
 132 750 l 1,19,-1
 270 750 l 1,20,-1
 270 678 l 1,21,-1
 446 678 l 1,22,-1
 446 572 l 1,23,-1
 270 572 l 1,24,-1
 270 449 l 1,25,-1
 272 449 l 1,26,27
 335 530 335 530 446 530 c 0,28,0
 532 530 532 530 572 479.5 c 128,-1,1
EndSplineSet
EndChar

StartChar: i
Encoding: 105 105 271
Width: 289
GlyphClass: 2
Flags: W
AnchorPoint: "Anchor-6" 144 520 basechar 0
AnchorPoint: "Anchor-5" 214 0 basechar 0
AnchorPoint: "Anchor-4" 144 0 basechar 0
LayerCount: 2
Fore
SplineSet
74 743 m 1,0,-1
 214 743 l 1,1,-1
 214 617 l 1,2,-1
 74 617 l 1,3,-1
 74 743 l 1,0,-1
74 520 m 1,4,-1
 214 520 l 1,5,-1
 214 0 l 1,6,-1
 74 0 l 1,7,-1
 74 520 l 1,4,-1
EndSplineSet
Substitution2: "Single Substitution lookup 19 subtable" dotlessi
Substitution2: "'locl' Localized Forms in Latin lookup 3 subtable" i.loclTRK
Substitution2: "'aalt' Access All Alternates in Latin lookup 0 subtable" i.loclTRK
EndChar

StartChar: dotlessi
Encoding: 305 305 272
Width: 289
GlyphClass: 2
Flags: W
AnchorPoint: "Anchor-6" 144 520 basechar 0
AnchorPoint: "Anchor-5" 214 0 basechar 0
AnchorPoint: "Anchor-4" 144 0 basechar 0
LayerCount: 2
Fore
SplineSet
74 520 m 1,0,-1
 214 520 l 1,1,-1
 214 0 l 1,2,-1
 74 0 l 1,3,-1
 74 520 l 1,0,-1
EndSplineSet
EndChar

StartChar: iogonek
Encoding: 303 303 284
Width: 289
GlyphClass: 2
Flags: W
AnchorPoint: "Anchor-6" 144 739 basechar 0
AnchorPoint: "Anchor-5" 214 0 basechar 0
AnchorPoint: "Anchor-4" 144 0 basechar 0
LayerCount: 2
Fore
SplineSet
218 739 m 1,0,-1
 218 591 l 1,1,-1
 70 591 l 1,2,-1
 70 739 l 1,3,-1
 218 739 l 1,0,-1
304 -197 m 1,4,5
 252 -218 252 -218 186 -218 c 0,6,7
 100 -218 100 -218 53.5 -187.5 c 128,-1,8
 7 -157 7 -157 7 -102 c 0,9,10
 7 -40 7 -40 74 20 c 1,11,-1
 74 520 l 1,12,-1
 214 520 l 1,13,-1
 214 0 l 1,14,15
 133 -44 133 -44 133 -81 c 0,16,17
 133 -98 133 -98 149 -106.5 c 128,-1,18
 165 -115 165 -115 196 -115 c 0,19,20
 242 -115 242 -115 288 -96 c 1,21,-1
 304 -197 l 1,4,5
EndSplineSet
EndChar

StartChar: j
Encoding: 106 106 286
Width: 342
GlyphClass: 2
Flags: W
AnchorPoint: "Anchor-6" 171 520 basechar 0
AnchorPoint: "Anchor-4" 171 -140 basechar 0
LayerCount: 2
Fore
SplineSet
128 743 m 1,0,-1
 268 743 l 1,1,-1
 268 617 l 1,2,-1
 128 617 l 1,3,-1
 128 743 l 1,0,-1
62 -111.5 m 128,-1,5
 101 -101 101 -101 114.5 -71 c 128,-1,6
 128 -41 128 -41 128 27 c 2,7,-1
 128 520 l 1,8,-1
 268 520 l 1,9,-1
 268 27 l 2,10,11
 268 -75 268 -75 239 -129.5 c 128,-1,12
 210 -184 210 -184 141 -207 c 128,-1,13
 72 -230 72 -230 -57 -230 c 1,14,-1
 -64 -122 l 1,15,4
 23 -122 23 -122 62 -111.5 c 128,-1,5
EndSplineSet
Substitution2: "Single Substitution lookup 19 subtable" uni0237
EndChar

StartChar: uni0237
Encoding: 567 567 287
Width: 342
GlyphClass: 2
Flags: W
AnchorPoint: "Anchor-6" 171 520 basechar 0
AnchorPoint: "Anchor-4" 171 -140 basechar 0
LayerCount: 2
Fore
SplineSet
62 -111.5 m 128,-1,1
 101 -101 101 -101 114.5 -71 c 128,-1,2
 128 -41 128 -41 128 27 c 2,3,-1
 128 520 l 1,4,-1
 268 520 l 1,5,-1
 268 27 l 2,6,7
 268 -75 268 -75 239 -129.5 c 128,-1,8
 210 -184 210 -184 141 -207 c 128,-1,9
 72 -230 72 -230 -57 -230 c 1,10,-1
 -64 -122 l 1,11,0
 23 -122 23 -122 62 -111.5 c 128,-1,1
EndSplineSet
EndChar

StartChar: k
Encoding: 107 107 289
Width: 592
GlyphClass: 2
Flags: W
AnchorPoint: "Anchor-6" 273 750 basechar 0
AnchorPoint: "Anchor-4" 273 0 basechar 0
LayerCount: 2
Fore
SplineSet
68 750 m 1,0,-1
 205 750 l 1,1,-1
 205 312 l 1,2,-1
 207 312 l 1,3,-1
 395 520 l 1,4,-1
 563 520 l 1,5,-1
 322 270 l 1,6,-1
 571 0 l 1,7,-1
 403 0 l 1,8,-1
 207 228 l 1,9,-1
 205 228 l 1,10,-1
 205 0 l 1,11,-1
 68 0 l 1,12,-1
 68 750 l 1,0,-1
EndSplineSet
EndChar

StartChar: kgreenlandic
Encoding: 312 312 291
Width: 592
GlyphClass: 2
Flags: W
AnchorPoint: "Anchor-6" 273 520 basechar 0
AnchorPoint: "Anchor-4" 273 0 basechar 0
LayerCount: 2
Fore
SplineSet
68 520 m 1,0,-1
 205 520 l 1,1,-1
 205 312 l 1,2,-1
 207 312 l 1,3,-1
 395 520 l 1,4,-1
 563 520 l 1,5,-1
 322 270 l 1,6,-1
 571 0 l 1,7,-1
 403 0 l 1,8,-1
 207 228 l 1,9,-1
 205 228 l 1,10,-1
 205 0 l 1,11,-1
 68 0 l 1,12,-1
 68 520 l 1,0,-1
EndSplineSet
EndChar

StartChar: l
Encoding: 108 108 292
Width: 289
GlyphClass: 2
Flags: W
AnchorPoint: "Anchor-7" 269 750 basechar 0
AnchorPoint: "Anchor-6" 144 750 basechar 0
AnchorPoint: "Anchor-4" 144 0 basechar 0
LayerCount: 2
Fore
SplineSet
74 750 m 1,0,-1
 214 750 l 1,1,-1
 214 0 l 1,2,-1
 74 0 l 1,3,-1
 74 750 l 1,0,-1
EndSplineSet
EndChar

StartChar: lslash
Encoding: 322 322 298
Width: 482
GlyphClass: 2
Flags: W
AnchorPoint: "Anchor-7" 365 750 basechar 0
AnchorPoint: "Anchor-6" 241 750 basechar 0
AnchorPoint: "Anchor-4" 241 0 basechar 0
LayerCount: 2
Fore
SplineSet
474 402 m 1,0,-1
 311 335 l 1,1,-1
 311 0 l 1,2,-1
 171 0 l 1,3,-1
 171 277 l 1,4,-1
 51 228 l 1,5,-1
 8 328 l 1,6,-1
 171 395 l 1,7,-1
 171 750 l 1,8,-1
 311 750 l 1,9,-1
 311 453 l 1,10,-1
 431 502 l 1,11,-1
 474 402 l 1,0,-1
EndSplineSet
EndChar

StartChar: m
Encoding: 109 109 299
Width: 847
Flags: W
LayerCount: 2
Fore
SplineSet
751 480 m 128,-1,1
 786 430 786 430 786 320 c 2,2,-1
 786 0 l 1,3,-1
 652 0 l 1,4,-1
 652 293 l 2,5,6
 652 417 652 417 589 417 c 0,7,8
 563 417 563 417 541.5 398.5 c 128,-1,9
 520 380 520 380 507 348 c 128,-1,10
 494 316 494 316 494 279 c 2,11,-1
 494 0 l 1,12,-1
 360 0 l 1,13,-1
 360 293 l 2,14,15
 360 417 360 417 297 417 c 0,16,17
 271 417 271 417 249 397.5 c 128,-1,18
 227 378 227 378 214.5 344 c 128,-1,19
 202 310 202 310 202 270 c 2,20,-1
 202 0 l 1,21,-1
 68 0 l 1,22,-1
 68 520 l 1,23,-1
 196 520 l 1,24,-1
 197 453 l 1,25,-1
 199 453 l 1,26,27
 256 530 256 530 348 530 c 256,28,29
 440 530 440 530 473 453 c 1,30,-1
 475 453 l 1,31,32
 540 530 540 530 640 530 c 0,33,0
 716 530 716 530 751 480 c 128,-1,1
EndSplineSet
EndChar

StartChar: n
Encoding: 110 110 300
Width: 609
GlyphClass: 2
Flags: W
AnchorPoint: "Anchor-6" 305 520 basechar 0
AnchorPoint: "Anchor-4" 305 0 basechar 0
LayerCount: 2
Fore
SplineSet
506 478.5 m 128,-1,1
 548 427 548 427 548 320 c 2,2,-1
 548 0 l 1,3,-1
 410 0 l 1,4,-1
 410 293 l 2,5,6
 410 356 410 356 390.5 386.5 c 128,-1,7
 371 417 371 417 331 417 c 0,8,9
 298 417 298 417 269 397.5 c 128,-1,10
 240 378 240 378 222.5 346 c 128,-1,11
 205 314 205 314 205 277 c 2,12,-1
 205 0 l 1,13,-1
 68 0 l 1,14,-1
 68 520 l 1,15,-1
 198 520 l 1,16,-1
 200 449 l 1,17,-1
 202 449 l 1,18,19
 268 530 268 530 378 530 c 0,20,0
 464 530 464 530 506 478.5 c 128,-1,1
EndSplineSet
EndChar

StartChar: eng
Encoding: 331 331 304
Width: 609
GlyphClass: 2
Flags: W
AnchorPoint: "Anchor-6" 305 520 basechar 0
AnchorPoint: "Anchor-4" 305 0 basechar 0
LayerCount: 2
Fore
SplineSet
506 478.5 m 128,-1,1
 548 427 548 427 548 320 c 2,2,-1
 548 -14 l 2,3,4
 548 -127 548 -127 504.5 -175.5 c 128,-1,5
 461 -224 461 -224 360 -224 c 0,6,7
 301 -224 301 -224 235 -208 c 1,8,-1
 253 -96 l 1,9,10
 292 -107 292 -107 331 -107 c 0,11,12
 374 -107 374 -107 392 -86 c 128,-1,13
 410 -65 410 -65 410 -14 c 2,14,-1
 410 293 l 2,15,16
 410 356 410 356 390.5 386.5 c 128,-1,17
 371 417 371 417 331 417 c 0,18,19
 298 417 298 417 269 397.5 c 128,-1,20
 240 378 240 378 222.5 346 c 128,-1,21
 205 314 205 314 205 277 c 2,22,-1
 205 0 l 1,23,-1
 68 0 l 1,24,-1
 68 520 l 1,25,-1
 198 520 l 1,26,-1
 200 449 l 1,27,-1
 202 449 l 1,28,29
 268 530 268 530 378 530 c 0,30,0
 464 530 464 530 506 478.5 c 128,-1,1
EndSplineSet
EndChar

StartChar: o
Encoding: 111 111 307
Width: 589
GlyphClass: 2
Flags: W
AnchorPoint: "Anchor-7" 463 480 basechar 0
AnchorPoint: "Anchor-6" 294 520 basechar 0
AnchorPoint: "Anchor-5" 366 0 basechar 0
AnchorPoint: "Anchor-4" 294 0 basechar 0
LayerCount: 2
Fore
SplineSet
101.5 60 m 128,-1,1
 34 130 34 130 34 260 c 256,2,3
 34 390 34 390 101.5 460 c 128,-1,4
 169 530 169 530 294 530 c 256,5,6
 419 530 419 530 487 460 c 128,-1,7
 555 390 555 390 555 260 c 256,8,9
 555 130 555 130 487 60 c 128,-1,10
 419 -10 419 -10 294 -10 c 256,11,0
 169 -10 169 -10 101.5 60 c 128,-1,1
417 260 m 256,13,14
 417 423 417 423 294 423 c 0,15,16
 233 423 233 423 202 382 c 128,-1,17
 171 341 171 341 171 260 c 256,18,19
 171 179 171 179 202 138 c 128,-1,20
 233 97 233 97 294 97 c 0,21,12
 417 97 417 97 417 260 c 256,13,14
EndSplineSet
Substitution2: "Single Substitution lookup 21 subtable" ordmasculine
Substitution2: "'aalt' Access All Alternates in Latin lookup 0 subtable" ordmasculine
EndChar

StartChar: uni1ED1
Encoding: 7889 7889 311
Width: 589
GlyphClass: 2
Flags: W
AnchorPoint: "Anchor-7" 463 480 basechar 0
AnchorPoint: "Anchor-6" 294 520 basechar 0
AnchorPoint: "Anchor-5" 366 0 basechar 0
AnchorPoint: "Anchor-4" 294 0 basechar 0
LayerCount: 2
Fore
SplineSet
293 713 m 1,0,-1
 213 560 l 1,1,-1
 57 560 l 1,2,-1
 179 770 l 1,3,-1
 399 770 l 1,4,-1
 470 950 l 1,5,-1
 640 950 l 1,6,-1
 517 740 l 1,7,-1
 426 740 l 1,8,-1
 531 560 l 1,9,-1
 375 560 l 1,10,-1
 295 713 l 1,11,-1
 293 713 l 1,0,-1
487 460 m 128,-1,13
 555 390 555 390 555 260 c 256,14,15
 555 130 555 130 487 60 c 128,-1,16
 419 -10 419 -10 294 -10 c 256,17,18
 169 -10 169 -10 101.5 60 c 128,-1,19
 34 130 34 130 34 260 c 256,20,21
 34 390 34 390 101.5 460 c 128,-1,22
 169 530 169 530 294 530 c 256,23,12
 419 530 419 530 487 460 c 128,-1,13
417 260 m 256,25,26
 417 423 417 423 294 423 c 0,27,28
 233 423 233 423 202 382 c 128,-1,29
 171 341 171 341 171 260 c 256,30,31
 171 179 171 179 202 138 c 128,-1,32
 233 97 233 97 294 97 c 0,33,24
 417 97 417 97 417 260 c 256,25,26
EndSplineSet
EndChar

StartChar: uni1ED3
Encoding: 7891 7891 313
Width: 589
GlyphClass: 2
Flags: W
AnchorPoint: "Anchor-7" 463 480 basechar 0
AnchorPoint: "Anchor-6" 294 520 basechar 0
AnchorPoint: "Anchor-5" 366 0 basechar 0
AnchorPoint: "Anchor-4" 294 0 basechar 0
LayerCount: 2
Fore
SplineSet
162 740 m 1,0,-1
 71 740 l 1,1,-1
 -52 950 l 1,2,-1
 118 950 l 1,3,-1
 189 770 l 1,4,-1
 408 770 l 1,5,-1
 531 560 l 1,6,-1
 375 560 l 1,7,-1
 295 713 l 1,8,-1
 293 713 l 1,9,-1
 213 560 l 1,10,-1
 57 560 l 1,11,-1
 162 740 l 1,0,-1
487 460 m 128,-1,13
 555 390 555 390 555 260 c 256,14,15
 555 130 555 130 487 60 c 128,-1,16
 419 -10 419 -10 294 -10 c 256,17,18
 169 -10 169 -10 101.5 60 c 128,-1,19
 34 130 34 130 34 260 c 256,20,21
 34 390 34 390 101.5 460 c 128,-1,22
 169 530 169 530 294 530 c 256,23,12
 419 530 419 530 487 460 c 128,-1,13
417 260 m 256,25,26
 417 423 417 423 294 423 c 0,27,28
 233 423 233 423 202 382 c 128,-1,29
 171 341 171 341 171 260 c 256,30,31
 171 179 171 179 202 138 c 128,-1,32
 233 97 233 97 294 97 c 0,33,24
 417 97 417 97 417 260 c 256,25,26
EndSplineSet
EndChar

StartChar: uni1ED5
Encoding: 7893 7893 314
Width: 589
GlyphClass: 2
Flags: W
AnchorPoint: "Anchor-7" 463 480 basechar 0
AnchorPoint: "Anchor-6" 365 938 basechar 0
AnchorPoint: "Anchor-5" 366 0 basechar 0
AnchorPoint: "Anchor-4" 294 0 basechar 0
LayerCount: 2
Fore
SplineSet
213 560 m 1,0,-1
 57 560 l 1,1,-1
 179 770 l 1,2,-1
 396 770 l 1,3,4
 400 794 400 794 400 802 c 0,5,6
 400 823 400 823 387 830 c 128,-1,7
 374 837 374 837 339 837 c 0,8,9
 271 837 271 837 205 817 c 1,10,-1
 193 920 l 1,11,12
 271 938 271 938 365 938 c 0,13,14
 433 938 433 938 469 930.5 c 128,-1,15
 505 923 505 923 520.5 904.5 c 128,-1,16
 536 886 536 886 536 851 c 0,17,18
 536 826 536 826 530 794.5 c 128,-1,19
 524 763 524 763 514 738 c 1,20,-1
 427 738 l 1,21,-1
 531 560 l 1,22,-1
 375 560 l 1,23,-1
 295 713 l 1,24,-1
 293 713 l 1,25,-1
 213 560 l 1,0,-1
487 460 m 128,-1,27
 555 390 555 390 555 260 c 256,28,29
 555 130 555 130 487 60 c 128,-1,30
 419 -10 419 -10 294 -10 c 256,31,32
 169 -10 169 -10 101.5 60 c 128,-1,33
 34 130 34 130 34 260 c 256,34,35
 34 390 34 390 101.5 460 c 128,-1,36
 169 530 169 530 294 530 c 256,37,26
 419 530 419 530 487 460 c 128,-1,27
417 260 m 256,39,40
 417 423 417 423 294 423 c 0,41,42
 233 423 233 423 202 382 c 128,-1,43
 171 341 171 341 171 260 c 256,44,45
 171 179 171 179 202 138 c 128,-1,46
 233 97 233 97 294 97 c 0,47,38
 417 97 417 97 417 260 c 256,39,40
EndSplineSet
EndChar

StartChar: ohorn
Encoding: 417 417 323
Width: 666
GlyphClass: 2
Flags: W
AnchorPoint: "Anchor-7" 708 628 basechar 0
AnchorPoint: "Anchor-6" 294 520 basechar 0
AnchorPoint: "Anchor-5" 366 0 basechar 0
AnchorPoint: "Anchor-4" 294 0 basechar 0
LayerCount: 2
Fore
SplineSet
695 502 m 0,1,2
 695 427 695 427 659 386 c 128,-1,3
 623 345 623 345 557 345 c 2,4,-1
 546 345 l 1,5,6
 555 306 555 306 555 260 c 0,7,8
 555 130 555 130 487 60 c 128,-1,9
 419 -10 419 -10 294 -10 c 256,10,11
 169 -10 169 -10 101.5 60 c 128,-1,12
 34 130 34 130 34 260 c 256,13,14
 34 390 34 390 101.5 460 c 128,-1,15
 169 530 169 530 294 530 c 0,16,17
 420 530 420 530 489 458 c 1,18,19
 498 455 498 455 510 455 c 0,20,21
 534 455 534 455 547.5 471.5 c 128,-1,22
 561 488 561 488 561 517 c 0,23,24
 561 540 561 540 554.5 573.5 c 128,-1,25
 548 607 548 607 539 628 c 1,26,-1
 674 628 l 1,27,0
 695 568 695 568 695 502 c 0,1,2
417 260 m 256,29,30
 417 423 417 423 294 423 c 0,31,32
 233 423 233 423 202 382 c 128,-1,33
 171 341 171 341 171 260 c 256,34,35
 171 179 171 179 202 138 c 128,-1,36
 233 97 233 97 294 97 c 0,37,28
 417 97 417 97 417 260 c 256,29,30
EndSplineSet
EndChar

StartChar: uni01EB
Encoding: 491 491 332
Width: 589
GlyphClass: 2
Flags: W
AnchorPoint: "Anchor-7" 463 480 basechar 0
AnchorPoint: "Anchor-6" 294 520 basechar 0
AnchorPoint: "Anchor-5" 366 0 basechar 0
AnchorPoint: "Anchor-4" 294 0 basechar 0
LayerCount: 2
Fore
SplineSet
285 -81 m 0,1,2
 285 -98 285 -98 301 -106.5 c 128,-1,3
 317 -115 317 -115 348 -115 c 0,4,5
 394 -115 394 -115 440 -96 c 1,6,-1
 456 -197 l 1,7,8
 403 -218 403 -218 338 -218 c 0,9,10
 252 -218 252 -218 205.5 -187.5 c 128,-1,11
 159 -157 159 -157 159 -102 c 256,12,13
 159 -47 159 -47 206 1 c 1,14,15
 122 23 122 23 78 89 c 128,-1,16
 34 155 34 155 34 260 c 0,17,18
 34 390 34 390 101.5 460 c 128,-1,19
 169 530 169 530 294 530 c 256,20,21
 419 530 419 530 487 460 c 128,-1,22
 555 390 555 390 555 260 c 0,23,24
 555 148 555 148 504 80 c 128,-1,25
 453 12 453 12 357 -5 c 1,26,0
 285 -46 285 -46 285 -81 c 0,1,2
202 382 m 128,-1,28
 171 341 171 341 171 260 c 256,29,30
 171 179 171 179 202 138 c 128,-1,31
 233 97 233 97 294 97 c 0,32,33
 417 97 417 97 417 260 c 256,34,35
 417 423 417 423 294 423 c 0,36,27
 233 423 233 423 202 382 c 128,-1,28
EndSplineSet
EndChar

StartChar: oslash
Encoding: 248 248 333
Width: 589
GlyphClass: 2
Flags: W
AnchorPoint: "Anchor-7" 463 480 basechar 0
AnchorPoint: "Anchor-6" 294 520 basechar 0
AnchorPoint: "Anchor-5" 366 0 basechar 0
AnchorPoint: "Anchor-4" 294 0 basechar 0
LayerCount: 2
Fore
SplineSet
555 260 m 0,1,2
 555 130 555 130 487 60 c 128,-1,3
 419 -10 419 -10 294 -10 c 0,4,5
 218 -10 218 -10 167 15 c 1,6,-1
 129 -36 l 1,7,-1
 60 16 l 1,8,-1
 97 66 l 1,9,10
 34 135 34 135 34 260 c 0,11,12
 34 390 34 390 101.5 460 c 128,-1,13
 169 530 169 530 294 530 c 0,14,15
 369 530 369 530 422 505 c 1,16,-1
 460 556 l 1,17,-1
 529 504 l 1,18,-1
 492 454 l 1,19,0
 555 385 555 385 555 260 c 0,1,2
181 180 m 1,21,-1
 352 411 l 1,22,23
 328 423 328 423 294 423 c 0,24,25
 233 423 233 423 202 382 c 128,-1,26
 171 341 171 341 171 260 c 0,27,20
 171 211 171 211 181 180 c 1,21,-1
417 260 m 0,29,30
 417 308 417 308 407 339 c 1,31,-1
 237 109 l 1,32,33
 261 97 261 97 294 97 c 0,34,28
 417 97 417 97 417 260 c 0,29,30
EndSplineSet
EndChar

StartChar: oe
Encoding: 339 339 337
Width: 950
Flags: W
LayerCount: 2
Fore
SplineSet
915 210 m 1,1,-1
 553 210 l 1,2,3
 559 151 559 151 596 123 c 128,-1,4
 633 95 633 95 705 95 c 0,5,6
 744 95 744 95 784 103 c 128,-1,7
 824 111 824 111 857 126 c 1,8,-1
 881 27 l 1,9,10
 843 10 843 10 794.5 0 c 128,-1,11
 746 -10 746 -10 697 -10 c 0,12,13
 559 -10 559 -10 487 62 c 1,14,15
 420 -10 420 -10 294 -10 c 0,16,17
 169 -10 169 -10 101.5 60 c 128,-1,18
 34 130 34 130 34 260 c 256,19,20
 34 390 34 390 101.5 460 c 128,-1,21
 169 530 169 530 294 530 c 256,22,23
 419 530 419 530 485 459 c 1,24,25
 553 530 553 530 673 530 c 0,26,27
 791 530 791 530 854.5 461 c 128,-1,28
 918 392 918 392 918 263 c 0,29,0
 918 228 918 228 915 210 c 1,1,-1
588.5 399.5 m 128,-1,31
 559 369 559 369 553 305 c 1,32,-1
 789 305 l 1,33,34
 784 370 784 370 756 400 c 128,-1,35
 728 430 728 430 673 430 c 256,36,30
 618 430 618 430 588.5 399.5 c 128,-1,31
417 260 m 256,38,39
 417 423 417 423 294 423 c 0,40,41
 233 423 233 423 202 382 c 128,-1,42
 171 341 171 341 171 260 c 256,43,44
 171 179 171 179 202 138 c 128,-1,45
 233 97 233 97 294 97 c 0,46,37
 417 97 417 97 417 260 c 256,38,39
EndSplineSet
EndChar

StartChar: p
Encoding: 112 112 338
Width: 606
Flags: W
LayerCount: 2
Fore
SplineSet
520.5 460.5 m 128,-1,1
 572 391 572 391 572 260 c 256,2,3
 572 129 572 129 520.5 59.5 c 128,-1,4
 469 -10 469 -10 372 -10 c 0,5,6
 321 -10 321 -10 279 9.5 c 128,-1,7
 237 29 237 29 207 67 c 1,8,-1
 205 67 l 1,9,-1
 205 -220 l 1,10,-1
 68 -220 l 1,11,-1
 68 520 l 1,12,-1
 198 520 l 1,13,-1
 200 453 l 1,14,-1
 202 453 l 1,15,16
 234 491 234 491 277.5 510.5 c 128,-1,17
 321 530 321 530 372 530 c 0,18,0
 469 530 469 530 520.5 460.5 c 128,-1,1
407 142.5 m 128,-1,20
 436 185 436 185 436 260 c 256,21,22
 436 335 436 335 407 377.5 c 128,-1,23
 378 420 378 420 326 420 c 256,24,25
 274 420 274 420 239.5 380 c 128,-1,26
 205 340 205 340 205 279 c 2,27,-1
 205 241 l 2,28,29
 205 180 205 180 239.5 140 c 128,-1,30
 274 100 274 100 326 100 c 256,31,19
 378 100 378 100 407 142.5 c 128,-1,20
EndSplineSet
EndChar

StartChar: thorn
Encoding: 254 254 339
Width: 609
Flags: W
LayerCount: 2
Fore
SplineSet
520.5 460.5 m 128,-1,1
 572 391 572 391 572 260 c 256,2,3
 572 129 572 129 520.5 59.5 c 128,-1,4
 469 -10 469 -10 372 -10 c 0,5,6
 321 -10 321 -10 279 9.5 c 128,-1,7
 237 29 237 29 207 67 c 1,8,-1
 205 67 l 1,9,-1
 205 -220 l 1,10,-1
 68 -220 l 1,11,-1
 68 750 l 1,12,-1
 205 750 l 1,13,-1
 205 453 l 1,14,-1
 207 453 l 1,15,16
 237 491 237 491 279 510.5 c 128,-1,17
 321 530 321 530 372 530 c 0,18,0
 469 530 469 530 520.5 460.5 c 128,-1,1
407 142.5 m 128,-1,20
 436 185 436 185 436 260 c 256,21,22
 436 335 436 335 407 377.5 c 128,-1,23
 378 420 378 420 326 420 c 256,24,25
 274 420 274 420 239.5 380 c 128,-1,26
 205 340 205 340 205 279 c 2,27,-1
 205 241 l 2,28,29
 205 180 205 180 239.5 140 c 128,-1,30
 274 100 274 100 326 100 c 256,31,19
 378 100 378 100 407 142.5 c 128,-1,20
EndSplineSet
EndChar

StartChar: q
Encoding: 113 113 340
Width: 606
Flags: W
LayerCount: 2
Fore
SplineSet
538 520 m 1,0,-1
 538 -220 l 1,1,-1
 401 -220 l 1,2,-1
 401 67 l 1,3,-1
 399 67 l 1,4,5
 369 29 369 29 327 9.5 c 128,-1,6
 285 -10 285 -10 234 -10 c 0,7,8
 137 -10 137 -10 85.5 59.5 c 128,-1,9
 34 129 34 129 34 260 c 256,10,11
 34 391 34 391 85.5 460.5 c 128,-1,12
 137 530 137 530 234 530 c 0,13,14
 285 530 285 530 328.5 510.5 c 128,-1,15
 372 491 372 491 404 453 c 1,16,-1
 406 453 l 1,17,-1
 408 520 l 1,18,-1
 538 520 l 1,0,-1
366.5 140 m 128,-1,20
 401 180 401 180 401 241 c 2,21,-1
 401 279 l 2,22,23
 401 340 401 340 366.5 380 c 128,-1,24
 332 420 332 420 280 420 c 256,25,26
 228 420 228 420 199 377.5 c 128,-1,27
 170 335 170 335 170 260 c 256,28,29
 170 185 170 185 199 142.5 c 128,-1,30
 228 100 228 100 280 100 c 256,31,19
 332 100 332 100 366.5 140 c 128,-1,20
EndSplineSet
EndChar

StartChar: r
Encoding: 114 114 341
Width: 456
GlyphClass: 2
Flags: W
AnchorPoint: "Anchor-6" 240 520 basechar 0
AnchorPoint: "Anchor-4" 240 0 basechar 0
LayerCount: 2
Fore
SplineSet
305 502 m 128,-1,1
 366 530 366 530 438 530 c 1,2,-1
 438 413 l 1,3,4
 375 413 375 413 321.5 390 c 128,-1,5
 268 367 268 367 237 327 c 128,-1,6
 206 287 206 287 206 240 c 2,7,-1
 206 0 l 1,8,-1
 68 0 l 1,9,-1
 68 520 l 1,10,-1
 200 520 l 1,11,-1
 201 423 l 1,12,-1
 203 423 l 1,13,0
 244 474 244 474 305 502 c 128,-1,1
EndSplineSet
EndChar

StartChar: s
Encoding: 115 115 347
Width: 511
GlyphClass: 2
Flags: W
AnchorPoint: "Anchor-6" 256 520 basechar 0
AnchorPoint: "Anchor-4" 256 0 basechar 0
LayerCount: 2
Fore
SplineSet
140 1 m 128,-1,1
 82 12 82 12 34 32 c 1,2,-1
 68 133 l 1,3,4
 156 97 156 97 239 97 c 0,5,6
 289 97 289 97 313 109.5 c 128,-1,7
 337 122 337 122 337 148 c 0,8,9
 337 171 337 171 318 183.5 c 128,-1,10
 299 196 299 196 242 210 c 0,11,12
 130 238 130 238 83.5 276.5 c 128,-1,13
 37 315 37 315 37 380 c 0,14,15
 37 453 37 453 92 491.5 c 128,-1,16
 147 530 147 530 253 530 c 0,17,18
 304 530 304 530 360.5 520.5 c 128,-1,19
 417 511 417 511 465 494 c 1,20,-1
 431 393 l 1,21,22
 347 425 347 425 272 425 c 0,23,24
 177 425 177 425 177 379 c 0,25,26
 177 356 177 356 196 343.5 c 128,-1,27
 215 331 215 331 269 318 c 0,28,29
 376 294 376 294 426.5 252.5 c 128,-1,30
 477 211 477 211 477 147 c 0,31,32
 477 72 477 72 419 31 c 128,-1,33
 361 -10 361 -10 257 -10 c 0,34,0
 198 -10 198 -10 140 1 c 128,-1,1
EndSplineSet
EndChar

StartChar: scedilla
Encoding: 351 351 350
Width: 511
GlyphClass: 2
Flags: W
AnchorPoint: "Anchor-6" 256 520 basechar 0
AnchorPoint: "Anchor-4" 256 0 basechar 0
LayerCount: 2
Fore
SplineSet
446 56 m 128,-1,1
 415 19 415 19 356 2 c 1,2,3
 405 -48 405 -48 405 -102 c 0,4,5
 405 -157 405 -157 358.5 -187.5 c 128,-1,6
 312 -218 312 -218 226 -218 c 0,7,8
 161 -218 161 -218 107 -197 c 1,9,-1
 124 -96 l 1,10,11
 168 -115 168 -115 216 -115 c 0,12,13
 246 -115 246 -115 262 -106 c 128,-1,14
 278 -97 278 -97 278 -81 c 0,15,16
 278 -48 278 -48 212 -8 c 1,17,18
 114 -2 114 -2 34 32 c 1,19,-1
 68 133 l 1,20,21
 156 97 156 97 239 97 c 0,22,23
 289 97 289 97 313 109.5 c 128,-1,24
 337 122 337 122 337 148 c 0,25,26
 337 171 337 171 318 183.5 c 128,-1,27
 299 196 299 196 242 210 c 0,28,29
 130 238 130 238 83.5 276.5 c 128,-1,30
 37 315 37 315 37 380 c 0,31,32
 37 453 37 453 92 491.5 c 128,-1,33
 147 530 147 530 253 530 c 0,34,35
 304 530 304 530 360.5 520.5 c 128,-1,36
 417 511 417 511 465 494 c 1,37,-1
 431 393 l 1,38,39
 347 425 347 425 272 425 c 0,40,41
 177 425 177 425 177 379 c 0,42,43
 177 356 177 356 196 343.5 c 128,-1,44
 215 331 215 331 269 318 c 0,45,46
 376 294 376 294 426.5 252.5 c 128,-1,47
 477 211 477 211 477 147 c 0,48,0
 477 93 477 93 446 56 c 128,-1,1
EndSplineSet
Substitution2: "'locl' Localized Forms in Latin lookup 4 subtable" uni0219
Substitution2: "'aalt' Access All Alternates in Latin lookup 0 subtable" uni0219
EndChar

StartChar: germandbls
Encoding: 223 223 353
Width: 615
Flags: W
LayerCount: 2
Fore
SplineSet
255 5 m 1,1,-1
 268 120 l 1,2,3
 323 105 323 105 357 105 c 0,4,5
 396 105 396 105 418.5 122 c 128,-1,6
 441 139 441 139 441 168 c 0,7,8
 441 188 441 188 425.5 211 c 128,-1,9
 410 234 410 234 359 291 c 0,10,11
 327 328 327 328 314.5 349.5 c 128,-1,12
 302 371 302 371 302 390 c 0,13,14
 302 407 302 407 313 427 c 128,-1,15
 324 447 324 447 353 484 c 0,16,17
 387 526 387 526 401 551.5 c 128,-1,18
 415 577 415 577 415 595 c 0,19,20
 415 620 415 620 391 631.5 c 128,-1,21
 367 643 367 643 315 643 c 0,22,23
 270 643 270 643 247 633.5 c 128,-1,24
 224 624 224 624 214.5 600 c 128,-1,25
 205 576 205 576 205 529 c 2,26,-1
 205 0 l 1,27,-1
 68 0 l 1,28,-1
 68 532 l 2,29,30
 68 650 68 650 126.5 705 c 128,-1,31
 185 760 185 760 309 760 c 0,32,33
 421 760 421 760 485 719 c 128,-1,34
 549 678 549 678 549 607 c 0,35,36
 549 577 549 577 535 547 c 128,-1,37
 521 517 521 517 485 468 c 0,38,39
 457 429 457 429 448 413.5 c 128,-1,40
 439 398 439 398 439 391 c 0,41,42
 439 382 439 382 451.5 364.5 c 128,-1,43
 464 347 464 347 495 312 c 0,44,45
 541 260 541 260 559 224.5 c 128,-1,46
 577 189 577 189 577 150 c 0,47,48
 577 75 577 75 525 32.5 c 128,-1,49
 473 -10 473 -10 380 -10 c 0,50,0
 326 -10 326 -10 255 5 c 1,1,-1
EndSplineSet
EndChar

StartChar: t
Encoding: 116 116 354
Width: 498
GlyphClass: 2
Flags: W
AnchorPoint: "Anchor-8" 234 0 basechar 0
AnchorPoint: "Anchor-7" 481 520 basechar 0
AnchorPoint: "Anchor-6" 250 520 basechar 0
AnchorPoint: "Anchor-4" 250 0 basechar 0
LayerCount: 2
Fore
SplineSet
174.5 30.5 m 128,-1,1
 135 71 135 71 135 167 c 2,2,-1
 135 413 l 1,3,-1
 17 413 l 1,4,-1
 17 520 l 1,5,-1
 135 520 l 1,6,-1
 135 710 l 1,7,-1
 273 710 l 1,8,-1
 273 520 l 1,9,-1
 444 520 l 1,10,-1
 444 413 l 1,11,-1
 273 413 l 1,12,-1
 273 188 l 2,13,14
 273 136 273 136 288 117 c 128,-1,15
 303 98 303 98 344 98 c 0,16,17
 384 98 384 98 429 113 c 1,18,-1
 446 9 l 1,19,20
 376 -10 376 -10 308 -10 c 0,21,0
 214 -10 214 -10 174.5 30.5 c 128,-1,1
EndSplineSet
EndChar

StartChar: tbar
Encoding: 359 359 355
Width: 490
GlyphClass: 2
Flags: W
AnchorPoint: "Anchor-8" 234 0 basechar 0
AnchorPoint: "Anchor-7" 481 520 basechar 0
AnchorPoint: "Anchor-6" 250 520 basechar 0
AnchorPoint: "Anchor-4" 250 0 basechar 0
LayerCount: 2
Fore
SplineSet
446 9 m 1,0,1
 376 -10 376 -10 308 -10 c 0,2,3
 214 -10 214 -10 174.5 30.5 c 128,-1,4
 135 71 135 71 135 167 c 2,5,-1
 135 197 l 1,6,-1
 17 197 l 1,7,-1
 17 303 l 1,8,-1
 135 303 l 1,9,-1
 135 413 l 1,10,-1
 17 413 l 1,11,-1
 17 520 l 1,12,-1
 135 520 l 1,13,-1
 135 710 l 1,14,-1
 273 710 l 1,15,-1
 273 520 l 1,16,-1
 444 520 l 1,17,-1
 444 413 l 1,18,-1
 273 413 l 1,19,-1
 273 303 l 1,20,-1
 437 303 l 1,21,-1
 437 197 l 1,22,-1
 273 197 l 1,23,-1
 273 188 l 2,24,25
 273 136 273 136 288 117 c 128,-1,26
 303 98 303 98 344 98 c 0,27,28
 384 98 384 98 429 113 c 1,29,-1
 446 9 l 1,0,1
EndSplineSet
EndChar

StartChar: uni0163
Encoding: 355 355 357
Width: 498
GlyphClass: 2
Flags: W
AnchorPoint: "Anchor-8" 234 0 basechar 0
AnchorPoint: "Anchor-7" 481 520 basechar 0
AnchorPoint: "Anchor-6" 250 520 basechar 0
AnchorPoint: "Anchor-4" 250 0 basechar 0
LayerCount: 2
Fore
SplineSet
398 -2 m 1,0,1
 442 -51 442 -51 442 -102 c 0,2,3
 442 -157 442 -157 395.5 -187.5 c 128,-1,4
 349 -218 349 -218 263 -218 c 0,5,6
 198 -218 198 -218 145 -197 c 1,7,-1
 161 -96 l 1,8,9
 207 -115 207 -115 253 -115 c 0,10,11
 283 -115 283 -115 299 -106 c 128,-1,12
 315 -97 315 -97 315 -81 c 0,13,14
 315 -45 315 -45 242 -4 c 1,15,16
 185 9 185 9 160 49.5 c 128,-1,17
 135 90 135 90 135 167 c 2,18,-1
 135 413 l 1,19,-1
 17 413 l 1,20,-1
 17 520 l 1,21,-1
 135 520 l 1,22,-1
 135 710 l 1,23,-1
 273 710 l 1,24,-1
 273 520 l 1,25,-1
 444 520 l 1,26,-1
 444 413 l 1,27,-1
 273 413 l 1,28,-1
 273 188 l 2,29,30
 273 136 273 136 288 117 c 128,-1,31
 303 98 303 98 344 98 c 0,32,33
 384 98 384 98 429 113 c 1,34,-1
 446 9 l 1,35,-1
 398 -2 l 1,0,1
EndSplineSet
Substitution2: "'locl' Localized Forms in Latin lookup 4 subtable" uni021B
Substitution2: "'aalt' Access All Alternates in Latin lookup 0 subtable" uni021B
EndChar

StartChar: u
Encoding: 117 117 359
Width: 598
GlyphClass: 2
Flags: W
AnchorPoint: "Anchor-7" 511 480 basechar 0
AnchorPoint: "Anchor-6" 299 520 basechar 0
AnchorPoint: "Anchor-5" 531 0 basechar 0
AnchorPoint: "Anchor-4" 299 0 basechar 0
LayerCount: 2
Fore
SplineSet
531 520 m 1,0,-1
 531 0 l 1,1,-1
 401 0 l 1,2,-1
 399 71 l 1,3,-1
 397 71 l 1,4,5
 331 -10 331 -10 225 -10 c 0,6,7
 140 -10 140 -10 100.5 40.5 c 128,-1,8
 61 91 61 91 61 200 c 2,9,-1
 61 520 l 1,10,-1
 198 520 l 1,11,-1
 198 226 l 2,12,13
 198 161 198 161 215 132 c 128,-1,14
 232 103 232 103 269 103 c 0,15,16
 301 103 301 103 330 122.5 c 128,-1,17
 359 142 359 142 376.5 174.5 c 128,-1,18
 394 207 394 207 394 244 c 2,19,-1
 394 520 l 1,20,-1
 531 520 l 1,0,-1
EndSplineSet
EndChar

StartChar: uhorn
Encoding: 432 432 368
Width: 705
GlyphClass: 2
Flags: W
AnchorPoint: "Anchor-7" 756 628 basechar 0
AnchorPoint: "Anchor-6" 299 520 basechar 0
AnchorPoint: "Anchor-5" 531 0 basechar 0
AnchorPoint: "Anchor-4" 299 0 basechar 0
LayerCount: 2
Fore
SplineSet
743 502 m 0,1,2
 743 427 743 427 707 386 c 128,-1,3
 671 345 671 345 605 345 c 0,4,5
 567 345 567 345 531 358 c 1,6,-1
 531 0 l 1,7,-1
 401 0 l 1,8,-1
 399 71 l 1,9,-1
 397 71 l 1,10,11
 331 -10 331 -10 225 -10 c 0,12,13
 140 -10 140 -10 100.5 40.5 c 128,-1,14
 61 91 61 91 61 200 c 2,15,-1
 61 520 l 1,16,-1
 198 520 l 1,17,-1
 198 226 l 2,18,19
 198 161 198 161 215 132 c 128,-1,20
 232 103 232 103 269 103 c 0,21,22
 301 103 301 103 330 122.5 c 128,-1,23
 359 142 359 142 376.5 174.5 c 128,-1,24
 394 207 394 207 394 244 c 2,25,-1
 394 520 l 1,26,-1
 531 520 l 1,27,-1
 531 461 l 1,28,29
 543 455 543 455 558 455 c 0,30,31
 582 455 582 455 595.5 471.5 c 128,-1,32
 609 488 609 488 609 517 c 0,33,34
 609 540 609 540 602.5 573.5 c 128,-1,35
 596 607 596 607 587 628 c 1,36,-1
 722 628 l 1,37,0
 743 568 743 568 743 502 c 0,1,2
EndSplineSet
EndChar

StartChar: uogonek
Encoding: 371 371 377
Width: 598
GlyphClass: 2
Flags: W
AnchorPoint: "Anchor-7" 511 480 basechar 0
AnchorPoint: "Anchor-6" 299 520 basechar 0
AnchorPoint: "Anchor-5" 531 0 basechar 0
AnchorPoint: "Anchor-4" 299 0 basechar 0
LayerCount: 2
Fore
SplineSet
621 -197 m 1,0,1
 568 -218 568 -218 503 -218 c 0,2,3
 417 -218 417 -218 370.5 -187.5 c 128,-1,4
 324 -157 324 -157 324 -102 c 0,5,6
 324 -68 324 -68 342.5 -36.5 c 128,-1,7
 361 -5 361 -5 400 28 c 1,8,-1
 399 71 l 1,9,-1
 397 71 l 1,10,11
 331 -10 331 -10 225 -10 c 0,12,13
 140 -10 140 -10 100.5 40.5 c 128,-1,14
 61 91 61 91 61 200 c 2,15,-1
 61 520 l 1,16,-1
 198 520 l 1,17,-1
 198 226 l 2,18,19
 198 161 198 161 215 132 c 128,-1,20
 232 103 232 103 269 103 c 0,21,22
 301 103 301 103 330 122.5 c 128,-1,23
 359 142 359 142 376.5 174.5 c 128,-1,24
 394 207 394 207 394 244 c 2,25,-1
 394 520 l 1,26,-1
 531 520 l 1,27,-1
 531 0 l 1,28,29
 450 -44 450 -44 450 -81 c 0,30,31
 450 -98 450 -98 466 -106.5 c 128,-1,32
 482 -115 482 -115 513 -115 c 0,33,34
 559 -115 559 -115 605 -96 c 1,35,-1
 621 -197 l 1,0,1
EndSplineSet
EndChar

StartChar: v
Encoding: 118 118 380
Width: 552
Flags: W
LayerCount: 2
Fore
SplineSet
8 520 m 1,0,-1
 154 520 l 1,1,-1
 275 92 l 1,2,-1
 277 92 l 1,3,-1
 398 520 l 1,4,-1
 544 520 l 1,5,-1
 372 0 l 1,6,-1
 180 0 l 1,7,-1
 8 520 l 1,0,-1
EndSplineSet
EndChar

StartChar: w
Encoding: 119 119 381
Width: 804
GlyphClass: 2
Flags: W
AnchorPoint: "Anchor-6" 402 520 basechar 0
AnchorPoint: "Anchor-4" 402 0 basechar 0
LayerCount: 2
Fore
SplineSet
21 520 m 1,0,-1
 164 520 l 1,1,-1
 237 127 l 1,2,-1
 239 127 l 1,3,-1
 314 520 l 1,4,-1
 490 520 l 1,5,-1
 565 127 l 1,6,-1
 567 127 l 1,7,-1
 640 520 l 1,8,-1
 783 520 l 1,9,-1
 649 0 l 1,10,-1
 477 0 l 1,11,-1
 403 387 l 1,12,-1
 401 387 l 1,13,-1
 327 0 l 1,14,-1
 155 0 l 1,15,-1
 21 520 l 1,0,-1
EndSplineSet
EndChar

StartChar: x
Encoding: 120 120 386
Width: 566
Flags: W
LayerCount: 2
Fore
SplineSet
186 261 m 1,0,-1
 34 520 l 1,1,-1
 184 520 l 1,2,-1
 282 333 l 1,3,-1
 284 333 l 1,4,-1
 382 520 l 1,5,-1
 532 520 l 1,6,-1
 380 261 l 1,7,-1
 535 0 l 1,8,-1
 385 0 l 1,9,-1
 284 189 l 1,10,-1
 282 189 l 1,11,-1
 181 0 l 1,12,-1
 31 0 l 1,13,-1
 186 261 l 1,0,-1
EndSplineSet
EndChar

StartChar: y
Encoding: 121 121 387
Width: 554
GlyphClass: 2
Flags: W
AnchorPoint: "Anchor-6" 277 520 basechar 0
AnchorPoint: "Anchor-4" 277 0 basechar 0
LayerCount: 2
Fore
SplineSet
400 520 m 1,0,-1
 550 520 l 1,1,-1
 265 -220 l 1,2,-1
 119 -220 l 1,3,-1
 214 -14 l 1,4,-1
 6 520 l 1,5,-1
 156 520 l 1,6,-1
 277 135 l 1,7,-1
 279 135 l 1,8,-1
 400 520 l 1,0,-1
EndSplineSet
EndChar

StartChar: z
Encoding: 122 122 396
Width: 544
GlyphClass: 2
Flags: W
AnchorPoint: "Anchor-6" 272 520 basechar 0
AnchorPoint: "Anchor-4" 272 0 basechar 0
LayerCount: 2
Fore
SplineSet
54 107 m 1,0,-1
 317 411 l 1,1,-1
 317 413 l 1,2,-1
 54 413 l 1,3,-1
 54 520 l 1,4,-1
 490 520 l 1,5,-1
 490 413 l 1,6,-1
 227 109 l 1,7,-1
 227 107 l 1,8,-1
 490 107 l 1,9,-1
 490 0 l 1,10,-1
 54 0 l 1,11,-1
 54 107 l 1,0,-1
EndSplineSet
EndChar

StartChar: f_f
Encoding: 1114114 -1 400
Width: 863
GlyphClass: 3
Flags: W
LayerCount: 2
Fore
SplineSet
678 520 m 1,0,-1
 834 520 l 1,1,-1
 834 413 l 1,2,-1
 678 413 l 1,3,-1
 678 0 l 1,4,-1
 538 0 l 1,5,-1
 538 413 l 1,6,-1
 291 413 l 1,7,-1
 291 0 l 1,8,-1
 152 0 l 1,9,-1
 152 413 l 1,10,-1
 21 413 l 1,11,-1
 21 520 l 1,12,-1
 152 520 l 1,13,-1
 152 563 l 2,14,15
 152 760 152 760 336 760 c 0,16,17
 391 760 391 760 456 745 c 1,18,-1
 437 640 l 1,19,20
 393 653 393 653 359 653 c 0,21,22
 320 653 320 653 305.5 634 c 128,-1,23
 291 615 291 615 291 563 c 2,24,-1
 291 520 l 1,25,-1
 538 520 l 1,26,-1
 538 563 l 2,27,28
 538 760 538 760 722 760 c 0,29,30
 777 760 777 760 842 745 c 1,31,-1
 823 640 l 1,32,33
 781 653 781 653 745 653 c 0,34,35
 707 653 707 653 692.5 634 c 128,-1,36
 678 615 678 615 678 563 c 2,37,-1
 678 520 l 1,0,-1
EndSplineSet
Ligature2: "'liga' Standard Ligatures in Latin lookup 14 subtable" f f
EndChar

StartChar: ordfeminine
Encoding: 170 170 405
Width: 456
Flags: W
LayerCount: 2
Fore
SplineSet
360 699.5 m 128,-1,1
 401 661 401 661 401 573 c 2,2,-1
 401 314 l 1,3,-1
 282 314 l 1,4,-1
 281 358 l 1,5,-1
 279 358 l 1,6,7
 259 334 259 334 227 320 c 128,-1,8
 195 306 195 306 159 306 c 0,9,10
 99 306 99 306 62 342 c 128,-1,11
 25 378 25 378 25 435 c 0,12,13
 25 507 25 507 86.5 546 c 128,-1,14
 148 585 148 585 261 585 c 2,15,-1
 276 585 l 1,16,17
 274 622 274 622 259.5 636 c 128,-1,18
 245 650 245 650 208 650 c 0,19,20
 134 650 134 650 60 613 c 1,21,-1
 43 701 l 1,22,23
 129 738 129 738 225 738 c 0,24,0
 319 738 319 738 360 699.5 c 128,-1,1
253 418.5 m 128,-1,26
 276 439 276 439 276 473 c 2,27,-1
 276 506 l 1,28,-1
 251 506 l 2,29,30
 190 506 190 506 161 491.5 c 128,-1,31
 132 477 132 477 132 446 c 0,32,33
 132 423 132 423 148 410.5 c 128,-1,34
 164 398 164 398 193 398 c 0,35,25
 230 398 230 398 253 418.5 c 128,-1,26
EndSplineSet
EndChar

StartChar: ordmasculine
Encoding: 186 186 406
Width: 477
Flags: W
LayerCount: 2
Fore
SplineSet
84 362 m 128,-1,1
 30 418 30 418 30 522 c 256,2,3
 30 626 30 626 84 682 c 128,-1,4
 138 738 138 738 238 738 c 256,5,6
 338 738 338 738 392 682 c 128,-1,7
 446 626 446 626 446 522 c 256,8,9
 446 418 446 418 392 362 c 128,-1,10
 338 306 338 306 238 306 c 256,11,0
 138 306 138 306 84 362 c 128,-1,1
322 522 m 256,13,14
 322 643 322 643 238 643 c 0,15,16
 155 643 155 643 155 522 c 256,17,18
 155 401 155 401 238 401 c 0,19,12
 322 401 322 401 322 522 c 256,13,14
EndSplineSet
EndChar

StartChar: zero.lf
Encoding: 1114118 -1 427
Width: 640
Flags: W
LayerCount: 2
Fore
SplineSet
106 82 m 128,-1,1
 37 174 37 174 37 365 c 256,2,3
 37 556 37 556 106 648 c 128,-1,4
 175 740 175 740 320 740 c 256,5,6
 465 740 465 740 534 648 c 128,-1,7
 603 556 603 556 603 365 c 256,8,9
 603 174 603 174 534 82 c 128,-1,10
 465 -10 465 -10 320 -10 c 256,11,0
 175 -10 175 -10 106 82 c 128,-1,1
426.5 173.5 m 128,-1,13
 460 234 460 234 460 365 c 256,14,15
 460 496 460 496 426.5 556.5 c 128,-1,16
 393 617 393 617 320 617 c 256,17,18
 247 617 247 617 213.5 556.5 c 128,-1,19
 180 496 180 496 180 365 c 256,20,21
 180 234 180 234 213.5 173.5 c 128,-1,22
 247 113 247 113 320 113 c 256,23,12
 393 113 393 113 426.5 173.5 c 128,-1,13
EndSplineSet
Substitution2: "'tnum' Tabular Numbers in Latin lookup 11 subtable" zero
AlternateSubs2: "'aalt' Access All Alternates in Latin lookup 1 subtable" zero
EndChar

StartChar: one.lf
Encoding: 1114119 -1 428
Width: 640
Flags: W
LayerCount: 2
Fore
SplineSet
308 552 m 1,0,-1
 306 552 l 1,1,-1
 104 366 l 1,2,-1
 42 482 l 1,3,-1
 305 730 l 1,4,-1
 452 730 l 1,5,-1
 452 0 l 1,6,-1
 308 0 l 1,7,-1
 308 552 l 1,0,-1
EndSplineSet
Substitution2: "'tnum' Tabular Numbers in Latin lookup 11 subtable" one
AlternateSubs2: "'aalt' Access All Alternates in Latin lookup 1 subtable" one
EndChar

StartChar: two.lf
Encoding: 1114120 -1 429
Width: 640
Flags: W
LayerCount: 2
Fore
SplineSet
271.5 291 m 128,-1,1
 345 361 345 361 378.5 414 c 128,-1,2
 412 467 412 467 412 513 c 0,3,4
 412 562 412 562 380.5 589.5 c 128,-1,5
 349 617 349 617 294 617 c 0,6,7
 208 617 208 617 97 541 c 1,8,-1
 54 659 l 1,9,10
 103 696 103 696 173.5 718 c 128,-1,11
 244 740 244 740 314 740 c 0,12,13
 387 740 387 740 442 714 c 128,-1,14
 497 688 497 688 526.5 639.5 c 128,-1,15
 556 591 556 591 556 527 c 0,16,17
 556 433 556 433 489 337.5 c 128,-1,18
 422 242 422 242 273 124 c 1,19,-1
 273 122 l 1,20,-1
 562 122 l 1,21,-1
 562 0 l 1,22,-1
 72 0 l 1,23,-1
 72 122 l 1,24,0
 198 221 198 221 271.5 291 c 128,-1,1
EndSplineSet
Substitution2: "'tnum' Tabular Numbers in Latin lookup 11 subtable" two
AlternateSubs2: "'aalt' Access All Alternates in Latin lookup 1 subtable" two
EndChar

StartChar: three.lf
Encoding: 1114121 -1 430
Width: 640
Flags: W
LayerCount: 2
Fore
SplineSet
62 49 m 1,1,-1
 103 160 l 1,2,3
 150 134 150 134 192 122 c 128,-1,4
 234 110 234 110 277 110 c 0,5,6
 346 110 346 110 381.5 139 c 128,-1,7
 417 168 417 168 417 224 c 0,8,9
 417 262 417 262 399 283.5 c 128,-1,10
 381 305 381 305 340 315 c 128,-1,11
 299 325 299 325 228 325 c 2,12,-1
 175 325 l 1,13,-1
 175 437 l 1,14,-1
 373 608 l 1,15,-1
 373 610 l 1,16,-1
 75 610 l 1,17,-1
 75 730 l 1,18,-1
 550 730 l 1,19,-1
 550 609 l 1,20,-1
 347 435 l 1,21,-1
 347 433 l 1,22,-1
 355 433 l 2,23,24
 454 433 454 433 507 380 c 128,-1,25
 560 327 560 327 560 227 c 0,26,27
 560 114 560 114 490 52 c 128,-1,28
 420 -10 420 -10 290 -10 c 0,29,0
 166 -10 166 -10 62 49 c 1,1,-1
EndSplineSet
Substitution2: "'tnum' Tabular Numbers in Latin lookup 11 subtable" three
AlternateSubs2: "'aalt' Access All Alternates in Latin lookup 1 subtable" three
EndChar

StartChar: four.lf
Encoding: 1114122 -1 431
Width: 640
Flags: W
LayerCount: 2
Fore
SplineSet
355 142 m 1,0,-1
 15 142 l 1,1,-1
 15 264 l 1,2,-1
 355 730 l 1,3,-1
 495 730 l 1,4,-1
 495 264 l 1,5,-1
 602 264 l 1,6,-1
 602 142 l 1,7,-1
 495 142 l 1,8,-1
 495 0 l 1,9,-1
 355 0 l 1,10,-1
 355 142 l 1,0,-1
358 260 m 1,11,-1
 358 530 l 1,12,-1
 356 530 l 1,13,-1
 162 262 l 1,14,-1
 162 260 l 1,15,-1
 358 260 l 1,11,-1
EndSplineSet
Substitution2: "'tnum' Tabular Numbers in Latin lookup 11 subtable" four
AlternateSubs2: "'aalt' Access All Alternates in Latin lookup 1 subtable" four
EndChar

StartChar: five.lf
Encoding: 1114123 -1 432
Width: 640
Flags: W
LayerCount: 2
Fore
SplineSet
69 36 m 1,1,-1
 104 151 l 1,2,3
 194 110 194 110 272 110 c 0,4,5
 349 110 349 110 389.5 145 c 128,-1,6
 430 180 430 180 430 245 c 0,7,8
 430 300 430 300 401 328.5 c 128,-1,9
 372 357 372 357 317 357 c 0,10,11
 288 357 288 357 264 348 c 128,-1,12
 240 339 240 339 214 317 c 1,13,-1
 90 317 l 1,14,-1
 112 730 l 1,15,-1
 541 730 l 1,16,-1
 541 610 l 1,17,-1
 239 610 l 1,18,-1
 229 447 l 1,19,-1
 231 447 l 1,20,21
 258 461 258 461 281 466.5 c 128,-1,22
 304 472 304 472 336 472 c 0,23,24
 450 472 450 472 512 412 c 128,-1,25
 574 352 574 352 574 242 c 0,26,27
 574 121 574 121 497.5 55.5 c 128,-1,28
 421 -10 421 -10 279 -10 c 0,29,0
 167 -10 167 -10 69 36 c 1,1,-1
EndSplineSet
Substitution2: "'tnum' Tabular Numbers in Latin lookup 11 subtable" five
AlternateSubs2: "'aalt' Access All Alternates in Latin lookup 1 subtable" five
EndChar

StartChar: six.lf
Encoding: 1114124 -1 433
Width: 640
Flags: W
LayerCount: 2
Fore
SplineSet
115.5 60.5 m 128,-1,1
 45 131 45 131 45 265 c 0,2,3
 45 400 45 400 94 503.5 c 128,-1,4
 143 607 143 607 234 668 c 128,-1,5
 325 729 325 729 447 739 c 1,6,-1
 472 622 l 1,7,8
 367 613 367 613 301.5 569.5 c 128,-1,9
 236 526 236 526 206 447 c 1,10,-1
 208 446 l 1,11,12
 241 469 241 469 276 479.5 c 128,-1,13
 311 490 311 490 353 490 c 0,14,15
 466 490 466 490 530.5 424.5 c 128,-1,16
 595 359 595 359 595 245 c 0,17,18
 595 167 595 167 562 109.5 c 128,-1,19
 529 52 529 52 467 21 c 128,-1,20
 405 -10 405 -10 320 -10 c 0,21,0
 186 -10 186 -10 115.5 60.5 c 128,-1,1
419.5 143 m 128,-1,23
 455 179 455 179 455 243 c 0,24,25
 455 308 455 308 420 343 c 128,-1,26
 385 378 385 378 320 378 c 256,27,28
 255 378 255 378 220 343 c 128,-1,29
 185 308 185 308 185 243 c 0,30,31
 185 179 185 179 220.5 143 c 128,-1,32
 256 107 256 107 320 107 c 256,33,22
 384 107 384 107 419.5 143 c 128,-1,23
EndSplineSet
Substitution2: "'tnum' Tabular Numbers in Latin lookup 11 subtable" six
AlternateSubs2: "'aalt' Access All Alternates in Latin lookup 1 subtable" six
EndChar

StartChar: seven.lf
Encoding: 1114125 -1 434
Width: 640
Flags: W
LayerCount: 2
Fore
SplineSet
415 604 m 1,1,-1
 415 607 l 1,2,-1
 72 607 l 1,3,-1
 72 730 l 1,4,-1
 575 730 l 1,5,-1
 575 617 l 1,6,7
 493 478 493 478 430 333 c 128,-1,8
 367 188 367 188 306 0 c 1,9,-1
 150 0 l 1,10,0
 261 335 261 335 415 604 c 1,1,-1
EndSplineSet
Substitution2: "'tnum' Tabular Numbers in Latin lookup 11 subtable" seven
AlternateSubs2: "'aalt' Access All Alternates in Latin lookup 1 subtable" seven
EndChar

StartChar: eight.lf
Encoding: 1114126 -1 435
Width: 640
Flags: W
LayerCount: 2
Fore
SplineSet
113 45.5 m 128,-1,1
 37 101 37 101 37 197 c 0,2,3
 37 258 37 258 72 300.5 c 128,-1,4
 107 343 107 343 182 374 c 1,5,-1
 182 376 l 1,6,7
 125 407 125 407 92.5 455.5 c 128,-1,8
 60 504 60 504 60 559 c 256,9,10
 60 614 60 614 92 654.5 c 128,-1,11
 124 695 124 695 183 717.5 c 128,-1,12
 242 740 242 740 320 740 c 256,13,14
 398 740 398 740 457 717.5 c 128,-1,15
 516 695 516 695 548.5 654 c 128,-1,16
 581 613 581 613 581 559 c 0,17,18
 581 456 581 456 453 392 c 1,19,-1
 453 390 l 1,20,21
 603 331 603 331 603 197 c 0,22,23
 603 100 603 100 528 45 c 128,-1,24
 453 -10 453 -10 320 -10 c 0,25,0
 189 -10 189 -10 113 45.5 c 128,-1,1
410.5 483 m 128,-1,27
 440 510 440 510 440 545 c 0,28,29
 440 583 440 583 408 605 c 128,-1,30
 376 627 376 627 320 627 c 256,31,32
 264 627 264 627 232 605 c 128,-1,33
 200 583 200 583 200 545 c 0,34,35
 200 509 200 509 231 482.5 c 128,-1,36
 262 456 262 456 323 440 c 1,37,26
 381 456 381 456 410.5 483 c 128,-1,27
422 130.5 m 128,-1,39
 460 158 460 158 460 203 c 0,40,41
 460 245 460 245 424 273.5 c 128,-1,42
 388 302 388 302 308 322 c 1,43,44
 180 284 180 284 180 203 c 0,45,46
 180 158 180 158 218 130.5 c 128,-1,47
 256 103 256 103 320 103 c 256,48,38
 384 103 384 103 422 130.5 c 128,-1,39
EndSplineSet
Substitution2: "'tnum' Tabular Numbers in Latin lookup 11 subtable" eight
AlternateSubs2: "'aalt' Access All Alternates in Latin lookup 1 subtable" eight
EndChar

StartChar: nine.lf
Encoding: 1114127 -1 436
Width: 640
Flags: W
LayerCount: 2
Fore
SplineSet
524.5 669.5 m 128,-1,1
 595 599 595 599 595 465 c 0,2,3
 595 330 595 330 546 226.5 c 128,-1,4
 497 123 497 123 406 62 c 128,-1,5
 315 1 315 1 193 -9 c 1,6,-1
 168 108 l 1,7,8
 273 117 273 117 338.5 160.5 c 128,-1,9
 404 204 404 204 434 283 c 1,10,-1
 432 284 l 1,11,12
 399 261 399 261 364 250.5 c 128,-1,13
 329 240 329 240 287 240 c 0,14,15
 174 240 174 240 109.5 305.5 c 128,-1,16
 45 371 45 371 45 485 c 0,17,18
 45 563 45 563 78 620.5 c 128,-1,19
 111 678 111 678 173 709 c 128,-1,20
 235 740 235 740 320 740 c 0,21,0
 454 740 454 740 524.5 669.5 c 128,-1,1
220.5 587 m 128,-1,23
 185 551 185 551 185 487 c 256,24,25
 185 423 185 423 220.5 387.5 c 128,-1,26
 256 352 256 352 320 352 c 0,27,28
 385 352 385 352 420 387 c 128,-1,29
 455 422 455 422 455 487 c 0,30,31
 455 551 455 551 419.5 587 c 128,-1,32
 384 623 384 623 320 623 c 256,33,22
 256 623 256 623 220.5 587 c 128,-1,23
EndSplineSet
Substitution2: "'tnum' Tabular Numbers in Latin lookup 11 subtable" nine
AlternateSubs2: "'aalt' Access All Alternates in Latin lookup 1 subtable" nine
EndChar

StartChar: uni2070
Encoding: 8304 8304 437
Width: 387
Flags: W
LayerCount: 2
Fore
SplineSet
64.5 341 m 128,-1,1
 23 396 23 396 23 511 c 256,2,3
 23 626 23 626 64.5 681 c 128,-1,4
 106 736 106 736 193 736 c 256,5,6
 280 736 280 736 321.5 681 c 128,-1,7
 363 626 363 626 363 511 c 256,8,9
 363 396 363 396 321.5 341 c 128,-1,10
 280 286 280 286 193 286 c 256,11,0
 106 286 106 286 64.5 341 c 128,-1,1
235 415.5 m 128,-1,13
 248 444 248 444 248 511 c 256,14,15
 248 578 248 578 235 606.5 c 128,-1,16
 222 635 222 635 193 635 c 256,17,18
 164 635 164 635 151 606.5 c 128,-1,19
 138 578 138 578 138 511 c 256,20,21
 138 444 138 444 151 415.5 c 128,-1,22
 164 387 164 387 193 387 c 256,23,12
 222 387 222 387 235 415.5 c 128,-1,13
EndSplineSet
EndChar

StartChar: uni00B9
Encoding: 185 185 438
Width: 373
Flags: W
LayerCount: 2
Fore
SplineSet
169 586 m 1,0,-1
 167 586 l 1,1,-1
 64 488 l 1,2,-1
 11 581 l 1,3,-1
 169 730 l 1,4,-1
 286 730 l 1,5,-1
 286 292 l 1,6,-1
 169 292 l 1,7,-1
 169 586 l 1,0,-1
EndSplineSet
EndChar

StartChar: uni00B2
Encoding: 178 178 439
Width: 387
Flags: W
LayerCount: 2
Fore
SplineSet
181 506 m 128,-1,1
 219 547 219 547 219 580 c 0,2,3
 219 606 219 606 202.5 620.5 c 128,-1,4
 186 635 186 635 158 635 c 0,5,6
 113 635 113 635 57 592 c 1,7,-1
 32 691 l 1,8,9
 62 712 62 712 104 724 c 128,-1,10
 146 736 146 736 188 736 c 0,11,12
 258 736 258 736 296 702 c 128,-1,13
 334 668 334 668 334 606 c 0,14,15
 334 552 334 552 302.5 500 c 128,-1,16
 271 448 271 448 206 394 c 1,17,-1
 206 392 l 1,18,-1
 338 392 l 1,19,-1
 338 292 l 1,20,-1
 44 292 l 1,21,-1
 44 392 l 1,22,0
 143 465 143 465 181 506 c 128,-1,1
EndSplineSet
EndChar

StartChar: uni00B3
Encoding: 179 179 440
Width: 387
Flags: W
LayerCount: 2
Fore
SplineSet
35 317 m 1,1,-1
 58 408 l 1,2,3
 85 396 85 396 106 391 c 128,-1,4
 127 386 127 386 150 386 c 0,5,6
 218 386 218 386 218 432 c 0,7,8
 218 455 218 455 197.5 464.5 c 128,-1,9
 177 474 177 474 128 474 c 2,10,-1
 102 474 l 1,11,-1
 102 560 l 1,12,-1
 186 629 l 1,13,-1
 186 631 l 1,14,-1
 42 631 l 1,15,-1
 42 730 l 1,16,-1
 327 730 l 1,17,-1
 327 631 l 1,18,-1
 230 550 l 1,19,-1
 230 548 l 1,20,21
 278 547 278 547 305.5 514.5 c 128,-1,22
 333 482 333 482 333 427 c 0,23,24
 333 360 333 360 291 323 c 128,-1,25
 249 286 249 286 173 286 c 0,26,0
 98 286 98 286 35 317 c 1,1,-1
EndSplineSet
EndChar

StartChar: uni2074
Encoding: 8308 8308 441
Width: 387
Flags: W
LayerCount: 2
Fore
SplineSet
194 363 m 1,0,-1
 5 363 l 1,1,-1
 5 463 l 1,2,-1
 201 730 l 1,3,-1
 307 730 l 1,4,-1
 307 463 l 1,5,-1
 357 463 l 1,6,-1
 357 363 l 1,7,-1
 307 363 l 1,8,-1
 307 292 l 1,9,-1
 194 292 l 1,10,-1
 194 363 l 1,0,-1
201 456 m 1,11,-1
 201 584 l 1,12,-1
 199 584 l 1,13,-1
 107 458 l 1,14,-1
 107 456 l 1,15,-1
 201 456 l 1,11,-1
EndSplineSet
EndChar

StartChar: fraction
Encoding: 8260 8260 442
Width: 534
Flags: W
LayerCount: 2
Fore
SplineSet
404 730 m 1,0,-1
 524 730 l 1,1,-1
 130 0 l 1,2,-1
 10 0 l 1,3,-1
 404 730 l 1,0,-1
EndSplineSet
EndChar

StartChar: onehalf
Encoding: 189 189 443
Width: 904
Flags: W
LayerCount: 2
Fore
SplineSet
176 586 m 1,0,-1
 73 488 l 1,1,-1
 20 581 l 1,2,-1
 178 730 l 1,3,-1
 296 730 l 1,4,-1
 296 292 l 1,5,-1
 178 292 l 1,6,-1
 178 586 l 1,7,-1
 176 586 l 1,0,-1
586 730 m 1,8,-1
 706 730 l 1,9,-1
 313 0 l 1,10,-1
 193 0 l 1,11,-1
 586 730 l 1,8,-1
694 214 m 128,-1,13
 732 255 732 255 732 288 c 0,14,15
 732 314 732 314 715.5 328.5 c 128,-1,16
 699 343 699 343 671 343 c 0,17,18
 626 343 626 343 570 300 c 1,19,-1
 545 399 l 1,20,21
 575 420 575 420 617 432 c 128,-1,22
 659 444 659 444 701 444 c 0,23,24
 771 444 771 444 809 410 c 128,-1,25
 847 376 847 376 847 314 c 0,26,27
 847 260 847 260 815.5 208 c 128,-1,28
 784 156 784 156 719 102 c 1,29,-1
 719 100 l 1,30,-1
 851 100 l 1,31,-1
 851 0 l 1,32,-1
 557 0 l 1,33,-1
 557 100 l 1,34,12
 656 173 656 173 694 214 c 128,-1,13
EndSplineSet
Ligature2: "'frac' Diagonal Fractions in Latin lookup 7 subtable" one slash two
EndChar

StartChar: onequarter
Encoding: 188 188 444
Width: 869
Flags: W
LayerCount: 2
Fore
SplineSet
176 586 m 1,0,-1
 73 488 l 1,1,-1
 20 581 l 1,2,-1
 178 730 l 1,3,-1
 296 730 l 1,4,-1
 296 292 l 1,5,-1
 178 292 l 1,6,-1
 178 586 l 1,7,-1
 176 586 l 1,0,-1
586 730 m 1,8,-1
 706 730 l 1,9,-1
 313 0 l 1,10,-1
 193 0 l 1,11,-1
 586 730 l 1,8,-1
479 71 m 1,12,-1
 479 171 l 1,13,-1
 675 438 l 1,14,-1
 782 438 l 1,15,-1
 782 171 l 1,16,-1
 831 171 l 1,17,-1
 831 71 l 1,18,-1
 782 71 l 1,19,-1
 782 0 l 1,20,-1
 668 0 l 1,21,-1
 668 71 l 1,22,-1
 479 71 l 1,12,-1
675 292 m 1,23,-1
 673 292 l 1,24,-1
 581 166 l 1,25,-1
 581 164 l 1,26,-1
 675 164 l 1,27,-1
 675 292 l 1,23,-1
EndSplineSet
Ligature2: "'frac' Diagonal Fractions in Latin lookup 7 subtable" one slash four
EndChar

StartChar: threequarters
Encoding: 190 190 445
Width: 844
Flags: W
LayerCount: 2
Fore
SplineSet
38 317 m 1,1,-1
 60 408 l 1,2,3
 111 386 111 386 152 386 c 0,4,5
 186 386 186 386 203.5 398 c 128,-1,6
 221 410 221 410 221 432 c 0,7,8
 221 455 221 455 200.5 464.5 c 128,-1,9
 180 474 180 474 131 474 c 2,10,-1
 105 474 l 1,11,-1
 105 560 l 1,12,-1
 188 629 l 1,13,-1
 188 631 l 1,14,-1
 45 631 l 1,15,-1
 45 730 l 1,16,-1
 330 730 l 1,17,-1
 330 631 l 1,18,-1
 232 550 l 1,19,-1
 232 548 l 1,20,21
 281 547 281 547 308.5 514.5 c 128,-1,22
 336 482 336 482 336 427 c 0,23,24
 336 360 336 360 294 323 c 128,-1,25
 252 286 252 286 176 286 c 0,26,0
 101 286 101 286 38 317 c 1,1,-1
562 730 m 1,27,-1
 682 730 l 1,28,-1
 288 0 l 1,29,-1
 168 0 l 1,30,-1
 562 730 l 1,27,-1
455 71 m 1,31,-1
 455 171 l 1,32,-1
 651 438 l 1,33,-1
 757 438 l 1,34,-1
 757 171 l 1,35,-1
 807 171 l 1,36,-1
 807 71 l 1,37,-1
 757 71 l 1,38,-1
 757 0 l 1,39,-1
 644 0 l 1,40,-1
 644 71 l 1,41,-1
 455 71 l 1,31,-1
651 292 m 1,42,-1
 649 292 l 1,43,-1
 557 166 l 1,44,-1
 557 164 l 1,45,-1
 651 164 l 1,46,-1
 651 292 l 1,42,-1
EndSplineSet
Ligature2: "'frac' Diagonal Fractions in Latin lookup 7 subtable" three slash four
EndChar

StartChar: period
Encoding: 46 46 446
Width: 319
Flags: W
LayerCount: 2
Fore
SplineSet
83 153 m 1,0,-1
 236 153 l 1,1,-1
 236 0 l 1,2,-1
 83 0 l 1,3,-1
 83 153 l 1,0,-1
EndSplineSet
EndChar

StartChar: comma
Encoding: 44 44 447
Width: 281
Flags: W
LayerCount: 2
Fore
SplineSet
91 153 m 1,0,-1
 248 153 l 1,1,-1
 141 -147 l 1,2,-1
 25 -147 l 1,3,-1
 91 153 l 1,0,-1
EndSplineSet
EndChar

StartChar: colon
Encoding: 58 58 448
Width: 319
Flags: W
LayerCount: 2
Fore
SplineSet
83 520 m 1,0,-1
 236 520 l 1,1,-1
 236 367 l 1,2,-1
 83 367 l 1,3,-1
 83 520 l 1,0,-1
83 153 m 1,4,-1
 236 153 l 1,5,-1
 236 0 l 1,6,-1
 83 0 l 1,7,-1
 83 153 l 1,4,-1
EndSplineSet
Substitution2: "'aalt' Access All Alternates in Latin lookup 0 subtable" uniFF1A
EndChar

StartChar: semicolon
Encoding: 59 59 449
Width: 335
Flags: W
LayerCount: 2
Fore
SplineSet
99 520 m 1,0,-1
 252 520 l 1,1,-1
 252 367 l 1,2,-1
 99 367 l 1,3,-1
 99 520 l 1,0,-1
103 153 m 1,4,-1
 259 153 l 1,5,-1
 143 -147 l 1,6,-1
 26 -147 l 1,7,-1
 103 153 l 1,4,-1
EndSplineSet
EndChar

StartChar: exclam
Encoding: 33 33 451
Width: 332
Flags: W
LayerCount: 2
Fore
SplineSet
83 730 m 1,0,-1
 249 730 l 1,1,-1
 229 223 l 1,2,-1
 103 223 l 1,3,-1
 83 730 l 1,0,-1
89 143 m 1,4,-1
 243 143 l 1,5,-1
 243 0 l 1,6,-1
 89 0 l 1,7,-1
 89 143 l 1,4,-1
EndSplineSet
Substitution2: "'aalt' Access All Alternates in Latin lookup 0 subtable" uniFF01
EndChar

StartChar: exclamdown
Encoding: 161 161 452
Width: 332
Flags: W
LayerCount: 2
Fore
SplineSet
89 520 m 1,0,-1
 243 520 l 1,1,-1
 243 377 l 1,2,-1
 89 377 l 1,3,-1
 89 520 l 1,0,-1
103 297 m 1,4,-1
 229 297 l 1,5,-1
 249 -210 l 1,6,-1
 83 -210 l 1,7,-1
 103 297 l 1,4,-1
EndSplineSet
EndChar

StartChar: question
Encoding: 63 63 453
Width: 577
Flags: W
LayerCount: 2
Fore
SplineSet
200.5 333 m 128,-1,1
 233 382 233 382 309 437 c 0,2,3
 360 473 360 473 380.5 498 c 128,-1,4
 401 523 401 523 401 550 c 0,5,6
 401 586 401 586 369.5 602 c 128,-1,7
 338 618 338 618 268 618 c 0,8,9
 168 618 168 618 53 581 c 1,10,-1
 26 701 l 1,11,12
 84 720 84 720 152 730 c 128,-1,13
 220 740 220 740 288 740 c 0,14,15
 548 740 548 740 548 570 c 0,16,17
 548 514 548 514 518.5 469.5 c 128,-1,18
 489 425 489 425 419 377 c 0,19,20
 363 339 363 339 336.5 302 c 128,-1,21
 310 265 310 265 308 223 c 1,22,-1
 168 223 l 1,23,0
 168 284 168 284 200.5 333 c 128,-1,1
161 143 m 1,24,-1
 314 143 l 1,25,-1
 314 0 l 1,26,-1
 161 0 l 1,27,-1
 161 143 l 1,24,-1
EndSplineSet
Substitution2: "'aalt' Access All Alternates in Latin lookup 0 subtable" uniFF1F
EndChar

StartChar: questiondown
Encoding: 191 191 454
Width: 577
Flags: W
LayerCount: 2
Fore
SplineSet
263 377 m 1,0,-1
 263 520 l 1,1,-1
 416 520 l 1,2,-1
 416 377 l 1,3,-1
 263 377 l 1,0,-1
376.5 187 m 128,-1,5
 344 138 344 138 268 83 c 0,6,7
 217 47 217 47 196.5 22 c 128,-1,8
 176 -3 176 -3 176 -30 c 0,9,10
 176 -66 176 -66 207.5 -82 c 128,-1,11
 239 -98 239 -98 309 -98 c 0,12,13
 409 -98 409 -98 524 -61 c 1,14,-1
 551 -181 l 1,15,16
 493 -200 493 -200 425 -210 c 128,-1,17
 357 -220 357 -220 289 -220 c 0,18,19
 29 -220 29 -220 29 -50 c 0,20,21
 29 6 29 6 58.5 50.5 c 128,-1,22
 88 95 88 95 158 143 c 0,23,24
 214 181 214 181 240.5 218 c 128,-1,25
 267 255 267 255 269 297 c 1,26,-1
 409 297 l 1,27,4
 409 236 409 236 376.5 187 c 128,-1,5
EndSplineSet
EndChar

StartChar: bullet
Encoding: 8226 8226 456
Width: 369
Flags: W
LayerCount: 2
Fore
SplineSet
101 206 m 128,-1,1
 66 241 66 241 66 290 c 256,2,3
 66 339 66 339 101 374 c 128,-1,4
 136 409 136 409 185 409 c 256,5,6
 234 409 234 409 268.5 374 c 128,-1,7
 303 339 303 339 303 290 c 256,8,9
 303 241 303 241 268.5 206 c 128,-1,10
 234 171 234 171 185 171 c 256,11,0
 136 171 136 171 101 206 c 128,-1,1
EndSplineSet
EndChar

StartChar: asterisk
Encoding: 42 42 457
Width: 525
Flags: W
LayerCount: 2
Fore
SplineSet
83 383 m 1,0,-1
 176 506 l 1,1,-1
 30 549 l 1,2,-1
 64 657 l 1,3,-1
 209 607 l 1,4,-1
 206 759 l 1,5,-1
 318 759 l 1,6,-1
 316 607 l 1,7,-1
 460 657 l 1,8,-1
 495 549 l 1,9,-1
 348 506 l 1,10,-1
 441 383 l 1,11,-1
 349 317 l 1,12,-1
 262 443 l 1,13,-1
 175 317 l 1,14,-1
 83 383 l 1,0,-1
EndSplineSet
EndChar

StartChar: numbersign
Encoding: 35 35 458
Width: 682
Flags: W
LayerCount: 2
Fore
SplineSet
644 465 m 1,0,-1
 537 465 l 1,1,-1
 506 285 l 1,2,-1
 591 285 l 1,3,-1
 591 172 l 1,4,-1
 485 172 l 1,5,-1
 455 0 l 1,6,-1
 328 0 l 1,7,-1
 358 172 l 1,8,-1
 251 172 l 1,9,-1
 222 0 l 1,10,-1
 94 0 l 1,11,-1
 125 172 l 1,12,-1
 38 172 l 1,13,-1
 38 285 l 1,14,-1
 145 285 l 1,15,-1
 177 465 l 1,16,-1
 91 465 l 1,17,-1
 91 578 l 1,18,-1
 197 578 l 1,19,-1
 223 730 l 1,20,-1
 351 730 l 1,21,-1
 324 578 l 1,22,-1
 430 578 l 1,23,-1
 457 730 l 1,24,-1
 584 730 l 1,25,-1
 557 578 l 1,26,-1
 644 578 l 1,27,-1
 644 465 l 1,0,-1
270 283 m 1,28,-1
 379 283 l 1,29,-1
 412 467 l 1,30,-1
 303 467 l 1,31,-1
 270 283 l 1,28,-1
EndSplineSet
EndChar

StartChar: slash
Encoding: 47 47 459
Width: 502
Flags: W
LayerCount: 2
Fore
SplineSet
358 750 m 1,0,-1
 492 750 l 1,1,-1
 144 -40 l 1,2,-1
 10 -40 l 1,3,-1
 358 750 l 1,0,-1
EndSplineSet
EndChar

StartChar: backslash
Encoding: 92 92 460
Width: 502
Flags: W
LayerCount: 2
Fore
SplineSet
492 -40 m 1,0,-1
 358 -40 l 1,1,-1
 10 750 l 1,2,-1
 144 750 l 1,3,-1
 492 -40 l 1,0,-1
EndSplineSet
EndChar

StartChar: uniFF1A
Encoding: 65306 65306 461
Width: 1000
Flags: W
LayerCount: 2
Fore
SplineSet
417 656 m 1,0,-1
 583 656 l 1,1,-1
 583 490 l 1,2,-1
 417 490 l 1,3,-1
 417 656 l 1,0,-1
417 230 m 1,4,-1
 583 230 l 1,5,-1
 583 64 l 1,6,-1
 417 64 l 1,7,-1
 417 230 l 1,4,-1
EndSplineSet
Substitution2: "'aalt' Access All Alternates in Latin lookup 0 subtable" uniFF1A.vert
EndChar

StartChar: parenleft
Encoding: 40 40 463
Width: 386
Flags: W
LayerCount: 2
Fore
SplineSet
113 91.5 m 128,-1,1
 75 205 75 205 75 330 c 256,2,3
 75 455 75 455 113 568.5 c 128,-1,4
 151 682 151 682 222 770 c 1,5,-1
 348 770 l 1,6,7
 277 671 277 671 243.5 563.5 c 128,-1,8
 210 456 210 456 210 330 c 256,9,10
 210 204 210 204 243.5 96.5 c 128,-1,11
 277 -11 277 -11 348 -110 c 1,12,-1
 222 -110 l 1,13,0
 151 -22 151 -22 113 91.5 c 128,-1,1
EndSplineSet
Substitution2: "'aalt' Access All Alternates in Latin lookup 0 subtable" uniFF08
EndChar

StartChar: parenright
Encoding: 41 41 464
Width: 386
Flags: W
LayerCount: 2
Fore
SplineSet
38 -110 m 1,0,1
 109 -11 109 -11 142.5 96.5 c 128,-1,2
 176 204 176 204 176 330 c 256,3,4
 176 456 176 456 142.5 563.5 c 128,-1,5
 109 671 109 671 38 770 c 1,6,-1
 164 770 l 1,7,8
 235 682 235 682 273 568.5 c 128,-1,9
 311 455 311 455 311 330 c 256,10,11
 311 205 311 205 273 91.5 c 128,-1,12
 235 -22 235 -22 164 -110 c 1,13,-1
 38 -110 l 1,0,1
EndSplineSet
Substitution2: "'aalt' Access All Alternates in Latin lookup 0 subtable" uniFF09
EndChar

StartChar: braceleft
Encoding: 123 123 465
Width: 501
Flags: W
LayerCount: 2
Fore
SplineSet
221 -72.5 m 128,-1,1
 185 -35 185 -35 185 50 c 2,2,-1
 185 153 l 2,3,4
 185 214 185 214 164 242 c 128,-1,5
 143 270 143 270 98 270 c 2,6,-1
 55 270 l 1,7,-1
 55 390 l 1,8,-1
 98 390 l 2,9,10
 143 390 143 390 164 418 c 128,-1,11
 185 446 185 446 185 507 c 2,12,-1
 185 610 l 2,13,14
 185 695 185 695 221 732.5 c 128,-1,15
 257 770 257 770 338 770 c 2,16,-1
 451 770 l 1,17,-1
 451 663 l 1,18,-1
 405 663 l 2,19,20
 363 663 363 663 344 656 c 128,-1,21
 325 649 325 649 318 628.5 c 128,-1,22
 311 608 311 608 311 563 c 2,23,-1
 311 494 l 2,24,25
 311 427 311 427 287.5 388.5 c 128,-1,26
 264 350 264 350 211 331 c 1,27,-1
 211 329 l 1,28,29
 264 310 264 310 287.5 271.5 c 128,-1,30
 311 233 311 233 311 166 c 2,31,-1
 311 97 l 2,32,33
 311 52 311 52 318 31.5 c 128,-1,34
 325 11 325 11 344 4 c 128,-1,35
 363 -3 363 -3 405 -3 c 2,36,-1
 451 -3 l 1,37,-1
 451 -110 l 1,38,-1
 338 -110 l 2,39,0
 257 -110 257 -110 221 -72.5 c 128,-1,1
EndSplineSet
EndChar

StartChar: braceright
Encoding: 125 125 466
Width: 501
Flags: W
LayerCount: 2
Fore
SplineSet
50 -110 m 1,0,-1
 50 -3 l 1,1,-1
 96 -3 l 2,2,3
 138 -3 138 -3 157 4 c 128,-1,4
 176 11 176 11 183 31.5 c 128,-1,5
 190 52 190 52 190 97 c 2,6,-1
 190 166 l 2,7,8
 190 233 190 233 213.5 271.5 c 128,-1,9
 237 310 237 310 290 329 c 1,10,-1
 290 331 l 1,11,12
 237 350 237 350 213.5 388.5 c 128,-1,13
 190 427 190 427 190 494 c 2,14,-1
 190 563 l 2,15,16
 190 608 190 608 183 628.5 c 128,-1,17
 176 649 176 649 157 656 c 128,-1,18
 138 663 138 663 96 663 c 2,19,-1
 50 663 l 1,20,-1
 50 770 l 1,21,-1
 163 770 l 2,22,23
 244 770 244 770 280 732.5 c 128,-1,24
 316 695 316 695 316 610 c 2,25,-1
 316 507 l 2,26,27
 316 446 316 446 337 418 c 128,-1,28
 358 390 358 390 403 390 c 2,29,-1
 446 390 l 1,30,-1
 446 270 l 1,31,-1
 403 270 l 2,32,33
 358 270 358 270 337 242 c 128,-1,34
 316 214 316 214 316 153 c 2,35,-1
 316 50 l 2,36,37
 316 -35 316 -35 280 -72.5 c 128,-1,38
 244 -110 244 -110 163 -110 c 2,39,-1
 50 -110 l 1,0,-1
EndSplineSet
EndChar

StartChar: bracketleft
Encoding: 91 91 467
Width: 441
Flags: W
LayerCount: 2
Fore
SplineSet
83 770 m 1,0,-1
 399 770 l 1,1,-1
 399 663 l 1,2,-1
 209 663 l 1,3,-1
 209 -3 l 1,4,-1
 399 -3 l 1,5,-1
 399 -110 l 1,6,-1
 83 -110 l 1,7,-1
 83 770 l 1,0,-1
EndSplineSet
EndChar

StartChar: bracketright
Encoding: 93 93 468
Width: 441
Flags: W
LayerCount: 2
Fore
SplineSet
358 -110 m 1,0,-1
 41 -110 l 1,1,-1
 41 -3 l 1,2,-1
 231 -3 l 1,3,-1
 231 663 l 1,4,-1
 41 663 l 1,5,-1
 41 770 l 1,6,-1
 358 770 l 1,7,-1
 358 -110 l 1,0,-1
EndSplineSet
EndChar

StartChar: hyphen
Encoding: 45 45 469
Width: 433
Flags: W
LayerCount: 2
Fore
SplineSet
55 352 m 1,0,-1
 378 352 l 1,1,-1
 378 228 l 1,2,-1
 55 228 l 1,3,-1
 55 352 l 1,0,-1
EndSplineSet
EndChar

StartChar: endash
Encoding: 8211 8211 471
Width: 500
Flags: W
LayerCount: 2
Fore
SplineSet
0 352 m 1,0,-1
 500 352 l 1,1,-1
 500 228 l 1,2,-1
 0 228 l 1,3,-1
 0 352 l 1,0,-1
EndSplineSet
EndChar

StartChar: emdash
Encoding: 8212 8212 472
Width: 1000
Flags: W
LayerCount: 2
Fore
SplineSet
0 352 m 1,0,-1
 1000 352 l 1,1,-1
 1000 228 l 1,2,-1
 0 228 l 1,3,-1
 0 352 l 1,0,-1
EndSplineSet
EndChar

StartChar: uni2015
Encoding: 8213 8213 473
Width: 1000
Flags: W
LayerCount: 2
Fore
SplineSet
50 422 m 1,0,-1
 950 422 l 1,1,-1
 950 298 l 1,2,-1
 50 298 l 1,3,-1
 50 422 l 1,0,-1
EndSplineSet
EndChar

StartChar: underscore
Encoding: 95 95 474
Width: 613
Flags: W
LayerCount: 2
Fore
SplineSet
0 -77 m 1,0,-1
 613 -77 l 1,1,-1
 613 -177 l 1,2,-1
 0 -177 l 1,3,-1
 0 -77 l 1,0,-1
EndSplineSet
EndChar

StartChar: quoteleft
Encoding: 8216 8216 479
Width: 300
Flags: W
LayerCount: 2
Fore
SplineSet
181 470 m 1,0,-1
 25 470 l 1,1,-1
 141 770 l 1,2,-1
 258 770 l 1,3,-1
 181 470 l 1,0,-1
EndSplineSet
EndChar

StartChar: quoteright
Encoding: 8217 8217 480
Width: 300
Flags: W
LayerCount: 2
Fore
SplineSet
119 770 m 1,0,-1
 275 770 l 1,1,-1
 159 470 l 1,2,-1
 42 470 l 1,3,-1
 119 770 l 1,0,-1
EndSplineSet
EndChar

StartChar: guillemotleft
Encoding: 171 171 481
Width: 536
Flags: W
LayerCount: 2
Fore
SplineSet
8 290 m 1,0,-1
 164 520 l 1,1,-1
 289 520 l 1,2,-1
 130 290 l 1,3,-1
 289 60 l 1,4,-1
 164 60 l 1,5,-1
 8 290 l 1,0,-1
225 290 m 1,6,-1
 380 520 l 1,7,-1
 506 520 l 1,8,-1
 346 290 l 1,9,-1
 506 60 l 1,10,-1
 380 60 l 1,11,-1
 225 290 l 1,6,-1
EndSplineSet
EndChar

StartChar: guillemotright
Encoding: 187 187 482
Width: 536
Flags: W
LayerCount: 2
Fore
SplineSet
156 60 m 1,0,-1
 31 60 l 1,1,-1
 190 290 l 1,2,-1
 31 520 l 1,3,-1
 156 520 l 1,4,-1
 312 290 l 1,5,-1
 156 60 l 1,0,-1
372 60 m 1,6,-1
 247 60 l 1,7,-1
 407 290 l 1,8,-1
 247 520 l 1,9,-1
 372 520 l 1,10,-1
 528 290 l 1,11,-1
 372 60 l 1,6,-1
EndSplineSet
EndChar

StartChar: guilsinglleft
Encoding: 8249 8249 483
Width: 328
Flags: W
LayerCount: 2
Fore
SplineSet
8 290 m 1,0,-1
 168 520 l 1,1,-1
 297 520 l 1,2,-1
 133 290 l 1,3,-1
 297 60 l 1,4,-1
 168 60 l 1,5,-1
 8 290 l 1,0,-1
EndSplineSet
EndChar

StartChar: guilsinglright
Encoding: 8250 8250 484
Width: 328
Flags: W
LayerCount: 2
Fore
SplineSet
159 60 m 1,0,-1
 31 60 l 1,1,-1
 194 290 l 1,2,-1
 31 520 l 1,3,-1
 159 520 l 1,4,-1
 319 290 l 1,5,-1
 159 60 l 1,0,-1
EndSplineSet
EndChar

StartChar: quotedbl
Encoding: 34 34 485
Width: 528
Flags: W
LayerCount: 2
Fore
SplineSet
75 770 m 1,0,-1
 227 770 l 1,1,-1
 208 470 l 1,2,-1
 94 470 l 1,3,-1
 75 770 l 1,0,-1
300 770 m 1,4,-1
 452 770 l 1,5,-1
 433 470 l 1,6,-1
 319 470 l 1,7,-1
 300 770 l 1,4,-1
EndSplineSet
EndChar

StartChar: quotesingle
Encoding: 39 39 486
Width: 307
Flags: W
LayerCount: 2
Fore
SplineSet
75 770 m 1,0,-1
 232 770 l 1,1,-1
 212 470 l 1,2,-1
 95 470 l 1,3,-1
 75 770 l 1,0,-1
EndSplineSet
EndChar

StartChar: uni20B5
Encoding: 8373 8373 488
Width: 716
Flags: W
LayerCount: 2
Fore
SplineSet
671 56 m 1,0,1
 584 4 584 4 474 -7 c 1,2,-1
 474 -105 l 1,3,-1
 360 -105 l 1,4,-1
 360 -7 l 1,5,6
 206 8 206 8 121.5 105 c 128,-1,7
 37 202 37 202 37 365 c 256,8,9
 37 528 37 528 121.5 625 c 128,-1,10
 206 722 206 722 360 737 c 1,11,-1
 360 835 l 1,12,-1
 474 835 l 1,13,-1
 474 737 l 1,14,15
 584 726 584 726 671 674 c 1,16,-1
 614 563 l 1,17,18
 543 603 543 603 474 613 c 1,19,-1
 474 117 l 1,20,21
 543 127 543 127 614 167 c 1,22,-1
 671 56 l 1,0,1
222.5 199 m 128,-1,24
 271 135 271 135 360 118 c 1,25,-1
 360 612 l 1,26,27
 271 595 271 595 222.5 531 c 128,-1,28
 174 467 174 467 174 365 c 256,29,23
 174 263 174 263 222.5 199 c 128,-1,24
EndSplineSet
EndChar

StartChar: cent
Encoding: 162 162 489
Width: 561
Flags: W
LayerCount: 2
Fore
SplineSet
507 29 m 1,0,1
 452 3 452 3 392 -6 c 1,2,-1
 392 -105 l 1,3,-1
 292 -105 l 1,4,-1
 292 -9 l 1,5,6
 168 1 168 1 101 70.5 c 128,-1,7
 34 140 34 140 34 260 c 256,8,9
 34 380 34 380 101 449.5 c 128,-1,10
 168 519 168 519 292 529 c 1,11,-1
 292 625 l 1,12,-1
 392 625 l 1,13,-1
 392 526 l 1,14,15
 452 517 452 517 507 491 c 1,16,-1
 477 390 l 1,17,18
 436 409 436 409 392 417 c 1,19,-1
 392 103 l 1,20,21
 436 111 436 111 477 130 c 1,22,-1
 507 29 l 1,0,1
199 150.5 m 128,-1,24
 231 110 231 110 292 100 c 1,25,-1
 292 420 l 1,26,27
 231 410 231 410 199 369.5 c 128,-1,28
 167 329 167 329 167 260 c 256,29,23
 167 191 167 191 199 150.5 c 128,-1,24
EndSplineSet
EndChar

StartChar: colonmonetary
Encoding: 8353 8353 490
Width: 716
Flags: W
LayerCount: 2
Fore
SplineSet
671 56 m 1,0,1
 596 11 596 11 504 -4 c 1,2,-1
 495 -105 l 1,3,-1
 395 -105 l 1,4,-1
 403 -10 l 1,5,6
 358 -8 358 -8 338 -4 c 1,7,-1
 329 -105 l 1,8,-1
 229 -105 l 1,9,-1
 240 22 l 1,10,11
 142 62 142 62 89.5 150 c 128,-1,12
 37 238 37 238 37 365 c 0,13,14
 37 510 37 510 105.5 604 c 128,-1,15
 174 698 174 698 300 727 c 1,16,-1
 309 835 l 1,17,-1
 409 835 l 1,18,-1
 401 740 l 1,19,-1
 417 740 l 2,20,21
 433 740 433 740 467 738 c 1,22,-1
 475 835 l 1,23,-1
 575 835 l 1,24,-1
 565 720 l 1,25,26
 623 703 623 703 671 674 c 1,27,-1
 614 563 l 1,28,29
 579 582 579 582 554 591 c 1,30,-1
 515 126 l 1,31,32
 568 140 568 140 614 167 c 1,33,-1
 671 56 l 1,0,1
414 113 m 1,35,-1
 456 615 l 1,36,37
 432 617 432 617 419 617 c 0,38,39
 400 617 400 617 390 616 c 1,40,-1
 348 121 l 1,41,34
 380 113 380 113 414 113 c 1,35,-1
194 250 m 128,-1,43
 214 200 214 200 252 167 c 1,44,-1
 288 587 l 1,45,46
 233 558 233 558 203.5 501 c 128,-1,47
 174 444 174 444 174 365 c 0,48,42
 174 300 174 300 194 250 c 128,-1,43
EndSplineSet
EndChar

StartChar: currency
Encoding: 164 164 491
Width: 697
Flags: W
LayerCount: 2
Fore
SplineSet
555 239 m 1,1,-1
 643 150 l 1,2,-1
 563 70 l 1,3,-1
 474 159 l 1,4,5
 418 125 418 125 350 125 c 256,6,7
 282 125 282 125 225 160 c 1,8,-1
 135 70 l 1,9,-1
 53 150 l 1,10,-1
 144 242 l 1,11,12
 110 298 110 298 110 365 c 256,13,14
 110 432 110 432 144 488 c 1,15,-1
 53 579 l 1,16,-1
 135 660 l 1,17,-1
 224 570 l 1,18,19
 283 605 283 605 350 605 c 0,20,21
 418 605 418 605 474 571 c 1,22,-1
 563 660 l 1,23,-1
 644 579 l 1,24,-1
 555 490 l 1,25,26
 590 433 590 433 590 365 c 0,27,0
 590 298 590 298 555 239 c 1,1,-1
433.5 281.5 m 128,-1,29
 468 316 468 316 468 365 c 256,30,31
 468 414 468 414 433.5 448.5 c 128,-1,32
 399 483 399 483 350 483 c 256,33,34
 301 483 301 483 266.5 449 c 128,-1,35
 232 415 232 415 232 365 c 0,36,37
 232 316 232 316 266.5 281.5 c 128,-1,38
 301 247 301 247 350 247 c 256,39,28
 399 247 399 247 433.5 281.5 c 128,-1,29
EndSplineSet
EndChar

StartChar: dollar
Encoding: 36 36 492
Width: 648
Flags: W
LayerCount: 2
Fore
SplineSet
527 48 m 128,-1,1
 454 -8 454 -8 324 -10 c 1,2,-1
 324 -105 l 1,3,-1
 211 -105 l 1,4,-1
 211 -1 l 1,5,6
 115 18 115 18 50 63 c 1,7,-1
 87 183 l 1,8,9
 142 146 142 146 211 127 c 1,10,-1
 211 347 l 1,11,12
 128 386 128 386 91 432.5 c 128,-1,13
 54 479 54 479 54 544 c 0,14,15
 54 638 54 638 123.5 688 c 128,-1,16
 193 738 193 738 324 740 c 1,17,-1
 324 835 l 1,18,-1
 437 835 l 1,19,-1
 437 732 l 1,20,21
 520 718 520 718 581 687 c 1,22,-1
 549 566 l 1,23,24
 495 593 495 593 437 607 c 1,25,-1
 437 402 l 1,26,27
 525 363 525 363 562.5 316.5 c 128,-1,28
 600 270 600 270 600 204 c 0,29,0
 600 104 600 104 527 48 c 128,-1,1
198 544 m 0,31,32
 198 513 198 513 226.5 490.5 c 128,-1,33
 255 468 255 468 324 445 c 1,34,-1
 324 618 l 1,35,30
 198 614 198 614 198 544 c 0,31,32
424.5 135.5 m 128,-1,37
 460 158 460 158 460 200 c 0,38,39
 460 234 460 234 429.5 257.5 c 128,-1,40
 399 281 399 281 324 305 c 1,41,-1
 324 112 l 1,42,36
 389 113 389 113 424.5 135.5 c 128,-1,37
EndSplineSet
EndChar

StartChar: dong
Encoding: 8363 8363 493
Width: 722
Flags: W
LayerCount: 2
Fore
SplineSet
667 695 m 1,0,-1
 667 605 l 1,1,-1
 560 605 l 1,2,-1
 560 150 l 1,3,-1
 430 150 l 1,4,-1
 428 193 l 1,5,-1
 426 193 l 1,6,7
 396 170 396 170 350 156 c 128,-1,8
 304 142 304 142 256 142 c 0,9,10
 161 142 161 142 108.5 198.5 c 128,-1,11
 56 255 56 255 56 358 c 256,12,13
 56 461 56 461 108.5 517.5 c 128,-1,14
 161 574 161 574 256 574 c 0,15,16
 304 574 304 574 348 560 c 128,-1,17
 392 546 392 546 421 523 c 1,18,-1
 423 523 l 1,19,-1
 423 605 l 1,20,-1
 247 605 l 1,21,-1
 247 695 l 1,22,-1
 423 695 l 1,23,-1
 423 750 l 1,24,-1
 560 750 l 1,25,-1
 560 695 l 1,26,-1
 667 695 l 1,0,-1
388.5 268 m 128,-1,28
 423 298 423 298 423 344 c 2,29,-1
 423 372 l 2,30,31
 423 418 423 418 388.5 448 c 128,-1,32
 354 478 354 478 302 478 c 0,33,34
 251 478 251 478 221.5 446 c 128,-1,35
 192 414 192 414 192 358 c 256,36,37
 192 302 192 302 221.5 270 c 128,-1,38
 251 238 251 238 302 238 c 0,39,27
 354 238 354 238 388.5 268 c 128,-1,28
61 0 m 1,40,-1
 61 91 l 1,41,-1
 667 91 l 1,42,-1
 667 0 l 1,43,-1
 61 0 l 1,40,-1
EndSplineSet
EndChar

StartChar: Euro
Encoding: 8364 8364 494
Width: 787
GlyphClass: 2
Flags: W
AnchorPoint: "Anchor-1" 474 730 basechar 0
AnchorPoint: "Anchor-0" 474 0 basechar 0
LayerCount: 2
Fore
SplineSet
685 167 m 1,1,-1
 742 56 l 1,2,3
 637 -10 637 -10 497 -10 c 0,4,5
 361 -10 361 -10 271 52.5 c 128,-1,6
 181 115 181 115 149 230 c 1,7,-1
 30 230 l 1,8,-1
 30 330 l 1,9,-1
 133 330 l 1,10,11
 132 341 132 341 132 365 c 256,12,13
 132 389 132 389 133 400 c 1,14,-1
 30 400 l 1,15,-1
 30 500 l 1,16,-1
 149 500 l 1,17,18
 181 615 181 615 271 677.5 c 128,-1,19
 361 740 361 740 497 740 c 0,20,21
 637 740 637 740 742 674 c 1,22,-1
 685 563 l 1,23,24
 597 617 597 617 504 617 c 0,25,26
 432 617 432 617 380.5 587 c 128,-1,27
 329 557 329 557 302 500 c 1,28,-1
 630 500 l 1,29,-1
 630 400 l 1,30,-1
 276 400 l 1,31,32
 275 389 275 389 275 365 c 256,33,34
 275 341 275 341 276 330 c 1,35,-1
 630 330 l 1,36,-1
 630 230 l 1,37,-1
 302 230 l 1,38,39
 329 173 329 173 380.5 143 c 128,-1,40
 432 113 432 113 504 113 c 0,41,0
 597 113 597 113 685 167 c 1,1,-1
EndSplineSet
EndChar

StartChar: florin
Encoding: 402 402 495
Width: 509
Flags: W
LayerCount: 2
Fore
SplineSet
21 -105 m 1,1,-1
 40 0 l 1,2,3
 82 -13 82 -13 117 -13 c 0,4,5
 156 -13 156 -13 170.5 6 c 128,-1,6
 185 25 185 25 185 77 c 2,7,-1
 185 307 l 1,8,-1
 55 307 l 1,9,-1
 55 414 l 1,10,-1
 185 414 l 1,11,-1
 185 543 l 2,12,13
 185 740 185 740 369 740 c 0,14,15
 424 740 424 740 489 725 c 1,16,-1
 470 620 l 1,17,18
 426 633 426 633 392 633 c 0,19,20
 353 633 353 633 338.5 614 c 128,-1,21
 324 595 324 595 324 543 c 2,22,-1
 324 414 l 1,23,-1
 482 414 l 1,24,-1
 482 307 l 1,25,-1
 324 307 l 1,26,-1
 324 77 l 2,27,28
 324 -120 324 -120 140 -120 c 0,29,0
 86 -120 86 -120 21 -105 c 1,1,-1
EndSplineSet
EndChar

StartChar: franc
Encoding: 8355 8355 496
Width: 649
Flags: W
LayerCount: 2
Fore
SplineSet
598 608 m 1,0,-1
 272 608 l 1,1,-1
 272 447 l 1,2,-1
 578 447 l 1,3,-1
 578 328 l 1,4,-1
 272 328 l 1,5,-1
 272 198 l 1,6,-1
 498 198 l 1,7,-1
 498 92 l 1,8,-1
 272 92 l 1,9,-1
 272 0 l 1,10,-1
 132 0 l 1,11,-1
 132 92 l 1,12,-1
 25 92 l 1,13,-1
 25 198 l 1,14,-1
 132 198 l 1,15,-1
 132 730 l 1,16,-1
 598 730 l 1,17,-1
 598 608 l 1,0,-1
EndSplineSet
EndChar

StartChar: uni20B2
Encoding: 8370 8370 497
Width: 794
Flags: W
LayerCount: 2
Fore
SplineSet
731 435 m 1,0,-1
 731 48 l 1,1,2
 673 20 673 20 599 5 c 128,-1,3
 525 -10 525 -10 446 -10 c 2,4,-1
 443 -10 l 1,5,-1
 443 -105 l 1,6,-1
 330 -105 l 1,7,-1
 330 1 l 1,8,9
 190 29 190 29 113.5 123.5 c 128,-1,10
 37 218 37 218 37 365 c 256,11,12
 37 512 37 512 113.5 606.5 c 128,-1,13
 190 701 190 701 330 729 c 1,14,-1
 330 835 l 1,15,-1
 443 835 l 1,16,-1
 443 740 l 1,17,-1
 446 740 l 2,18,19
 600 740 600 740 704 676 c 1,20,-1
 651 569 l 1,21,22
 552 620 552 620 443 620 c 1,23,-1
 443 435 l 1,24,-1
 731 435 l 1,0,-1
213.5 210.5 m 128,-1,26
 253 150 253 150 330 126 c 1,27,-1
 330 604 l 1,28,29
 253 580 253 580 213.5 519.5 c 128,-1,30
 174 459 174 459 174 365 c 256,31,25
 174 271 174 271 213.5 210.5 c 128,-1,26
591 134 m 1,33,-1
 591 317 l 1,34,-1
 443 317 l 1,35,-1
 443 110 l 1,36,32
 521 110 521 110 591 134 c 1,33,-1
EndSplineSet
EndChar

StartChar: uni20AD
Encoding: 8365 8365 498
Width: 772
GlyphClass: 2
Flags: W
AnchorPoint: "Anchor-1" 377 730 basechar 0
AnchorPoint: "Anchor-0" 377 0 basechar 0
LayerCount: 2
Fore
SplineSet
712 437 m 1,0,-1
 712 330 l 1,1,-1
 447 330 l 1,2,-1
 712 0 l 1,3,-1
 544 0 l 1,4,-1
 287 330 l 1,5,-1
 272 330 l 1,6,-1
 272 0 l 1,7,-1
 132 0 l 1,8,-1
 132 330 l 1,9,-1
 25 330 l 1,10,-1
 25 437 l 1,11,-1
 132 437 l 1,12,-1
 132 730 l 1,13,-1
 272 730 l 1,14,-1
 272 437 l 1,15,-1
 287 437 l 1,16,-1
 534 730 l 1,17,-1
 702 730 l 1,18,-1
 450 437 l 1,19,-1
 712 437 l 1,0,-1
EndSplineSet
EndChar

StartChar: lira
Encoding: 8356 8356 499
Width: 664
Flags: W
LayerCount: 2
Fore
SplineSet
603 119 m 1,0,-1
 603 0 l 1,1,-1
 83 0 l 1,2,-1
 83 119 l 1,3,4
 124 122 124 122 150.5 156 c 128,-1,5
 177 190 177 190 182 246 c 1,6,-1
 83 246 l 1,7,-1
 83 346 l 1,8,-1
 183 346 l 1,9,-1
 183 416 l 1,10,-1
 83 416 l 1,11,-1
 83 516 l 1,12,-1
 183 516 l 1,13,-1
 183 530 l 2,14,15
 183 631 183 631 246.5 685.5 c 128,-1,16
 310 740 310 740 428 740 c 0,17,18
 504 740 504 740 579 714 c 1,19,-1
 556 597 l 1,20,21
 527 610 527 610 501.5 615.5 c 128,-1,22
 476 621 476 621 444 621 c 0,23,24
 381 621 381 621 353 596.5 c 128,-1,25
 325 572 325 572 323 516 c 1,26,-1
 539 516 l 1,27,-1
 539 416 l 1,28,-1
 323 416 l 1,29,-1
 323 346 l 1,30,-1
 539 346 l 1,31,-1
 539 246 l 1,32,-1
 322 246 l 1,33,34
 317 201 317 201 299 168 c 128,-1,35
 281 135 281 135 252 121 c 1,36,-1
 252 119 l 1,37,-1
 603 119 l 1,0,-1
EndSplineSet
EndChar

StartChar: uni20BA
Encoding: 8378 8378 500
Width: 685
Flags: W
LayerCount: 2
Fore
SplineSet
651 340 m 1,0,1
 651 217 651 217 601 140 c 128,-1,2
 551 63 551 63 445.5 26.5 c 128,-1,3
 340 -10 340 -10 171 -10 c 2,4,-1
 131 -10 l 1,5,-1
 131 331 l 1,6,-1
 25 312 l 1,7,-1
 25 412 l 1,8,-1
 131 431 l 1,9,-1
 131 501 l 1,10,-1
 25 482 l 1,11,-1
 25 582 l 1,12,-1
 131 601 l 1,13,-1
 131 730 l 1,14,-1
 275 730 l 1,15,-1
 275 626 l 1,16,-1
 481 662 l 1,17,-1
 481 562 l 1,18,-1
 275 526 l 1,19,-1
 275 456 l 1,20,-1
 481 492 l 1,21,-1
 481 392 l 1,22,-1
 275 356 l 1,23,-1
 275 121 l 1,24,-1
 281 121 l 2,25,26
 408 121 408 121 468 174 c 128,-1,27
 528 227 528 227 528 340 c 1,28,-1
 651 340 l 1,0,1
EndSplineSet
EndChar

StartChar: uni20BC
Encoding: 8380 8380 501
Width: 789
Flags: W
LayerCount: 2
Fore
SplineSet
652 664 m 128,-1,1
 721 593 721 593 721 460 c 2,2,-1
 721 0 l 1,3,-1
 584 0 l 1,4,-1
 584 443 l 2,5,6
 584 531 584 531 553 572 c 128,-1,7
 522 613 522 613 451 617 c 1,8,-1
 451 0 l 1,9,-1
 338 0 l 1,10,-1
 338 617 l 1,11,12
 267 614 267 614 235.5 573 c 128,-1,13
 204 532 204 532 204 443 c 2,14,-1
 204 0 l 1,15,-1
 68 0 l 1,16,-1
 68 460 l 2,17,18
 68 593 68 593 136.5 664 c 128,-1,19
 205 735 205 735 338 740 c 1,20,-1
 338 835 l 1,21,-1
 451 835 l 1,22,-1
 451 740 l 1,23,0
 583 735 583 735 652 664 c 128,-1,1
EndSplineSet
EndChar

StartChar: uni20A6
Encoding: 8358 8358 502
Width: 843
GlyphClass: 2
Flags: W
AnchorPoint: "Anchor-1" 422 730 basechar 0
AnchorPoint: "Anchor-0" 422 0 basechar 0
LayerCount: 2
Fore
SplineSet
819 400 m 1,0,-1
 712 400 l 1,1,-1
 712 330 l 1,2,-1
 819 330 l 1,3,-1
 819 230 l 1,4,-1
 712 230 l 1,5,-1
 712 0 l 1,6,-1
 564 0 l 1,7,-1
 274 500 l 1,8,-1
 272 500 l 1,9,-1
 272 0 l 1,10,-1
 132 0 l 1,11,-1
 132 230 l 1,12,-1
 25 230 l 1,13,-1
 25 330 l 1,14,-1
 132 330 l 1,15,-1
 132 400 l 1,16,-1
 25 400 l 1,17,-1
 25 500 l 1,18,-1
 132 500 l 1,19,-1
 132 730 l 1,20,-1
 279 730 l 1,21,-1
 570 230 l 1,22,-1
 572 230 l 1,23,-1
 572 730 l 1,24,-1
 712 730 l 1,25,-1
 712 500 l 1,26,-1
 819 500 l 1,27,-1
 819 400 l 1,0,-1
EndSplineSet
EndChar

StartChar: peseta
Encoding: 8359 8359 503
Width: 756
Flags: W
LayerCount: 2
Fore
SplineSet
745 424 m 1,0,-1
 654 424 l 1,1,2
 624 226 624 226 362 226 c 2,3,-1
 272 226 l 1,4,-1
 272 0 l 1,5,-1
 132 0 l 1,6,-1
 132 424 l 1,7,-1
 25 424 l 1,8,-1
 25 531 l 1,9,-1
 132 531 l 1,10,-1
 132 730 l 1,11,-1
 335 730 l 2,12,13
 482 730 482 730 560.5 681 c 128,-1,14
 639 632 639 632 654 531 c 1,15,-1
 745 531 l 1,16,-1
 745 424 l 1,0,-1
272 531 m 1,17,-1
 508 531 l 1,18,19
 495 575 495 575 454 596 c 128,-1,20
 413 617 413 617 342 617 c 2,21,-1
 272 617 l 1,22,-1
 272 531 l 1,17,-1
454 359 m 128,-1,24
 495 380 495 380 508 424 c 1,25,-1
 272 424 l 1,26,-1
 272 338 l 1,27,-1
 342 338 l 2,28,23
 413 338 413 338 454 359 c 128,-1,24
EndSplineSet
EndChar

StartChar: uni20B1
Encoding: 8369 8369 504
Width: 756
Flags: W
LayerCount: 2
Fore
SplineSet
745 512 m 1,0,-1
 657 512 l 1,1,2
 658 501 658 501 658 478 c 0,3,4
 658 466 658 466 656 442 c 1,5,-1
 745 442 l 1,6,-1
 745 342 l 1,7,-1
 627 342 l 1,8,9
 562 226 562 226 362 226 c 2,10,-1
 272 226 l 1,11,-1
 272 0 l 1,12,-1
 132 0 l 1,13,-1
 132 342 l 1,14,-1
 25 342 l 1,15,-1
 25 442 l 1,16,-1
 132 442 l 1,17,-1
 132 512 l 1,18,-1
 25 512 l 1,19,-1
 25 612 l 1,20,-1
 132 612 l 1,21,-1
 132 730 l 1,22,-1
 335 730 l 2,23,24
 449 730 449 730 521.5 701 c 128,-1,25
 594 672 594 672 628 612 c 1,26,-1
 745 612 l 1,27,-1
 745 512 l 1,0,-1
473.5 371.5 m 128,-1,29
 515 405 515 405 515 477 c 256,30,31
 515 549 515 549 473.5 583 c 128,-1,32
 432 617 432 617 342 617 c 2,33,-1
 272 617 l 1,34,-1
 272 338 l 1,35,-1
 342 338 l 2,36,28
 432 338 432 338 473.5 371.5 c 128,-1,29
EndSplineSet
EndChar

StartChar: uni20BD
Encoding: 8381 8381 505
Width: 686
Flags: W
LayerCount: 2
Fore
SplineSet
272 268 m 1,0,-1
 272 198 l 1,1,-1
 498 198 l 1,2,-1
 498 98 l 1,3,-1
 272 98 l 1,4,-1
 272 0 l 1,5,-1
 132 0 l 1,6,-1
 132 98 l 1,7,-1
 25 98 l 1,8,-1
 25 198 l 1,9,-1
 132 198 l 1,10,-1
 132 268 l 1,11,-1
 25 268 l 1,12,-1
 25 368 l 1,13,-1
 132 368 l 1,14,-1
 132 730 l 1,15,-1
 335 730 l 2,16,17
 500 730 500 730 579 671 c 128,-1,18
 658 612 658 612 658 490 c 0,19,20
 658 268 658 268 362 268 c 2,21,-1
 272 268 l 1,0,-1
272 368 m 1,22,-1
 342 368 l 2,23,24
 432 368 432 368 473.5 397 c 128,-1,25
 515 426 515 426 515 489 c 256,26,27
 515 552 515 552 473.5 581 c 128,-1,28
 432 610 432 610 342 610 c 2,29,-1
 272 610 l 1,30,-1
 272 368 l 1,22,-1
EndSplineSet
EndChar

StartChar: uni20B9
Encoding: 8377 8377 506
Width: 634
Flags: W
LayerCount: 2
Fore
SplineSet
475 630 m 1,0,1
 498 596 498 596 504 555 c 1,2,-1
 595 555 l 1,3,-1
 595 455 l 1,4,-1
 503 455 l 1,5,6
 476 320 476 320 306 293 c 1,7,-1
 534 0 l 1,8,-1
 365 0 l 1,9,-1
 141 286 l 1,10,-1
 51 286 l 1,11,-1
 51 397 l 1,12,-1
 211 397 l 2,13,14
 271 397 271 397 306.5 411 c 128,-1,15
 342 425 342 425 355 455 c 1,16,-1
 51 455 l 1,17,-1
 51 555 l 1,18,-1
 355 555 l 1,19,20
 342 585 342 585 306.5 599 c 128,-1,21
 271 613 271 613 211 613 c 2,22,-1
 51 613 l 1,23,-1
 51 730 l 1,24,-1
 595 730 l 1,25,-1
 595 630 l 1,26,-1
 475 630 l 1,0,1
EndSplineSet
EndChar

StartChar: sterling
Encoding: 163 163 507
Width: 664
Flags: W
LayerCount: 2
Fore
SplineSet
603 119 m 1,0,-1
 603 0 l 1,1,-1
 83 0 l 1,2,-1
 83 119 l 1,3,4
 129 122 129 122 156 163 c 128,-1,5
 183 204 183 204 183 271 c 2,6,-1
 183 327 l 1,7,-1
 83 327 l 1,8,-1
 83 434 l 1,9,-1
 183 434 l 1,10,-1
 183 530 l 2,11,12
 183 631 183 631 246.5 685.5 c 128,-1,13
 310 740 310 740 428 740 c 0,14,15
 504 740 504 740 579 714 c 1,16,-1
 556 597 l 1,17,18
 527 610 527 610 501.5 615.5 c 128,-1,19
 476 621 476 621 444 621 c 0,20,21
 380 621 380 621 351.5 595.5 c 128,-1,22
 323 570 323 570 323 511 c 2,23,-1
 323 434 l 1,24,-1
 539 434 l 1,25,-1
 539 327 l 1,26,-1
 323 327 l 1,27,-1
 323 271 l 2,28,29
 323 218 323 218 304 177.5 c 128,-1,30
 285 137 285 137 252 121 c 1,31,-1
 252 119 l 1,32,-1
 603 119 l 1,0,-1
EndSplineSet
EndChar

StartChar: uni20A9
Encoding: 8361 8361 508
Width: 1029
GlyphClass: 2
Flags: W
AnchorPoint: "Anchor-1" 516 730 basechar 0
AnchorPoint: "Anchor-0" 516 0 basechar 0
LayerCount: 2
Fore
SplineSet
1005 400 m 1,0,-1
 887 400 l 1,1,-1
 872 330 l 1,2,-1
 1005 330 l 1,3,-1
 1005 230 l 1,4,-1
 849 230 l 1,5,-1
 798 0 l 1,6,-1
 627 0 l 1,7,-1
 517 471 l 1,8,-1
 515 471 l 1,9,-1
 405 0 l 1,10,-1
 234 0 l 1,11,-1
 183 230 l 1,12,-1
 25 230 l 1,13,-1
 25 330 l 1,14,-1
 160 330 l 1,15,-1
 145 400 l 1,16,-1
 25 400 l 1,17,-1
 25 500 l 1,18,-1
 122 500 l 1,19,-1
 71 730 l 1,20,-1
 215 730 l 1,21,-1
 258 500 l 1,22,-1
 401 500 l 1,23,-1
 431 630 l 1,24,-1
 601 630 l 1,25,-1
 631 500 l 1,26,-1
 775 500 l 1,27,-1
 818 730 l 1,28,-1
 961 730 l 1,29,-1
 910 500 l 1,30,-1
 1005 500 l 1,31,-1
 1005 400 l 1,0,-1
322 159 m 1,32,-1
 324 159 l 1,33,-1
 379 400 l 1,34,-1
 277 400 l 1,35,-1
 322 159 l 1,32,-1
711 159 m 1,36,-1
 756 400 l 1,37,-1
 654 400 l 1,38,-1
 709 159 l 1,39,-1
 711 159 l 1,36,-1
EndSplineSet
EndChar

StartChar: yen
Encoding: 165 165 509
Width: 665
Flags: W
LayerCount: 2
Fore
SplineSet
659 730 m 1,0,-1
 462 387 l 1,1,-1
 606 387 l 1,2,-1
 606 287 l 1,3,-1
 406 287 l 1,4,-1
 406 217 l 1,5,-1
 606 217 l 1,6,-1
 606 117 l 1,7,-1
 406 117 l 1,8,-1
 406 0 l 1,9,-1
 260 0 l 1,10,-1
 260 117 l 1,11,-1
 59 117 l 1,12,-1
 59 217 l 1,13,-1
 260 217 l 1,14,-1
 260 287 l 1,15,-1
 59 287 l 1,16,-1
 59 387 l 1,17,-1
 204 387 l 1,18,-1
 6 730 l 1,19,-1
 163 730 l 1,20,-1
 332 414 l 1,21,-1
 334 414 l 1,22,-1
 502 730 l 1,23,-1
 659 730 l 1,0,-1
EndSplineSet
EndChar

StartChar: uni2215
Encoding: 8725 8725 511
Width: 476
Flags: W
LayerCount: 2
Fore
SplineSet
331 730 m 1,0,-1
 465 730 l 1,1,-1
 144 0 l 1,2,-1
 10 0 l 1,3,-1
 331 730 l 1,0,-1
EndSplineSet
EndChar

StartChar: plus
Encoding: 43 43 512
Width: 689
Flags: W
LayerCount: 2
Fore
SplineSet
283 228 m 1,0,-1
 55 228 l 1,1,-1
 55 352 l 1,2,-1
 283 352 l 1,3,-1
 283 580 l 1,4,-1
 406 580 l 1,5,-1
 406 352 l 1,6,-1
 635 352 l 1,7,-1
 635 228 l 1,8,-1
 406 228 l 1,9,-1
 406 0 l 1,10,-1
 283 0 l 1,11,-1
 283 228 l 1,0,-1
EndSplineSet
EndChar

StartChar: minus
Encoding: 8722 8722 513
Width: 689
Flags: W
LayerCount: 2
Fore
SplineSet
55 352 m 1,0,-1
 635 352 l 1,1,-1
 635 228 l 1,2,-1
 55 228 l 1,3,-1
 55 352 l 1,0,-1
EndSplineSet
EndChar

StartChar: multiply
Encoding: 215 215 514
Width: 630
Flags: W
LayerCount: 2
Fore
SplineSet
591 99 m 1,0,-1
 506 14 l 1,1,-1
 315 205 l 1,2,-1
 124 14 l 1,3,-1
 39 99 l 1,4,-1
 230 290 l 1,5,-1
 39 481 l 1,6,-1
 124 566 l 1,7,-1
 315 375 l 1,8,-1
 506 566 l 1,9,-1
 591 481 l 1,10,-1
 400 290 l 1,11,-1
 591 99 l 1,0,-1
EndSplineSet
EndChar

StartChar: divide
Encoding: 247 247 515
Width: 689
Flags: W
LayerCount: 2
Fore
SplineSet
289.5 453.5 m 128,-1,1
 266 477 266 477 266 509 c 256,2,3
 266 541 266 541 289.5 564 c 128,-1,4
 313 587 313 587 345 587 c 256,5,6
 377 587 377 587 400 564 c 128,-1,7
 423 541 423 541 423 509 c 256,8,9
 423 477 423 477 400 453.5 c 128,-1,10
 377 430 377 430 345 430 c 256,11,0
 313 430 313 430 289.5 453.5 c 128,-1,1
55 352 m 1,12,-1
 635 352 l 1,13,-1
 635 228 l 1,14,-1
 55 228 l 1,15,-1
 55 352 l 1,12,-1
289.5 16.5 m 128,-1,17
 266 40 266 40 266 72 c 256,18,19
 266 104 266 104 289.5 127 c 128,-1,20
 313 150 313 150 345 150 c 256,21,22
 377 150 377 150 400 127 c 128,-1,23
 423 104 423 104 423 72 c 256,24,25
 423 40 423 40 400 16.5 c 128,-1,26
 377 -7 377 -7 345 -7 c 256,27,16
 313 -7 313 -7 289.5 16.5 c 128,-1,17
EndSplineSet
EndChar

StartChar: equal
Encoding: 61 61 516
Width: 745
Flags: W
LayerCount: 2
Fore
SplineSet
83 470 m 1,0,-1
 663 470 l 1,1,-1
 663 350 l 1,2,-1
 83 350 l 1,3,-1
 83 470 l 1,0,-1
83 230 m 1,4,-1
 663 230 l 1,5,-1
 663 110 l 1,6,-1
 83 110 l 1,7,-1
 83 230 l 1,4,-1
EndSplineSet
EndChar

StartChar: notequal
Encoding: 8800 8800 517
Width: 745
Flags: W
LayerCount: 2
Fore
SplineSet
663 350 m 1,0,-1
 457 350 l 1,1,-1
 419 230 l 1,2,-1
 663 230 l 1,3,-1
 663 110 l 1,4,-1
 380 110 l 1,5,-1
 332 -42 l 1,6,-1
 213 -5 l 1,7,-1
 250 110 l 1,8,-1
 83 110 l 1,9,-1
 83 230 l 1,10,-1
 288 230 l 1,11,-1
 326 350 l 1,12,-1
 83 350 l 1,13,-1
 83 470 l 1,14,-1
 365 470 l 1,15,-1
 413 622 l 1,16,-1
 532 585 l 1,17,-1
 495 470 l 1,18,-1
 663 470 l 1,19,-1
 663 350 l 1,0,-1
EndSplineSet
EndChar

StartChar: greater
Encoding: 62 62 518
Width: 710
Flags: W
LayerCount: 2
Fore
SplineSet
75 136 m 1,0,-1
 549 289 l 1,1,-1
 549 291 l 1,2,-1
 75 444 l 1,3,-1
 75 577 l 1,4,-1
 655 368 l 1,5,-1
 655 212 l 1,6,-1
 75 3 l 1,7,-1
 75 136 l 1,0,-1
EndSplineSet
EndChar

StartChar: less
Encoding: 60 60 519
Width: 710
Flags: W
LayerCount: 2
Fore
SplineSet
55 212 m 1,0,-1
 55 368 l 1,1,-1
 635 577 l 1,2,-1
 635 444 l 1,3,-1
 161 291 l 1,4,-1
 161 289 l 1,5,-1
 635 136 l 1,6,-1
 635 3 l 1,7,-1
 55 212 l 1,0,-1
EndSplineSet
EndChar

StartChar: greaterequal
Encoding: 8805 8805 520
Width: 701
Flags: W
LayerCount: 2
Fore
SplineSet
68 176 m 1,0,-1
 68 309 l 1,1,-1
 541 462 l 1,2,-1
 541 464 l 1,3,-1
 68 617 l 1,4,-1
 68 751 l 1,5,-1
 648 541 l 1,6,-1
 648 385 l 1,7,-1
 68 176 l 1,0,-1
68 0 m 1,8,-1
 68 120 l 1,9,-1
 648 120 l 1,10,-1
 648 0 l 1,11,-1
 68 0 l 1,8,-1
EndSplineSet
EndChar

StartChar: lessequal
Encoding: 8804 8804 521
Width: 701
Flags: W
LayerCount: 2
Fore
SplineSet
54 541 m 1,0,-1
 634 751 l 1,1,-1
 634 617 l 1,2,-1
 160 464 l 1,3,-1
 160 462 l 1,4,-1
 634 309 l 1,5,-1
 634 176 l 1,6,-1
 54 385 l 1,7,-1
 54 541 l 1,0,-1
54 120 m 1,8,-1
 634 120 l 1,9,-1
 634 0 l 1,10,-1
 54 0 l 1,11,-1
 54 120 l 1,8,-1
EndSplineSet
EndChar

StartChar: plusminus
Encoding: 177 177 522
Width: 745
Flags: W
LayerCount: 2
Fore
SplineSet
311 403 m 1,0,-1
 83 403 l 1,1,-1
 83 523 l 1,2,-1
 311 523 l 1,3,-1
 311 730 l 1,4,-1
 434 730 l 1,5,-1
 434 523 l 1,6,-1
 663 523 l 1,7,-1
 663 403 l 1,8,-1
 434 403 l 1,9,-1
 434 196 l 1,10,-1
 311 196 l 1,11,-1
 311 403 l 1,0,-1
83 120 m 1,12,-1
 663 120 l 1,13,-1
 663 0 l 1,14,-1
 83 0 l 1,15,-1
 83 120 l 1,12,-1
EndSplineSet
EndChar

StartChar: approxequal
Encoding: 8776 8776 523
Width: 745
Flags: W
LayerCount: 2
Fore
SplineSet
101 468 m 128,-1,1
 136 516 136 516 207 516 c 0,2,3
 289 516 289 516 407 464 c 0,4,5
 478 433 478 433 517 433 c 0,6,7
 543 433 543 433 552.5 448.5 c 128,-1,8
 562 464 562 464 562 507 c 1,9,-1
 679 507 l 1,10,11
 679 407 679 407 644 359.5 c 128,-1,12
 609 312 609 312 538 312 c 0,13,14
 461 312 461 312 338 364 c 0,15,16
 264 396 264 396 228 396 c 0,17,18
 202 396 202 396 192.5 380 c 128,-1,19
 183 364 183 364 183 319 c 1,20,-1
 66 319 l 1,21,0
 66 420 66 420 101 468 c 128,-1,1
101 215 m 128,-1,23
 136 263 136 263 207 263 c 0,24,25
 285 263 285 263 407 211 c 0,26,27
 481 179 481 179 517 179 c 0,28,29
 543 179 543 179 552.5 194.5 c 128,-1,30
 562 210 562 210 562 253 c 1,31,-1
 679 253 l 1,32,33
 679 154 679 154 644 106.5 c 128,-1,34
 609 59 609 59 538 59 c 0,35,36
 461 59 461 59 338 111 c 0,37,38
 267 142 267 142 228 142 c 0,39,40
 202 142 202 142 192.5 126.5 c 128,-1,41
 183 111 183 111 183 65 c 1,42,-1
 66 65 l 1,43,22
 66 167 66 167 101 215 c 128,-1,23
EndSplineSet
EndChar

StartChar: asciitilde
Encoding: 126 126 524
Width: 723
Flags: W
LayerCount: 2
Fore
SplineSet
90 359.5 m 128,-1,1
 125 409 125 409 196 409 c 0,2,3
 272 409 272 409 396 355 c 0,4,5
 470 323 470 323 506 323 c 0,6,7
 532 323 532 323 541.5 339 c 128,-1,8
 551 355 551 355 551 399 c 1,9,-1
 668 399 l 1,10,11
 668 297 668 297 633 248 c 128,-1,12
 598 199 598 199 527 199 c 0,13,14
 448 199 448 199 327 252 c 0,15,16
 254 285 254 285 217 285 c 0,17,18
 191 285 191 285 181.5 268.5 c 128,-1,19
 172 252 172 252 172 205 c 1,20,-1
 55 205 l 1,21,0
 55 310 55 310 90 359.5 c 128,-1,1
EndSplineSet
EndChar

StartChar: logicalnot
Encoding: 172 172 525
Width: 724
Flags: W
LayerCount: 2
Fore
SplineSet
518 347 m 1,0,-1
 55 347 l 1,1,-1
 55 470 l 1,2,-1
 641 470 l 1,3,-1
 641 110 l 1,4,-1
 518 110 l 1,5,-1
 518 347 l 1,0,-1
EndSplineSet
EndChar

StartChar: asciicircum
Encoding: 94 94 526
Width: 647
Flags: W
LayerCount: 2
Fore
SplineSet
232 730 m 1,0,-1
 416 730 l 1,1,-1
 637 280 l 1,2,-1
 483 280 l 1,3,-1
 325 632 l 1,4,-1
 323 632 l 1,5,-1
 165 280 l 1,6,-1
 10 280 l 1,7,-1
 232 730 l 1,0,-1
EndSplineSet
EndChar

StartChar: uni00B5
Encoding: 181 181 527
Width: 599
GlyphClass: 2
Flags: W
AnchorPoint: "Anchor-3" 511 480 basechar 0
AnchorPoint: "Anchor-2" 531 0 basechar 0
AnchorPoint: "Anchor-1" 299 520 basechar 0
AnchorPoint: "Anchor-0" 299 0 basechar 0
LayerCount: 2
Fore
SplineSet
531 520 m 1,0,-1
 531 0 l 1,1,-1
 401 0 l 1,2,-1
 399 71 l 1,3,-1
 397 71 l 1,4,5
 331 -10 331 -10 225 -10 c 0,6,7
 207 -10 207 -10 198 -9 c 1,8,-1
 198 -220 l 1,9,-1
 61 -220 l 1,10,-1
 61 520 l 1,11,-1
 198 520 l 1,12,-1
 198 226 l 2,13,14
 198 161 198 161 215 132 c 128,-1,15
 232 103 232 103 269 103 c 0,16,17
 301 103 301 103 330 122.5 c 128,-1,18
 359 142 359 142 376.5 174.5 c 128,-1,19
 394 207 394 207 394 244 c 2,20,-1
 394 520 l 1,21,-1
 531 520 l 1,0,-1
EndSplineSet
EndChar

StartChar: percent
Encoding: 37 37 528
Width: 901
Flags: W
LayerCount: 2
Fore
SplineSet
79.5 341 m 128,-1,1
 38 396 38 396 38 511 c 256,2,3
 38 626 38 626 79.5 681 c 128,-1,4
 121 736 121 736 208 736 c 256,5,6
 295 736 295 736 336.5 681 c 128,-1,7
 378 626 378 626 378 511 c 256,8,9
 378 396 378 396 336.5 341 c 128,-1,10
 295 286 295 286 208 286 c 256,11,0
 121 286 121 286 79.5 341 c 128,-1,1
587 730 m 1,12,-1
 707 730 l 1,13,-1
 314 0 l 1,14,-1
 194 0 l 1,15,-1
 587 730 l 1,12,-1
250 415.5 m 128,-1,17
 263 444 263 444 263 511 c 256,18,19
 263 578 263 578 250 606.5 c 128,-1,20
 237 635 237 635 208 635 c 256,21,22
 179 635 179 635 166 606.5 c 128,-1,23
 153 578 153 578 153 511 c 256,24,25
 153 444 153 444 166 415.5 c 128,-1,26
 179 387 179 387 208 387 c 256,27,16
 237 387 237 387 250 415.5 c 128,-1,17
565.5 49 m 128,-1,29
 524 104 524 104 524 219 c 256,30,31
 524 334 524 334 565.5 389 c 128,-1,32
 607 444 607 444 694 444 c 256,33,34
 781 444 781 444 822.5 389 c 128,-1,35
 864 334 864 334 864 219 c 256,36,37
 864 104 864 104 822.5 49 c 128,-1,38
 781 -6 781 -6 694 -6 c 256,39,28
 607 -6 607 -6 565.5 49 c 128,-1,29
736 123.5 m 128,-1,41
 749 152 749 152 749 219 c 256,42,43
 749 286 749 286 736 314.5 c 128,-1,44
 723 343 723 343 694 343 c 256,45,46
 665 343 665 343 652 314.5 c 128,-1,47
 639 286 639 286 639 219 c 256,48,49
 639 152 639 152 652 123.5 c 128,-1,50
 665 95 665 95 694 95 c 256,51,40
 723 95 723 95 736 123.5 c 128,-1,41
EndSplineSet
EndChar

StartChar: uniFF1D
Encoding: 65309 65309 530
Width: 1000
Flags: W
LayerCount: 2
Fore
SplineSet
167 540 m 1,0,-1
 833 540 l 1,1,-1
 833 420 l 1,2,-1
 167 420 l 1,3,-1
 167 540 l 1,0,-1
167 300 m 1,4,-1
 833 300 l 1,5,-1
 833 180 l 1,6,-1
 167 180 l 1,7,-1
 167 300 l 1,4,-1
EndSplineSet
EndChar

StartChar: filledbox
Encoding: 9632 9632 531
Width: 1000
Flags: W
LayerCount: 2
Fore
SplineSet
120 740 m 1,0,-1
 880 740 l 1,1,-1
 880 -20 l 1,2,-1
 120 -20 l 1,3,-1
 120 740 l 1,0,-1
EndSplineSet
EndChar

StartChar: at
Encoding: 64 64 532
Width: 821
Flags: W
LayerCount: 2
Fore
SplineSet
596 456 m 1,0,-1
 596 151 l 1,1,-1
 678 151 l 1,2,3
 697 202 697 202 697 260 c 0,4,5
 697 344 697 344 661 409 c 128,-1,6
 625 474 625 474 559.5 510.5 c 128,-1,7
 494 547 494 547 411 547 c 0,8,9
 327 547 327 547 262 510.5 c 128,-1,10
 197 474 197 474 160.5 409 c 128,-1,11
 124 344 124 344 124 260 c 256,12,13
 124 176 124 176 160.5 111 c 128,-1,14
 197 46 197 46 262 9.5 c 128,-1,15
 327 -27 327 -27 411 -27 c 0,16,17
 518 -27 518 -27 595 34 c 1,18,-1
 647 -35 l 1,19,20
 598 -73 598 -73 538 -93.5 c 128,-1,21
 478 -114 478 -114 411 -114 c 0,22,23
 304 -114 304 -114 218.5 -65.5 c 128,-1,24
 133 -17 133 -17 85 68 c 128,-1,25
 37 153 37 153 37 260 c 256,26,27
 37 367 37 367 85 452.5 c 128,-1,28
 133 538 133 538 218.5 586 c 128,-1,29
 304 634 304 634 411 634 c 256,30,31
 518 634 518 634 603 586 c 128,-1,32
 688 538 688 538 736 453 c 128,-1,33
 784 368 784 368 784 260 c 0,34,35
 784 149 784 149 734 64 c 1,36,-1
 483 64 l 1,37,-1
 481 122 l 1,38,-1
 479 122 l 1,39,40
 434 57 434 57 360 57 c 0,41,42
 291 57 291 57 248 111 c 128,-1,43
 205 165 205 165 205 260 c 256,44,45
 205 355 205 355 247.5 409 c 128,-1,46
 290 463 290 463 360 463 c 0,47,48
 398 463 398 463 427 447.5 c 128,-1,49
 456 432 456 432 479 399 c 1,50,-1
 481 399 l 1,51,-1
 483 456 l 1,52,-1
 596 456 l 1,0,-1
478 267 m 2,53,54
 478 317 478 317 457.5 344 c 128,-1,55
 437 371 437 371 400 371 c 0,56,57
 364 371 364 371 343.5 342 c 128,-1,58
 323 313 323 313 323 260 c 256,59,60
 323 207 323 207 343.5 178 c 128,-1,61
 364 149 364 149 400 149 c 0,62,63
 437 149 437 149 457.5 176 c 128,-1,64
 478 203 478 203 478 253 c 2,65,-1
 478 267 l 2,53,54
EndSplineSet
EndChar

StartChar: ampersand
Encoding: 38 38 533
Width: 716
Flags: W
LayerCount: 2
Fore
SplineSet
619 -14 m 1,0,-1
 546 56 l 1,1,2
 483 22 483 22 423.5 6 c 128,-1,3
 364 -10 364 -10 301 -10 c 0,4,5
 179 -10 179 -10 108.5 40.5 c 128,-1,6
 38 91 38 91 38 177 c 0,7,8
 38 236 38 236 73.5 282.5 c 128,-1,9
 109 329 109 329 200 387 c 1,10,-1
 199 388 l 2,11,12
 138 446 138 446 114.5 488 c 128,-1,13
 91 530 91 530 91 577 c 0,14,15
 91 654 91 654 150 697 c 128,-1,16
 209 740 209 740 316 740 c 0,17,18
 422 740 422 740 483 696.5 c 128,-1,19
 544 653 544 653 544 577 c 0,20,21
 544 522 544 522 507 474.5 c 128,-1,22
 470 427 470 427 383 371 c 1,23,-1
 512 246 l 1,24,-1
 513 397 l 1,25,-1
 639 397 l 1,26,-1
 639 123 l 1,27,-1
 714 50 l 1,28,-1
 619 -14 l 1,0,-1
249 622.5 m 128,-1,30
 224 605 224 605 224 573 c 0,31,32
 224 548 224 548 241.5 521 c 128,-1,33
 259 494 259 494 302 450 c 1,34,35
 363 490 363 490 387 517 c 128,-1,36
 411 544 411 544 411 573 c 0,37,38
 411 606 411 606 387.5 623 c 128,-1,39
 364 640 364 640 319 640 c 256,40,29
 274 640 274 640 249 622.5 c 128,-1,30
454 144 m 1,42,-1
 282 309 l 1,43,44
 227 274 227 274 204 246 c 128,-1,45
 181 218 181 218 181 187 c 0,46,47
 181 146 181 146 214.5 123 c 128,-1,48
 248 100 248 100 307 100 c 0,49,41
 386 100 386 100 454 144 c 1,42,-1
EndSplineSet
EndChar

StartChar: paragraph
Encoding: 182 182 534
Width: 656
Flags: W
LayerCount: 2
Fore
SplineSet
126 301 m 128,-1,1
 73 332 73 332 42 385 c 128,-1,2
 11 438 11 438 11 500 c 256,3,4
 11 562 11 562 42 615 c 128,-1,5
 73 668 73 668 126 699 c 128,-1,6
 179 730 179 730 241 730 c 2,7,-1
 581 730 l 1,8,-1
 581 -110 l 1,9,-1
 464 -110 l 1,10,-1
 464 627 l 1,11,-1
 357 627 l 1,12,-1
 357 -110 l 1,13,-1
 241 -110 l 1,14,-1
 241 270 l 1,15,0
 179 270 179 270 126 301 c 128,-1,1
EndSplineSet
EndChar

StartChar: section
Encoding: 167 167 535
Width: 573
Flags: W
LayerCount: 2
Fore
SplineSet
498 126 m 128,-1,1
 511 96 511 96 511 57 c 0,2,3
 511 -26 511 -26 452.5 -73 c 128,-1,4
 394 -120 394 -120 287 -120 c 0,5,6
 176 -120 176 -120 72 -77 c 1,7,-1
 101 30 l 1,8,9
 190 -10 190 -10 273 -10 c 0,10,11
 382 -10 382 -10 382 57 c 0,12,13
 382 88 382 88 359 106 c 128,-1,14
 336 124 336 124 282 134 c 0,15,16
 169 153 169 153 115.5 199 c 128,-1,17
 62 245 62 245 62 320 c 256,18,19
 62 395 62 395 115 442 c 1,20,21
 87 464 87 464 74 493.5 c 128,-1,22
 61 523 61 523 61 563 c 0,23,24
 61 646 61 646 120 693 c 128,-1,25
 179 740 179 740 286 740 c 0,26,27
 397 740 397 740 501 697 c 1,28,-1
 471 590 l 1,29,30
 382 630 382 630 299 630 c 0,31,32
 191 630 191 630 191 563 c 0,33,34
 191 532 191 532 214 514 c 128,-1,35
 237 496 237 496 290 486 c 0,36,37
 403 467 403 467 457 421 c 128,-1,38
 511 375 511 375 511 300 c 0,39,40
 511 223 511 223 458 178 c 1,41,0
 485 156 485 156 498 126 c 128,-1,1
200.5 273.5 m 128,-1,43
 226 255 226 255 297 240 c 0,44,45
 336 233 336 233 366 222 c 1,46,47
 398 249 398 249 398 292 c 0,48,49
 398 328 398 328 372 347 c 128,-1,50
 346 366 346 366 276 380 c 0,51,52
 238 387 238 387 206 398 c 1,53,54
 175 370 175 370 175 328 c 0,55,42
 175 292 175 292 200.5 273.5 c 128,-1,43
EndSplineSet
EndChar

StartChar: copyright
Encoding: 169 169 536
Width: 818
Flags: W
LayerCount: 2
Fore
SplineSet
222.5 43 m 128,-1,1
 137 93 137 93 87 178.5 c 128,-1,2
 37 264 37 264 37 365 c 256,3,4
 37 466 37 466 87 551.5 c 128,-1,5
 137 637 137 637 222.5 687 c 128,-1,6
 308 737 308 737 409 737 c 256,7,8
 510 737 510 737 595.5 687 c 128,-1,9
 681 637 681 637 731 551.5 c 128,-1,10
 781 466 781 466 781 365 c 256,11,12
 781 264 781 264 731 178.5 c 128,-1,13
 681 93 681 93 595.5 43 c 128,-1,14
 510 -7 510 -7 409 -7 c 256,15,0
 308 -7 308 -7 222.5 43 c 128,-1,1
558 108 m 128,-1,17
 626 148 626 148 666 216 c 128,-1,18
 706 284 706 284 706 365 c 256,19,20
 706 446 706 446 666 514 c 128,-1,21
 626 582 626 582 558 622 c 128,-1,22
 490 662 490 662 409 662 c 256,23,24
 328 662 328 662 260 622 c 128,-1,25
 192 582 192 582 152 514 c 128,-1,26
 112 446 112 446 112 365 c 256,27,28
 112 284 112 284 152 216 c 128,-1,29
 192 148 192 148 260 108 c 128,-1,30
 328 68 328 68 409 68 c 256,31,16
 490 68 490 68 558 108 c 128,-1,17
260.5 199.5 m 128,-1,33
 203 259 203 259 203 365 c 256,34,35
 203 471 203 471 261 530.5 c 128,-1,36
 319 590 319 590 422 590 c 0,37,38
 506 590 506 590 569 551 c 1,39,-1
 519 460 l 1,40,41
 473 489 473 489 426 489 c 0,42,43
 375 489 375 489 346.5 457 c 128,-1,44
 318 425 318 425 318 365 c 256,45,46
 318 305 318 305 346 273 c 128,-1,47
 374 241 374 241 426 241 c 0,48,49
 473 241 473 241 519 270 c 1,50,-1
 569 179 l 1,51,52
 506 140 506 140 422 140 c 0,53,32
 318 140 318 140 260.5 199.5 c 128,-1,33
EndSplineSet
EndChar

StartChar: registered
Encoding: 174 174 537
Width: 818
Flags: W
LayerCount: 2
Fore
SplineSet
595 686 m 128,-1,1
 680 636 680 636 730 551 c 128,-1,2
 780 466 780 466 780 365 c 256,3,4
 780 264 780 264 730 179 c 128,-1,5
 680 94 680 94 595 44 c 128,-1,6
 510 -6 510 -6 409 -6 c 256,7,8
 308 -6 308 -6 223 44 c 128,-1,9
 138 94 138 94 88 179 c 128,-1,10
 38 264 38 264 38 365 c 256,11,12
 38 466 38 466 88 551 c 128,-1,13
 138 636 138 636 223 686 c 128,-1,14
 308 736 308 736 409 736 c 256,15,0
 510 736 510 736 595 686 c 128,-1,1
558 108 m 128,-1,17
 626 148 626 148 666 216 c 128,-1,18
 706 284 706 284 706 365 c 256,19,20
 706 446 706 446 666 514 c 128,-1,21
 626 582 626 582 558 622 c 128,-1,22
 490 662 490 662 409 662 c 256,23,24
 328 662 328 662 260 622 c 128,-1,25
 192 582 192 582 152 514 c 128,-1,26
 112 446 112 446 112 365 c 256,27,28
 112 284 112 284 152 216 c 128,-1,29
 192 148 192 148 260 108 c 128,-1,30
 328 68 328 68 409 68 c 256,31,16
 490 68 490 68 558 108 c 128,-1,17
484 314 m 1,33,-1
 600 146 l 1,34,-1
 468 146 l 1,35,-1
 374 302 l 1,36,-1
 374 146 l 1,37,-1
 261 146 l 1,38,-1
 261 584 l 1,39,-1
 389 584 l 2,40,41
 488 584 488 584 535.5 550 c 128,-1,42
 583 516 583 516 583 446 c 0,43,32
 583 341 583 341 484 314 c 1,33,-1
374 494 m 1,44,-1
 374 389 l 1,45,-1
 393 389 l 2,46,47
 432 389 432 389 450 402 c 128,-1,48
 468 415 468 415 468 442 c 256,49,50
 468 469 468 469 450 481.5 c 128,-1,51
 432 494 432 494 393 494 c 2,52,-1
 374 494 l 1,44,-1
EndSplineSet
EndChar

StartChar: trademark
Encoding: 8482 8482 538
Width: 772
Flags: W
LayerCount: 2
Fore
SplineSet
126 647 m 1,0,-1
 27 647 l 1,1,-1
 27 730 l 1,2,-1
 320 730 l 1,3,-1
 320 647 l 1,4,-1
 222 647 l 1,5,-1
 222 365 l 1,6,-1
 126 365 l 1,7,-1
 126 647 l 1,0,-1
372 730 m 1,8,-1
 491 730 l 1,9,-1
 554 569 l 1,10,-1
 555 569 l 1,11,-1
 617 730 l 1,12,-1
 737 730 l 1,13,-1
 737 365 l 1,14,-1
 643 365 l 1,15,-1
 643 564 l 1,16,-1
 642 564 l 1,17,-1
 596 443 l 1,18,-1
 513 443 l 1,19,-1
 466 564 l 1,20,-1
 465 564 l 1,21,-1
 465 365 l 1,22,-1
 372 365 l 1,23,-1
 372 730 l 1,8,-1
EndSplineSet
EndChar

StartChar: degree
Encoding: 176 176 539
Width: 423
Flags: W
LayerCount: 2
Fore
SplineSet
122.5 404 m 128,-1,1
 82 428 82 428 58 469 c 128,-1,2
 34 510 34 510 34 558 c 256,3,4
 34 606 34 606 58 646.5 c 128,-1,5
 82 687 82 687 122.5 711 c 128,-1,6
 163 735 163 735 212 735 c 0,7,8
 260 735 260 735 300.5 711 c 128,-1,9
 341 687 341 687 365 646.5 c 128,-1,10
 389 606 389 606 389 558 c 256,11,12
 389 510 389 510 365 469 c 128,-1,13
 341 428 341 428 300.5 404 c 128,-1,14
 260 380 260 380 212 380 c 0,15,0
 163 380 163 380 122.5 404 c 128,-1,1
272 497 m 128,-1,17
 297 522 297 522 297 558 c 0,18,19
 297 593 297 593 272 618 c 128,-1,20
 247 643 247 643 212 643 c 0,21,22
 176 643 176 643 151 618 c 128,-1,23
 126 593 126 593 126 558 c 0,24,25
 126 522 126 522 151 497 c 128,-1,26
 176 472 176 472 212 472 c 0,27,16
 247 472 247 472 272 497 c 128,-1,17
EndSplineSet
EndChar

StartChar: bar
Encoding: 124 124 540
Width: 292
Flags: W
LayerCount: 2
Fore
SplineSet
83 810 m 1,0,-1
 209 810 l 1,1,-1
 209 -220 l 1,2,-1
 83 -220 l 1,3,-1
 83 810 l 1,0,-1
EndSplineSet
EndChar

StartChar: brokenbar
Encoding: 166 166 541
Width: 292
Flags: W
LayerCount: 2
Fore
SplineSet
83 810 m 1,0,-1
 209 810 l 1,1,-1
 209 370 l 1,2,-1
 83 370 l 1,3,-1
 83 810 l 1,0,-1
83 220 m 1,4,-1
 209 220 l 1,5,-1
 209 -220 l 1,6,-1
 83 -220 l 1,7,-1
 83 220 l 1,4,-1
EndSplineSet
EndChar

StartChar: dagger
Encoding: 8224 8224 542
Width: 527
Flags: W
LayerCount: 2
Fore
SplineSet
200 413 m 1,0,-1
 27 413 l 1,1,-1
 27 520 l 1,2,-1
 200 520 l 1,3,-1
 200 730 l 1,4,-1
 327 730 l 1,5,-1
 327 520 l 1,6,-1
 500 520 l 1,7,-1
 500 413 l 1,8,-1
 327 413 l 1,9,-1
 327 -110 l 1,10,-1
 200 -110 l 1,11,-1
 200 413 l 1,0,-1
EndSplineSet
EndChar

StartChar: daggerdbl
Encoding: 8225 8225 543
Width: 549
Flags: W
LayerCount: 2
Fore
SplineSet
211 100 m 1,0,-1
 38 100 l 1,1,-1
 38 207 l 1,2,-1
 211 207 l 1,3,-1
 211 413 l 1,4,-1
 38 413 l 1,5,-1
 38 520 l 1,6,-1
 211 520 l 1,7,-1
 211 730 l 1,8,-1
 338 730 l 1,9,-1
 338 520 l 1,10,-1
 511 520 l 1,11,-1
 511 413 l 1,12,-1
 338 413 l 1,13,-1
 338 207 l 1,14,-1
 511 207 l 1,15,-1
 511 100 l 1,16,-1
 338 100 l 1,17,-1
 338 -110 l 1,18,-1
 211 -110 l 1,19,-1
 211 100 l 1,0,-1
EndSplineSet
EndChar

StartChar: uni2116
Encoding: 8470 8470 544
Width: 1206
GlyphClass: 2
Flags: W
AnchorPoint: "Anchor-1" 365 730 basechar 0
AnchorPoint: "Anchor-0" 365 0 basechar 0
LayerCount: 2
Fore
SplineSet
791 364 m 128,-1,1
 737 420 737 420 737 524 c 256,2,3
 737 628 737 628 791 684 c 128,-1,4
 845 740 845 740 945 740 c 256,5,6
 1045 740 1045 740 1099 684 c 128,-1,7
 1153 628 1153 628 1153 524 c 256,8,9
 1153 420 1153 420 1099 364 c 128,-1,10
 1045 308 1045 308 945 308 c 256,11,0
 845 308 845 308 791 364 c 128,-1,1
222 730 m 1,12,-1
 513 230 l 1,13,-1
 515 230 l 1,14,-1
 515 730 l 1,15,-1
 655 730 l 1,16,-1
 655 0 l 1,17,-1
 508 0 l 1,18,-1
 217 500 l 1,19,-1
 215 500 l 1,20,-1
 215 0 l 1,21,-1
 75 0 l 1,22,-1
 75 730 l 1,23,-1
 222 730 l 1,12,-1
1007.5 433.5 m 128,-1,25
 1029 464 1029 464 1029 524 c 256,26,27
 1029 584 1029 584 1007.5 614.5 c 128,-1,28
 986 645 986 645 945 645 c 0,29,30
 862 645 862 645 862 524 c 256,31,32
 862 403 862 403 945 403 c 0,33,24
 986 403 986 403 1007.5 433.5 c 128,-1,25
747 257 m 1,34,-1
 1143 257 l 1,35,-1
 1143 157 l 1,36,-1
 747 157 l 1,37,-1
 747 257 l 1,34,-1
EndSplineSet
Ligature2: "'ordn' Ordinals in Latin lookup 9 subtable" N o period
EndChar

StartChar: uni0308
Encoding: 776 776 547
Width: 0
GlyphClass: 4
Flags: W
AnchorPoint: "Anchor-10" -231 739 basemark 0
AnchorPoint: "Anchor-10" -231 520 mark 0
AnchorPoint: "Anchor-6" -231 520 mark 0
AnchorPoint: "Anchor-1" -231 520 mark 0
LayerCount: 2
Fore
SplineSet
-434 739 m 1,0,-1
 -286 739 l 1,1,-1
 -286 591 l 1,2,-1
 -434 591 l 1,3,-1
 -434 739 l 1,0,-1
-174 739 m 1,4,-1
 -27 739 l 1,5,-1
 -27 591 l 1,6,-1
 -174 591 l 1,7,-1
 -174 739 l 1,4,-1
EndSplineSet
EndChar

StartChar: uni0307
Encoding: 775 775 548
Width: 0
GlyphClass: 4
Flags: W
AnchorPoint: "Anchor-10" -101 739 basemark 0
AnchorPoint: "Anchor-10" -101 520 mark 0
AnchorPoint: "Anchor-6" -101 520 mark 0
AnchorPoint: "Anchor-1" -101 520 mark 0
LayerCount: 2
Fore
SplineSet
-175 739 m 1,0,-1
 -27 739 l 1,1,-1
 -27 591 l 1,2,-1
 -175 591 l 1,3,-1
 -175 739 l 1,0,-1
EndSplineSet
EndChar

StartChar: gravecomb
Encoding: 768 768 549
Width: 0
GlyphClass: 4
Flags: W
AnchorPoint: "Anchor-10" -147 520 mark 0
AnchorPoint: "Anchor-6" -147 520 mark 0
AnchorPoint: "Anchor-1" -147 520 mark 0
LayerCount: 2
Fore
SplineSet
-295 770 m 1,0,-1
 -125 770 l 1,1,-1
 -42 560 l 1,2,-1
 -172 560 l 1,3,-1
 -295 770 l 1,0,-1
EndSplineSet
EndChar

StartChar: acutecomb
Encoding: 769 769 550
Width: 0
GlyphClass: 4
Flags: W
AnchorPoint: "Anchor-10" -173 520 mark 0
AnchorPoint: "Anchor-6" -173 520 mark 0
AnchorPoint: "Anchor-1" -173 520 mark 0
LayerCount: 2
Fore
SplineSet
-148 560 m 1,0,-1
 -278 560 l 1,1,-1
 -195 770 l 1,2,-1
 -25 770 l 1,3,-1
 -148 560 l 1,0,-1
EndSplineSet
EndChar

StartChar: uni0302
Encoding: 770 770 552
Width: 0
GlyphClass: 4
Flags: W
AnchorPoint: "Anchor-10" -262 520 mark 0
AnchorPoint: "Anchor-6" -262 520 mark 0
AnchorPoint: "Anchor-1" -262 520 mark 0
LayerCount: 2
Fore
SplineSet
-377 770 m 1,0,-1
 -148 770 l 1,1,-1
 -25 560 l 1,2,-1
 -181 560 l 1,3,-1
 -261 713 l 1,4,-1
 -263 713 l 1,5,-1
 -343 560 l 1,6,-1
 -499 560 l 1,7,-1
 -377 770 l 1,0,-1
EndSplineSet
EndChar

StartChar: uni030C
Encoding: 780 780 553
Width: 0
GlyphClass: 4
Flags: W
AnchorPoint: "Anchor-10" -262 770 basemark 0
AnchorPoint: "Anchor-10" -262 520 mark 0
AnchorPoint: "Anchor-6" -262 520 mark 0
AnchorPoint: "Anchor-1" -262 520 mark 0
LayerCount: 2
Fore
SplineSet
-499 770 m 1,0,-1
 -343 770 l 1,1,-1
 -263 617 l 1,2,-1
 -261 617 l 1,3,-1
 -181 770 l 1,4,-1
 -25 770 l 1,5,-1
 -148 560 l 1,6,-1
 -377 560 l 1,7,-1
 -499 770 l 1,0,-1
EndSplineSet
EndChar

StartChar: uni0306
Encoding: 774 774 554
Width: 0
GlyphClass: 4
Flags: W
AnchorPoint: "Anchor-10" -237 520 mark 0
AnchorPoint: "Anchor-6" -237 520 mark 0
AnchorPoint: "Anchor-1" -237 520 mark 0
LayerCount: 2
Fore
SplineSet
-347.5 589 m 128,-1,1
 -397 613 -397 613 -425.5 655.5 c 128,-1,2
 -454 698 -454 698 -456 752 c 1,3,-1
 -322 752 l 1,4,5
 -311 666 -311 666 -236 666 c 0,6,7
 -162 666 -162 666 -151 752 c 1,8,-1
 -16 752 l 1,9,10
 -18 698 -18 698 -46.5 655.5 c 128,-1,11
 -75 613 -75 613 -124.5 589 c 128,-1,12
 -174 565 -174 565 -236 565 c 256,13,0
 -298 565 -298 565 -347.5 589 c 128,-1,1
EndSplineSet
EndChar

StartChar: uni030A
Encoding: 778 778 555
Width: 0
GlyphClass: 4
Flags: W
AnchorPoint: "Anchor-10" -179 737 basemark 0
AnchorPoint: "Anchor-10" -179 520 mark 0
AnchorPoint: "Anchor-6" -179 520 mark 0
AnchorPoint: "Anchor-1" -179 520 mark 0
LayerCount: 2
Fore
SplineSet
-257 529 m 128,-1,1
 -293 550 -293 550 -314 586 c 128,-1,2
 -335 622 -335 622 -335 665 c 256,3,4
 -335 708 -335 708 -314 744 c 128,-1,5
 -293 780 -293 780 -257 801 c 128,-1,6
 -221 822 -221 822 -179 822 c 0,7,8
 -136 822 -136 822 -100 801 c 128,-1,9
 -64 780 -64 780 -43 744 c 128,-1,10
 -22 708 -22 708 -22 665 c 256,11,12
 -22 622 -22 622 -43 586 c 128,-1,13
 -64 550 -64 550 -100 529 c 128,-1,14
 -136 508 -136 508 -179 508 c 0,15,0
 -221 508 -221 508 -257 529 c 128,-1,1
-132.5 619 m 128,-1,17
 -114 638 -114 638 -114 665 c 256,18,19
 -114 692 -114 692 -132.5 711 c 128,-1,20
 -151 730 -151 730 -179 730 c 0,21,22
 -206 730 -206 730 -225 711 c 128,-1,23
 -244 692 -244 692 -244 665 c 256,24,25
 -244 638 -244 638 -225 619 c 128,-1,26
 -206 600 -206 600 -179 600 c 0,27,16
 -151 600 -151 600 -132.5 619 c 128,-1,17
EndSplineSet
EndChar

StartChar: tildecomb
Encoding: 771 771 556
Width: 0
GlyphClass: 4
Flags: W
AnchorPoint: "Anchor-10" -247 762 basemark 0
AnchorPoint: "Anchor-10" -247 520 mark 0
AnchorPoint: "Anchor-6" -247 520 mark 0
AnchorPoint: "Anchor-1" -247 520 mark 0
LayerCount: 2
Fore
SplineSet
-189.5 578.5 m 128,-1,1
 -220 589 -220 589 -261 613 c 0,2,3
 -306 640 -306 640 -325 640 c 0,4,5
 -340 640 -340 640 -346 626.5 c 128,-1,6
 -352 613 -352 613 -352 578 c 1,7,-1
 -468 578 l 1,8,9
 -468 672 -468 672 -442 717 c 128,-1,10
 -416 762 -416 762 -362 762 c 0,11,12
 -310 762 -310 762 -235 717 c 0,13,14
 -190 690 -190 690 -170 690 c 0,15,16
 -156 690 -156 690 -150 703.5 c 128,-1,17
 -144 717 -144 717 -144 752 c 1,18,-1
 -28 752 l 1,19,20
 -28 657 -28 657 -53.5 612.5 c 128,-1,21
 -79 568 -79 568 -133 568 c 0,22,0
 -159 568 -159 568 -189.5 578.5 c 128,-1,1
EndSplineSet
EndChar

StartChar: uni0304
Encoding: 772 772 557
Width: 0
GlyphClass: 4
Flags: W
AnchorPoint: "Anchor-10" -223 717 basemark 0
AnchorPoint: "Anchor-10" -223 520 mark 0
AnchorPoint: "Anchor-6" -223 520 mark 0
AnchorPoint: "Anchor-1" -223 520 mark 0
LayerCount: 2
Fore
SplineSet
-420 717 m 1,0,-1
 -28 717 l 1,1,-1
 -28 613 l 1,2,-1
 -420 613 l 1,3,-1
 -420 717 l 1,0,-1
EndSplineSet
EndChar

StartChar: uni0305
Encoding: 773 773 558
Width: 0
GlyphClass: 4
Flags: W
LayerCount: 2
Fore
SplineSet
-613 900 m 1,0,-1
 0 900 l 1,1,-1
 0 800 l 1,2,-1
 -613 800 l 1,3,-1
 -613 900 l 1,0,-1
EndSplineSet
EndChar

StartChar: hookabovecomb
Encoding: 777 777 559
Width: 0
GlyphClass: 4
Flags: W
AnchorPoint: "Anchor-10" -199 775 basemark 0
AnchorPoint: "Anchor-10" -199 520 mark 0
AnchorPoint: "Anchor-6" -199 520 mark 0
AnchorPoint: "Anchor-1" -199 520 mark 0
LayerCount: 2
Fore
SplineSet
-163 639 m 0,1,2
 -163 660 -163 660 -176 667 c 128,-1,3
 -189 674 -189 674 -224 674 c 0,4,5
 -292 674 -292 674 -358 654 c 1,6,-1
 -370 757 l 1,7,8
 -292 775 -292 775 -198 775 c 0,9,10
 -130 775 -130 775 -94 767.5 c 128,-1,11
 -58 760 -58 760 -42.5 741.5 c 128,-1,12
 -27 723 -27 723 -27 688 c 0,13,14
 -27 663 -27 663 -33 631.5 c 128,-1,15
 -39 600 -39 600 -49 575 c 1,16,-1
 -175 575 l 1,17,0
 -163 615 -163 615 -163 639 c 0,1,2
EndSplineSet
EndChar

StartChar: uni030F
Encoding: 783 783 560
Width: 0
GlyphClass: 4
Flags: W
AnchorPoint: "Anchor-10" -267 770 basemark 0
AnchorPoint: "Anchor-10" -267 520 mark 0
AnchorPoint: "Anchor-6" -267 520 mark 0
AnchorPoint: "Anchor-1" -267 520 mark 0
LayerCount: 2
Fore
SplineSet
-535 770 m 1,0,-1
 -365 770 l 1,1,-1
 -282 560 l 1,2,-1
 -412 560 l 1,3,-1
 -535 770 l 1,0,-1
-295 770 m 1,4,-1
 -125 770 l 1,5,-1
 -42 560 l 1,6,-1
 -172 560 l 1,7,-1
 -295 770 l 1,4,-1
EndSplineSet
EndChar

StartChar: uni0311
Encoding: 785 785 561
Width: 0
GlyphClass: 4
Flags: W
AnchorPoint: "Anchor-10" -237 765 basemark 0
AnchorPoint: "Anchor-10" -237 520 mark 0
AnchorPoint: "Anchor-6" -237 520 mark 0
AnchorPoint: "Anchor-1" -237 520 mark 0
LayerCount: 2
Fore
SplineSet
-124.5 741 m 128,-1,1
 -75 717 -75 717 -46.5 674.5 c 128,-1,2
 -18 632 -18 632 -16 578 c 1,3,-1
 -151 578 l 1,4,5
 -162 664 -162 664 -236 664 c 0,6,7
 -311 664 -311 664 -322 578 c 1,8,-1
 -456 578 l 1,9,10
 -454 632 -454 632 -425.5 674.5 c 128,-1,11
 -397 717 -397 717 -347.5 741 c 128,-1,12
 -298 765 -298 765 -236 765 c 256,13,0
 -174 765 -174 765 -124.5 741 c 128,-1,1
EndSplineSet
EndChar

StartChar: uni0312
Encoding: 786 786 562
Width: 0
GlyphClass: 4
Flags: W
AnchorPoint: "Anchor-10" -169 770 basemark 0
AnchorPoint: "Anchor-10" -169 520 mark 0
AnchorPoint: "Anchor-6" -169 520 mark 0
AnchorPoint: "Anchor-1" -169 520 mark 0
LayerCount: 2
Fore
SplineSet
-172 770 m 1,0,-1
 -42 770 l 1,1,-1
 -125 560 l 1,2,-1
 -295 560 l 1,3,-1
 -172 770 l 1,0,-1
EndSplineSet
EndChar

StartChar: uni031B
Encoding: 795 795 563
Width: 0
GlyphClass: 4
Flags: W
AnchorPoint: "Anchor-11" -62 770 basemark 0
AnchorPoint: "Anchor-11" -307 622 mark 0
AnchorPoint: "Anchor-7" -307 622 mark 0
AnchorPoint: "Anchor-3" -307 622 mark 0
LayerCount: 2
Fore
SplineSet
-330 518 m 1,1,-1
 -307 622 l 1,2,3
 -303 611 -303 611 -290 604 c 128,-1,4
 -277 597 -277 597 -260 597 c 0,5,6
 -236 597 -236 597 -222.5 613.5 c 128,-1,7
 -209 630 -209 630 -209 659 c 0,8,9
 -209 682 -209 682 -215.5 715.5 c 128,-1,10
 -222 749 -222 749 -231 770 c 1,11,-1
 -96 770 l 1,12,13
 -75 710 -75 710 -75 644 c 0,14,15
 -75 569 -75 569 -111 528 c 128,-1,16
 -147 487 -147 487 -213 487 c 0,17,0
 -269 487 -269 487 -330 518 c 1,1,-1
EndSplineSet
EndChar

StartChar: uni0326
Encoding: 806 806 566
Width: 0
GlyphClass: 4
Flags: W
AnchorPoint: "Anchor-10" -173 -290 mark 0
AnchorPoint: "Anchor-9" -151 -210 basemark 0
AnchorPoint: "Anchor-6" -173 -290 mark 0
AnchorPoint: "Anchor-1" -173 -290 mark 0
LayerCount: 2
Fore
SplineSet
-148 -250 m 1,0,-1
 -278 -250 l 1,1,-1
 -195 -40 l 1,2,-1
 -25 -40 l 1,3,-1
 -148 -250 l 1,0,-1
EndSplineSet
EndChar

StartChar: uni0327
Encoding: 807 807 567
Width: 0
GlyphClass: 4
Flags: W
AnchorPoint: "Anchor-8" -262 0 mark 0
LayerCount: 2
Fore
SplineSet
-352 -197 m 1,1,-1
 -336 -96 l 1,2,3
 -290 -115 -290 -115 -244 -115 c 0,4,5
 -214 -115 -214 -115 -198 -106 c 128,-1,6
 -182 -97 -182 -97 -182 -81 c 0,7,8
 -182 -43 -182 -43 -262 0 c 1,9,-1
 -138 33 l 1,10,11
 -96 0 -96 0 -75.5 -33 c 128,-1,12
 -55 -66 -55 -66 -55 -102 c 0,13,14
 -55 -157 -55 -157 -101.5 -187.5 c 128,-1,15
 -148 -218 -148 -218 -234 -218 c 0,16,0
 -300 -218 -300 -218 -352 -197 c 1,1,-1
EndSplineSet
EndChar

StartChar: uni0328
Encoding: 808 808 568
Width: 0
GlyphClass: 4
Flags: W
AnchorPoint: "Anchor-5" -145 0 mark 0
AnchorPoint: "Anchor-2" -145 0 mark 0
LayerCount: 2
Fore
SplineSet
-305.5 -187.5 m 128,-1,1
 -352 -157 -352 -157 -352 -102 c 0,2,3
 -352 -66 -352 -66 -331.5 -33 c 128,-1,4
 -311 0 -311 0 -269 33 c 1,5,-1
 -145 0 l 1,6,7
 -226 -44 -226 -44 -226 -81 c 0,8,9
 -226 -98 -226 -98 -210 -106.5 c 128,-1,10
 -194 -115 -194 -115 -163 -115 c 0,11,12
 -117 -115 -117 -115 -71 -96 c 1,13,-1
 -55 -197 l 1,14,15
 -108 -218 -108 -218 -173 -218 c 0,16,0
 -259 -218 -259 -218 -305.5 -187.5 c 128,-1,1
EndSplineSet
EndChar

StartChar: uni0370
Encoding: 880 880 584
Width: 598
Flags: W
LayerCount: 2
Fore
SplineSet
559 438 m 1,0,-1
 559 331 l 1,1,-1
 220 331 l 1,2,-1
 220 0 l 1,3,-1
 79 0 l 1,4,-1
 79 730 l 1,5,-1
 220 730 l 1,6,-1
 220 438 l 1,7,-1
 559 438 l 1,0,-1
EndSplineSet
EndChar

StartChar: uni0371
Encoding: 881 881 585
Width: 471
Flags: W
LayerCount: 2
Fore
SplineSet
432 322 m 1,0,-1
 432 225 l 1,1,-1
 200 225 l 1,2,-1
 200 0 l 1,3,-1
 69 0 l 1,4,-1
 69 520 l 1,5,-1
 200 520 l 1,6,-1
 200 322 l 1,7,-1
 432 322 l 1,0,-1
EndSplineSet
EndChar

StartChar: uni0372
Encoding: 882 882 586
Width: 732
Flags: W
LayerCount: 2
Fore
SplineSet
296 614 m 1,0,-1
 183 614 l 1,1,-1
 183 337 l 1,2,-1
 59 337 l 1,3,-1
 59 730 l 1,4,-1
 673 730 l 1,5,-1
 673 337 l 1,6,-1
 549 337 l 1,7,-1
 549 614 l 1,8,-1
 436 614 l 1,9,-1
 436 0 l 1,10,-1
 296 0 l 1,11,-1
 296 614 l 1,0,-1
EndSplineSet
EndChar

StartChar: uni0373
Encoding: 883 883 587
Width: 614
Flags: W
LayerCount: 2
Fore
SplineSet
242 632 m 1,0,-1
 160 632 l 1,1,-1
 160 437 l 1,2,-1
 54 437 l 1,3,-1
 54 730 l 1,4,-1
 560 730 l 1,5,-1
 560 437 l 1,6,-1
 454 437 l 1,7,-1
 454 632 l 1,8,-1
 372 632 l 1,9,-1
 372 0 l 1,10,-1
 242 0 l 1,11,-1
 242 632 l 1,0,-1
EndSplineSet
EndChar

StartChar: uni0374
Encoding: 884 884 588
Width: 336
Flags: W
LayerCount: 2
Fore
SplineSet
297 770 m 1,0,-1
 184 490 l 1,1,-1
 64 490 l 1,2,-1
 130 770 l 1,3,-1
 297 770 l 1,0,-1
EndSplineSet
EndChar

StartChar: uni0375
Encoding: 885 885 589
Width: 337
Flags: W
LayerCount: 2
Fore
SplineSet
206 -110 m 1,0,-1
 39 -110 l 1,1,-1
 153 170 l 1,2,-1
 273 170 l 1,3,-1
 206 -110 l 1,0,-1
EndSplineSet
EndChar

StartChar: uni0376
Encoding: 886 886 590
Width: 734
Flags: W
LayerCount: 2
Fore
SplineSet
655 0 m 1,0,-1
 518 0 l 1,1,-1
 518 497 l 1,2,-1
 516 497 l 1,3,-1
 216 0 l 1,4,-1
 79 0 l 1,5,-1
 79 730 l 1,6,-1
 216 730 l 1,7,-1
 216 233 l 1,8,-1
 218 233 l 1,9,-1
 518 730 l 1,10,-1
 655 730 l 1,11,-1
 655 0 l 1,0,-1
EndSplineSet
EndChar

StartChar: uni0377
Encoding: 887 887 591
Width: 622
Flags: W
LayerCount: 2
Fore
SplineSet
201 520 m 1,0,-1
 201 181 l 1,1,-1
 203 181 l 1,2,-1
 418 520 l 1,3,-1
 553 520 l 1,4,-1
 553 0 l 1,5,-1
 421 0 l 1,6,-1
 421 339 l 1,7,-1
 419 339 l 1,8,-1
 204 0 l 1,9,-1
 69 0 l 1,10,-1
 69 520 l 1,11,-1
 201 520 l 1,0,-1
EndSplineSet
EndChar

StartChar: uni037A
Encoding: 890 890 592
Width: 405
Flags: W
LayerCount: 2
Fore
SplineSet
209 -100 m 2,0,1
 209 -153 209 -153 219 -165 c 128,-1,2
 229 -177 229 -177 272 -177 c 0,3,4
 313 -177 313 -177 353 -162 c 1,5,-1
 366 -248 l 1,6,7
 307 -263 307 -263 249 -263 c 0,8,9
 148 -263 148 -263 113.5 -230 c 128,-1,10
 79 -197 79 -197 79 -100 c 2,11,-1
 79 -60 l 1,12,-1
 209 -60 l 1,13,-1
 209 -100 l 2,0,1
EndSplineSet
EndChar

StartChar: uni037B
Encoding: 891 891 593
Width: 539
Flags: W
LayerCount: 2
Fore
SplineSet
89 124 m 1,0,1
 151 88 151 88 222 88 c 0,2,3
 289 88 289 88 330.5 134 c 128,-1,4
 372 180 372 180 372 260 c 0,5,6
 372 342 372 342 332.5 386 c 128,-1,7
 293 430 293 430 222 430 c 0,8,9
 152 430 152 430 89 394 c 1,10,-1
 59 493 l 1,11,12
 141 530 141 530 229 530 c 0,13,14
 359 530 359 530 432 458.5 c 128,-1,15
 505 387 505 387 505 260 c 0,16,17
 505 136 505 136 429.5 63 c 128,-1,18
 354 -10 354 -10 229 -10 c 0,19,20
 141 -10 141 -10 59 27 c 1,21,-1
 89 124 l 1,0,1
EndSplineSet
EndChar

StartChar: uni037C
Encoding: 892 892 594
Width: 539
Flags: W
LayerCount: 2
Fore
SplineSet
274 203 m 1,0,-1
 274 317 l 1,1,-1
 387 317 l 1,2,-1
 387 203 l 1,3,-1
 274 203 l 1,0,-1
450 124 m 1,4,-1
 480 27 l 1,5,6
 398 -10 398 -10 310 -10 c 0,7,8
 185 -10 185 -10 109.5 63 c 128,-1,9
 34 136 34 136 34 260 c 0,10,11
 34 387 34 387 107 458.5 c 128,-1,12
 180 530 180 530 310 530 c 0,13,14
 398 530 398 530 480 493 c 1,15,-1
 450 394 l 1,16,17
 387 430 387 430 317 430 c 0,18,19
 246 430 246 430 206.5 386 c 128,-1,20
 167 342 167 342 167 260 c 0,21,22
 167 180 167 180 208.5 134 c 128,-1,23
 250 88 250 88 317 88 c 0,24,25
 388 88 388 88 450 124 c 1,4,-1
EndSplineSet
EndChar

